<?xml version="1.0" standalone="no"?>
<!DOCTYPE svg PUBLIC "-//W3C//DTD SVG 1.1//EN" "http://www.w3.org/Graphics/SVG/1.1/DTD/svg11.dtd" >
<svg xmlns="http://www.w3.org/2000/svg" xmlns:xlink="http://www.w3.org/1999/xlink" version="1.1">
<metadata>
Created by FontForge 20161003 at Mon Aug  6 07:47:50 2018
 By www-data
Copyright (c) 1981, 1982, 1983, 1989 and 1993, Linotype Library GmbH or its affiliated Linotype-Hell companies. All rights reserved.

The digitally encoded machine readable software for producing the Typefaces licensed to you is now the property of Heidelberger Druckmaschinen AG and its licensors, and may not be reproduced, used, displayed, modified, disclosed or transferred without the express written approval of Heidelberger Druckmaschinen AG.

Copyright (c) 1988, 1990, 1993 Adobe Systems Incorporated. All Rights Reserved.
</metadata>
<defs>
<font id="helveticaneuebolditalic" horiz-adv-x="611" >
  <font-face 
    font-family="helveticaneuebolditalic"
    font-weight="700"
    font-stretch="normal"
    units-per-em="1000"
    panose-1="2 0 8 3 0 0 0 9 0 4"
    ascent="800"
    descent="-200"
    x-height="517"
    cap-height="714"
    bbox="-1061 -481 1530 1141"
    underline-thickness="50"
    underline-position="-175"
    unicode-range="U+0008-FFA7"
  />
<missing-glyph horiz-adv-x="500" 
d="M442 8v496h-384v-496h384zM50 512h400v-512h-400v512z" />
    <glyph glyph-name="fi" unicode="fi" 
d="M106 422h-84l20 95h85q11 56 22 88.5t32.5 61.5t57 41t89.5 12q43 0 93 -8l-22 -102q-45 3 -46 3q-15 0 -26 -2t-19 -7t-13 -9.5t-9 -15t-6 -17t-5.5 -22t-5.5 -23.5h101l-20 -95h-102l-89 -422h-142zM451 517h142l-110 -517h-142zM609 597h-142l26 117h142z" />
    <glyph glyph-name="fl" unicode="fl" 
d="M106 422h-84l20 95h85q11 56 22 88.5t32.5 61.5t57 41t89.5 12q43 0 93 -8l-22 -102q-45 3 -46 3q-15 0 -26 -2t-19 -7t-13 -9.5t-9 -15t-6 -17t-5.5 -22t-5.5 -23.5h101l-20 -95h-102l-89 -422h-142zM492 714h142l-152 -714h-142z" />
    <glyph glyph-name=".notdef" horiz-adv-x="500" 
d="M442 8v496h-384v-496h384zM50 512h400v-512h-400v512z" />
    <glyph glyph-name=".null" horiz-adv-x="0" 
 />
    <glyph glyph-name="nonmarkingreturn" horiz-adv-x="333" 
 />
    <glyph glyph-name="NULL" horiz-adv-x="0" 
 />
    <glyph glyph-name="NULL" horiz-adv-x="0" 
 />
    <glyph glyph-name="controlHT" horiz-adv-x="0" 
 />
    <glyph glyph-name="CR" unicode="&#x9;" horiz-adv-x="278" 
 />
    <glyph glyph-name="space" unicode="&#xa;" horiz-adv-x="278" 
 />
    <glyph glyph-name="space" unicode=" " horiz-adv-x="278" 
 />
    <glyph glyph-name="controlGS" unicode="&#xd;" horiz-adv-x="278" 
 />
    <glyph glyph-name="controlBS" horiz-adv-x="0" 
 />
    <glyph glyph-name="exclam" unicode="!" horiz-adv-x="296" 
d="M259 520l-105 -306h-70l25 306l41 194h151zM29 154h158l-33 -154h-157z" />
    <glyph glyph-name="quotedbl" unicode="&#x22;" horiz-adv-x="481" 
d="M127 714h107v-321h-107v321zM313 714h107v-321h-107v321z" />
    <glyph glyph-name="numbersign" unicode="#" horiz-adv-x="556" 
d="M236 412l-18 -124h97l17 124h-96zM109 198h-83l10 90h85l18 124h-83l10 90h85l28 198h97l-28 -198h97l27 198h97l-27 -198h84l-10 -90h-87l-17 -124h84l-10 -90h-87l-27 -198h-97l27 198h-96l-28 -198h-97z" />
    <glyph glyph-name="dollar" unicode="$" horiz-adv-x="556" 
d="M204 -13q-101 11 -150.5 72t-47.5 181h137q-4 -120 83 -135l40 206l-11 4q-38 13 -58.5 21.5t-48 25t-41 35.5t-24 49t-10.5 69q0 106 78 161t192 55h3l16 79h48l-17 -86q81 -17 129.5 -72t40.5 -146h-137q4 73 -57 99l-33 -177q38 -12 60 -20.5t51 -25t44 -36t26 -51
t11 -72.5q0 -62 -24 -109.5t-64.5 -75t-88 -41t-99.5 -13.5l-17 -87h-49zM323 614h-7q-40 0 -73 -23t-33 -65q0 -55 81 -82zM274 100q46 0 81.5 26t35.5 78q0 25 -13 44.5t-28 28.5t-38 19z" />
    <glyph glyph-name="percent" unicode="%" horiz-adv-x="963" 
d="M542 144q0 95 50.5 163.5t142.5 68.5q76 0 117 -38.5t41 -113.5q0 -98 -55 -167.5t-149 -69.5q-71 0 -109 43t-38 114zM644 126q0 -65 52 -65q33 0 56 35.5t31 75t8 73.5q0 23 -13 39.5t-35 16.5q-27 0 -47.5 -18.5t-31 -47t-15.5 -56.5t-5 -53zM713 722h85l-537 -743
h-86zM175 464q0 -65 52 -65q33 0 56 35.5t31 75t8 73.5q0 23 -13 39.5t-35 16.5q-27 0 -47.5 -18.5t-31 -47t-15.5 -56.5t-5 -53zM73 482q0 95 50.5 163.5t142.5 68.5q76 0 117 -38.5t41 -113.5q0 -98 -55 -168t-149 -70q-71 0 -109 43.5t-38 114.5z" />
    <glyph glyph-name="ampersand" unicode="&#x26;" horiz-adv-x="685" 
d="M288 554q0 -38 38 -100q39 18 70.5 45.5t31.5 59.5q0 30 -18 49t-45 19q-32 0 -54.5 -19t-22.5 -54zM427 56q-86 -69 -192 -69q-91 0 -155 53t-64 143q0 151 193 227q-48 81 -48 126q0 86 54.5 136t142.5 50q79 0 133 -42.5t54 -119.5q0 -65 -45.5 -110.5t-118.5 -83.5
l77 -124q37 38 52 101h127q-24 -125 -113 -203l91 -140h-156zM267 315q-2 -1 -20 -11.5t-22 -12.5t-18.5 -11.5t-18.5 -14.5t-13.5 -15.5t-12.5 -19t-6 -21t-3 -26.5q0 -35 28.5 -57.5t65.5 -22.5q53 0 118 53z" />
    <glyph glyph-name="quotesingle" unicode="'" horiz-adv-x="278" 
d="M110 714h107v-321h-107v321z" />
    <glyph glyph-name="parenleft" unicode="(" horiz-adv-x="296" 
d="M387 731q-127 -168 -178 -317.5t-51 -332.5q0 -95 38 -262h-108q-26 59 -44 155.5t-18 163.5q0 175 57 308t179 285h125z" />
    <glyph glyph-name="parenright" unicode=")" horiz-adv-x="296" 
d="M-111 -181q126 165 177 315.5t51 333.5q0 96 -38 263h108q25 -60 43.5 -157.5t18.5 -162.5q0 -91 -15.5 -169.5t-48.5 -151t-72.5 -133.5t-99.5 -138h-124z" />
    <glyph glyph-name="asterisk" unicode="*" horiz-adv-x="407" 
d="M289 582l121 23l14 -79l-120 -18l57 -105l-72 -39l-55 109l-86 -97l-58 56l89 92l-108 52l34 73l109 -55l17 120l82 -4z" />
    <glyph glyph-name="plus" unicode="+" horiz-adv-x="600" 
d="M48 306h199v199h107v-199h199v-107h-199v-199h-107v199h-199v107z" />
    <glyph glyph-name="comma" unicode="," horiz-adv-x="278" 
d="M19 154h158q-6 -25 -15.5 -72.5t-15.5 -74.5t-21 -63.5t-35 -56.5t-55 -35.5t-82 -17.5l15 71q41 6 60 28.5t28 66.5h-68z" />
    <glyph glyph-name="hyphen" unicode="-" horiz-adv-x="407" 
d="M53 334h301l-26 -122h-301z" />
    <glyph glyph-name="period" unicode="." horiz-adv-x="278" 
d="M20 154h158l-33 -154h-157z" />
    <glyph glyph-name="slash" unicode="/" horiz-adv-x="389" 
d="M277 731h114l-279 -747h-113z" />
    <glyph glyph-name="zero" unicode="0" horiz-adv-x="556" 
d="M138 226q0 -123 98 -123q41 0 74 29.5t52.5 72.5t33 95.5t18.5 95t5 75.5q0 56 -25 91t-77 35q-49 0 -86.5 -43t-56.5 -106.5t-27.5 -120.5t-8.5 -101zM-3 255q0 78 20.5 156.5t59.5 147.5t104.5 112t145.5 43q114 0 174 -72t60 -193q0 -80 -21 -159t-61.5 -148
t-108.5 -112t-152 -43q-58 0 -102 21.5t-69.5 59t-37.5 84.5t-12 103z" />
    <glyph glyph-name="one" unicode="1" horiz-adv-x="556" 
d="M323 0h-151l96 454h-171l23 107q87 4 143 33.5t92 105.5h116z" />
    <glyph glyph-name="two" unicode="2" horiz-adv-x="556" 
d="M44 448q10 126 84.5 196t196.5 70q102 0 167.5 -53.5t65.5 -157.5q0 -58 -30 -106.5t-79.5 -84t-101 -64.5t-105.5 -62.5t-82 -63.5h345l-28 -122h-518q3 42 14 78t34 66.5t44 52.5t58.5 46.5t61.5 38t69 37.5q9 5 36 19.5t40.5 22.5t36 24.5t34 30.5t20.5 35t9 43
q0 50 -29.5 74t-78.5 24q-56 0 -91.5 -42t-37.5 -102h-135z" />
    <glyph glyph-name="three" unicode="3" horiz-adv-x="556" 
d="M235 417h43q55 0 94.5 21t39.5 72q0 43 -27.5 65t-68.5 22q-59 0 -90 -29t-44 -91h-135q16 114 87 175.5t184 61.5q96 0 163.5 -44.5t67.5 -138.5q0 -62 -36.5 -105.5t-95.5 -55.5v-2q98 -31 98 -143q0 -118 -81.5 -178t-206.5 -60q-261 0 -244 253h134
q-7 -64 22.5 -100.5t91.5 -36.5q59 0 97 34t38 93q0 44 -27 65.5t-72 21.5h-51z" />
    <glyph glyph-name="four" unicode="4" horiz-adv-x="556" 
d="M449 279h93l-25 -117h-93l-35 -162h-135l35 162h-324l26 129l409 409h138zM314 279l57 269h-2l-263 -269h208z" />
    <glyph glyph-name="five" unicode="5" horiz-adv-x="556" 
d="M531 583h-298l-46 -149l2 -2q28 22 57.5 33t79.5 11q81 0 138 -57.5t57 -151.5q0 -128 -82 -204t-210 -76q-238 0 -245 217h136q1 -50 33.5 -75.5t85.5 -25.5q58 0 99 42t41 105q0 119 -119 119q-72 0 -112 -59h-128l122 390h414z" />
    <glyph glyph-name="six" unicode="6" horiz-adv-x="556" 
d="M440 519q-1 40 -25.5 64t-63.5 24t-70 -18.5t-52.5 -53.5t-34 -64.5t-26.5 -72.5l2 -2q51 74 154 74q95 0 151 -58t56 -156q0 -114 -77.5 -191.5t-192.5 -77.5q-128 0 -188 76t-60 208q0 189 93 316t250 127q97 0 157 -48.5t64 -146.5h-137zM150 221q0 -51 29.5 -84.5
t77.5 -33.5q61 0 96.5 40t35.5 102q0 59 -29.5 88.5t-81.5 29.5q-57 0 -92.5 -41.5t-35.5 -100.5z" />
    <glyph glyph-name="seven" unicode="7" horiz-adv-x="556" 
d="M565 578q-116 -96 -211 -259t-135 -319h-151q36 144 133 304t209 264h-344l28 132h497z" />
    <glyph glyph-name="eight" unicode="8" horiz-adv-x="556" 
d="M195 509q0 -46 35.5 -68.5t78.5 -22.5q47 0 80.5 25.5t33.5 68.5q0 47 -31.5 71t-79.5 24q-55 0 -86 -26t-31 -72zM68 509q0 94 75 149.5t189 55.5q97 0 157.5 -54.5t60.5 -133.5q0 -52 -38 -98t-97 -58v-2q45 -10 77 -57t32 -100q0 -102 -84.5 -163t-199.5 -61
q-114 0 -186.5 57t-72.5 148q0 143 174 185v2q-38 18 -62.5 52.5t-24.5 77.5zM122 201q0 -48 36.5 -78t86.5 -30q63 0 100 31.5t37 86.5q0 53 -37.5 82.5t-86.5 29.5q-60 0 -98 -31.5t-38 -90.5z" />
    <glyph glyph-name="nine" unicode="9" horiz-adv-x="556" 
d="M125 181q1 -40 25.5 -64t63.5 -24t70 18.5t52.5 53.5t34 64.5t26.5 72.5l-2 2q-51 -74 -154 -74q-95 0 -151 58t-56 156q0 113 78 191.5t192 78.5q128 0 188 -77t60 -208q0 -124 -40 -223.5t-119 -159t-184 -59.5q-98 0 -157 48t-63 146h136zM415 479q0 51 -30.5 84.5
t-76.5 33.5q-61 0 -96.5 -40t-35.5 -102q0 -59 29.5 -88.5t81.5 -29.5q57 0 92.5 41.5t35.5 100.5z" />
    <glyph glyph-name="colon" unicode=":" horiz-adv-x="278" 
d="M219 354h-158l33 154h158zM20 154h158l-33 -154h-157z" />
    <glyph glyph-name="semicolon" unicode=";" horiz-adv-x="278" 
d="M94 508h158l-33 -154h-158zM19 154h158q-6 -25 -15.5 -72.5t-15.5 -74.5t-21 -63.5t-35 -56.5t-55 -35.5t-82 -17.5l15 71q41 6 60 28.5t28 66.5h-68z" />
    <glyph glyph-name="less" unicode="&#x3c;" horiz-adv-x="600" 
d="M554 399l-367 -146l367 -146v-114l-508 201v118l508 202v-115z" />
    <glyph glyph-name="equal" unicode="=" horiz-adv-x="600" 
d="M553 92h-505v107h505v-107zM553 306h-505v107h505v-107z" />
    <glyph glyph-name="greater" unicode="&#x3e;" horiz-adv-x="600" 
d="M46 107l367 146l-367 146v115l508 -202v-118l-508 -201v114z" />
    <glyph glyph-name="question" unicode="?" horiz-adv-x="574" 
d="M156 154h158l-33 -154h-158zM74 491q6 116 83 178t195 62q93 0 155.5 -47t62.5 -138q0 -65 -37 -109t-102 -81q-52 -27 -80 -57t-34 -79h-132q13 91 48 132t117 84q71 42 71 100q0 38 -24.5 58t-62.5 20q-50 0 -81 -35t-37 -88h-142z" />
    <glyph glyph-name="at" unicode="@" horiz-adv-x="800" 
d="M559 287q-8 -26 -8 -43q0 -23 17 -23q44 0 80 53t36 131q0 115 -76.5 180.5t-192.5 65.5q-127 0 -205 -83.5t-78 -212.5q0 -130 82.5 -211t212.5 -81q133 0 215 82h84q-51 -77 -131 -119t-174 -42q-161 0 -273 107t-112 266q0 157 111.5 265.5t268.5 108.5
q141 0 244.5 -85.5t103.5 -219.5q0 -72 -27.5 -131t-66.5 -91.5t-76.5 -50t-64.5 -17.5q-32 0 -51.5 16t-21.5 41h-2q-35 -58 -108 -58q-64 0 -110.5 50.5t-46.5 120.5q0 100 61.5 177.5t156.5 77.5q36 0 68.5 -17t48.5 -53l16 54h82zM291 319q0 -40 21.5 -64.5t56.5 -24.5
q51 0 87 48t36 103q0 36 -22.5 60.5t-54.5 24.5q-52 0 -88 -46.5t-36 -100.5z" />
    <glyph glyph-name="A" unicode="A" horiz-adv-x="685" 
d="M345 714h161l119 -714h-156l-23 159h-267l-90 -159h-165zM241 276h191l-35 284h-2z" />
    <glyph glyph-name="B" unicode="B" horiz-adv-x="722" 
d="M237 425h178q45 0 75.5 24.5t30.5 69.5q0 40 -21 56.5t-62 16.5h-166zM146 714h300q117 0 174.5 -35.5t57.5 -131.5q0 -63 -36.5 -110.5t-97.5 -55.5v-2q50 -14 78 -53t28 -92q0 -111 -79.5 -172.5t-193.5 -61.5h-380zM173 122h197q56 0 89.5 30t33.5 85q0 27 -10.5 44
t-31 24.5t-38.5 10t-44 2.5h-154z" />
    <glyph glyph-name="C" unicode="C" horiz-adv-x="741" 
d="M556 466q0 64 -34.5 98.5t-93.5 34.5q-76 0 -131 -47.5t-79 -113.5t-24 -139q0 -80 40.5 -132t121.5 -52q63 0 110 41.5t58 100.5h157q-47 -146 -127 -209.5t-200 -63.5q-153 0 -235 81t-82 234q0 116 46.5 214t136.5 158t207 60q129 0 208.5 -69.5t77.5 -195.5h-157z
" />
    <glyph glyph-name="D" unicode="D" horiz-adv-x="741" 
d="M181 132h121q116 0 182.5 79.5t66.5 197.5q0 173 -156 173h-118zM147 714h258q149 0 226 -72t77 -206q0 -194 -107 -315t-306 -121h-298z" />
    <glyph glyph-name="E" unicode="E" horiz-adv-x="667" 
d="M146 714h545l-27 -132h-388l-32 -153h359l-26 -122h-359l-37 -175h394l-28 -132h-550z" />
    <glyph glyph-name="F" unicode="F" horiz-adv-x="593" 
d="M147 714h508l-29 -132h-350l-35 -165h306l-26 -122h-305l-63 -295h-156z" />
    <glyph glyph-name="G" unicode="G" horiz-adv-x="759" 
d="M536 73h-2q-65 -89 -180 -89q-153 0 -235 81t-82 234q0 116 46.5 214t136.5 158t207 60q133 0 218 -64t85 -189h-157q-5 121 -145 121q-76 0 -131 -47.5t-79 -113.5t-24 -139q0 -80 40.5 -132t121.5 -52q84 0 130 40t68 114h-165l25 117h303l-82 -386h-99v73z" />
    <glyph glyph-name="H" unicode="H" horiz-adv-x="741" 
d="M147 714h158l-58 -274h289l58 274h158l-151 -714h-158l65 308h-289l-65 -308h-157z" />
    <glyph glyph-name="I" unicode="I" horiz-adv-x="296" 
d="M147 714h158l-151 -714h-157z" />
    <glyph glyph-name="J" unicode="J" horiz-adv-x="556" 
d="M459 203q-25 -110 -86.5 -164.5t-174.5 -54.5q-93 0 -154.5 42t-61.5 130q0 41 13 110h142q-14 -62 -14 -84q0 -31 22.5 -49t54.5 -18q20 0 35 3.5t26 14.5t17.5 18t13 26.5t8.5 27t8 32.5l99 477h158z" />
    <glyph glyph-name="K" unicode="K" horiz-adv-x="722" 
d="M145 714h157l-62 -299h2l324 299h208l-343 -294l219 -420h-177l-163 321l-109 -95l-47 -226h-157z" />
    <glyph glyph-name="L" unicode="L" horiz-adv-x="574" 
d="M146 714h158l-122 -582h345l-28 -132h-502z" />
    <glyph glyph-name="M" unicode="M" horiz-adv-x="907" 
d="M147 714h217l55 -517h2l275 517h219l-151 -714h-147l130 568h-2l-302 -568h-120l-69 568h-2l-107 -568h-148z" />
    <glyph glyph-name="N" unicode="N" horiz-adv-x="741" 
d="M147 714h162l194 -508h2l102 508h144l-151 -714h-157l-196 501h-2l-102 -501h-146z" />
    <glyph glyph-name="O" unicode="O" horiz-adv-x="778" 
d="M37 299q0 116 46.5 214t136.5 158t207 60q147 0 232 -79t85 -227q0 -120 -44.5 -219t-134.5 -160.5t-211 -61.5q-153 0 -235 81t-82 234zM194 299q0 -80 40.5 -132t121.5 -52q73 0 127.5 47.5t79 113.5t24.5 138q0 82 -38.5 133.5t-120.5 51.5q-76 0 -131 -47.5
t-79 -113.5t-24 -139z" />
    <glyph glyph-name="P" unicode="P" horiz-adv-x="667" 
d="M145 714h286q248 0 248 -208q0 -114 -81 -182t-197 -68h-194l-54 -256h-156zM233 378h160q61 0 95 31.5t34 93.5q0 89 -111 89h-134z" />
    <glyph glyph-name="Q" unicode="Q" horiz-adv-x="778" 
d="M598 -78l-84 95q-67 -33 -160 -33q-153 0 -235 81t-82 234q0 116 46.5 214t136.5 158t207 60q147 0 232 -79t85 -227q0 -105 -35 -195.5t-103 -152.5l76 -85zM446 258l63 -71q78 90 78 227q0 82 -38.5 133.5t-120.5 51.5q-76 0 -131 -47.5t-79 -113.5t-24 -139
q0 -80 40.5 -132t121.5 -52q29 0 62 11l-56 63z" />
    <glyph glyph-name="R" unicode="R" horiz-adv-x="722" 
d="M236 391h145q69 0 115.5 28.5t46.5 84.5q0 53 -30.5 70.5t-85.5 17.5h-149zM146 714h341q213 5 213 -187q0 -73 -46 -127.5t-118 -64.5v-2q74 -24 74 -126q0 -15 -2.5 -57.5t-2.5 -66.5q0 -57 10 -83h-153q-7 30 -7 48q0 24 4 72.5t4 72.5q0 49 -26.5 67.5t-76.5 18.5
h-148l-59 -279h-156z" />
    <glyph glyph-name="S" unicode="S" horiz-adv-x="648" 
d="M154 237q-4 -71 37.5 -101.5t116.5 -30.5q54 0 95 26t41 75q0 14 -5 26t-16.5 21.5t-21.5 16t-30 14t-33 11.5t-38 11t-37 11q-82 24 -131 66.5t-49 125.5q0 57 24.5 101t65.5 70t90 38.5t103 12.5q119 0 193.5 -56.5t74.5 -173.5h-149q2 56 -33 82t-95 26
q-52 0 -88.5 -21.5t-36.5 -67.5q0 -23 16.5 -41t43 -28.5t51.5 -17.5t48 -12q8 -1 11 -2q95 -25 143 -68t48 -132q0 -62 -26 -109t-69 -73.5t-92.5 -39.5t-103.5 -13q-151 0 -224 61.5t-73 191.5h149z" />
    <glyph glyph-name="T" unicode="T" 
d="M278 582h-224l28 132h596l-28 -132h-214l-122 -582h-158z" />
    <glyph glyph-name="U" unicode="U" horiz-adv-x="741" 
d="M663 299q-34 -163 -110 -239t-234 -76q-55 0 -103 11.5t-89 35t-65 65.5t-24 99q0 31 15 106l87 413h157l-87 -413q-15 -69 -15 -90q0 -36 30.5 -66t103.5 -30q47 0 77.5 11t49.5 37.5t28 53t20 74.5l89 423h157z" />
    <glyph glyph-name="V" unicode="V" horiz-adv-x="630" 
d="M331 0h-177l-82 714h157l47 -536h2l271 536h163z" />
    <glyph glyph-name="W" unicode="W" horiz-adv-x="944" 
d="M678 0h-156l-18 510h-2l-222 -510h-158l-49 714h157l10 -523h2l226 523h150l18 -521h2l218 521h157z" />
    <glyph glyph-name="X" unicode="X" horiz-adv-x="667" 
d="M255 376l-167 338h171l101 -236l183 236h186l-297 -345l177 -369h-173l-112 255l-204 -255h-189z" />
    <glyph glyph-name="Y" unicode="Y" horiz-adv-x="648" 
d="M232 277l-171 437h161l107 -304l222 304h185l-348 -444l-55 -270h-158z" />
    <glyph glyph-name="Z" unicode="Z" horiz-adv-x="648" 
d="M-15 130l476 452h-366l29 132h564l-26 -126l-481 -456h403l-26 -132h-600z" />
    <glyph glyph-name="bracketleft" unicode="[" horiz-adv-x="333" 
d="M155 731h258l-24 -112h-125l-145 -688h126l-24 -112h-257z" />
    <glyph glyph-name="backslash" unicode="\" horiz-adv-x="389" 
d="M391 -16h-114l-278 747h113z" />
    <glyph glyph-name="bracketright" unicode="]" horiz-adv-x="333" 
d="M146 -181h-257l24 112h124l145 688h-126l24 112h258z" />
    <glyph glyph-name="asciicircum" unicode="^" horiz-adv-x="600" 
d="M233 700h134l172 -385h-117l-122 275l-122 -275h-117z" />
    <glyph glyph-name="underscore" unicode="_" horiz-adv-x="500" 
d="M0 -74h500v-50h-500v50z" />
    <glyph glyph-name="grave" unicode="`" horiz-adv-x="259" 
d="M264 581h-100l-140 142h152z" />
    <glyph glyph-name="a" unicode="a" horiz-adv-x="574" 
d="M60 360q9 62 46.5 101.5t87 54.5t111.5 15q40 0 74 -5.5t68.5 -19t54 -42t18.5 -69.5q0 -35 -11 -87l-46 -208q-7 -27 -7 -70q0 -12 5 -30h-142v51q-57 -64 -158 -64q-81 0 -124 38.5t-43 96.5q0 74 51 119.5t146 56.5q22 3 52.5 6t45.5 4.5t35 4.5t29 7.5t18.5 11.5
t13 17t3.5 24q0 35 -27.5 49t-62.5 14q-40 0 -69.5 -19.5t-35.5 -56.5h-133zM360 248q-32 -19 -120 -25q-48 -5 -76.5 -22.5t-28.5 -61.5q0 -28 22.5 -43t55.5 -15q59 0 88.5 32t44.5 85z" />
    <glyph glyph-name="b" unicode="b" 
d="M138 714h142l-53 -252h2q34 37 68.5 53t84.5 16q94 0 140 -61.5t46 -158.5q0 -83 -29.5 -155.5t-92 -120.5t-146.5 -48q-129 0 -162 94h-2l-17 -81h-130zM325 424q-52 0 -88.5 -37.5t-51 -86t-14.5 -98.5q0 -49 27.5 -79t75.5 -30q51 0 87 36.5t50.5 83.5t14.5 96
q0 52 -24.5 83.5t-76.5 31.5z" />
    <glyph glyph-name="c" unicode="c" horiz-adv-x="556" 
d="M392 338q0 45 -23 65.5t-72 20.5q-38 0 -67.5 -21.5t-45.5 -55.5t-24 -70t-8 -72q0 -50 23.5 -81t74.5 -31q85 0 115 96h142q-67 -202 -267 -202q-230 0 -230 221q0 137 78.5 230t213.5 93q101 0 165.5 -47.5t66.5 -145.5h-142z" />
    <glyph glyph-name="d" unicode="d" 
d="M307 424q-51 0 -87.5 -36t-52 -83.5t-15.5 -96.5t26.5 -82t74.5 -33q50 0 87 37t53 85.5t16 96.5q0 52 -26 82t-76 30zM364 64l-2 2q-45 -79 -155 -79q-93 0 -145 54.5t-52 148.5q0 65 17.5 125t51 109t89 78t124.5 29q48 0 88.5 -21t56.5 -62h2l57 266h142l-151 -714
h-137z" />
    <glyph glyph-name="e" unicode="e" horiz-adv-x="574" 
d="M399 314q0 110 -96 110q-102 0 -141 -110h237zM147 224q-1 -3 -1 -9v-8v-13q0 -47 29 -74t85 -27q26 0 48 12t33 24.5t25 34.5h142q-35 -91 -97 -134t-171 -43q-107 0 -168.5 58t-61.5 167q0 130 79 224.5t206 94.5q111 0 176 -58t65 -168q0 -35 -8 -81h-381z" />
    <glyph glyph-name="f" unicode="f" horiz-adv-x="352" 
d="M106 422h-84l20 95h85q11 56 22 88.5t32.5 61.5t57 41t89.5 12q43 0 93 -8l-22 -102q-45 3 -46 3q-15 0 -26 -2t-19 -7t-13 -9.5t-9 -15t-6 -17t-5.5 -22t-5.5 -23.5h101l-20 -95h-102l-89 -422h-142z" />
    <glyph glyph-name="g" unicode="g" 
d="M487 27q-27 -118 -92.5 -170t-192.5 -52q-57 0 -104.5 15.5t-81.5 55t-34 98.5h141q-2 -37 26 -55.5t67 -18.5q26 0 47 10t34 23t26 41t19 46.5t18 58.5l-2 2q-55 -73 -142 -73q-92 0 -145.5 57.5t-53.5 153.5q0 122 72 217t189 95q118 0 158 -93h2l16 79h136zM304 424
q-66 0 -105.5 -62t-39.5 -133q0 -49 24 -81.5t72 -32.5q70 0 110.5 61.5t40.5 135.5q0 51 -26 81.5t-76 30.5z" />
    <glyph glyph-name="h" unicode="h" 
d="M137 714h142l-53 -257h2q21 29 64.5 51.5t106.5 22.5q151 0 151 -139q0 -10 -3 -27.5t-7 -37t-5 -24.5l-64 -303h-142l63 303q9 48 9 63q0 22 -21 37.5t-47 15.5q-59 0 -95 -41.5t-50 -102.5l-58 -275h-141z" />
    <glyph glyph-name="i" unicode="i" horiz-adv-x="259" 
d="M257 597h-143l26 117h143zM98 517h143l-110 -517h-142z" />
    <glyph glyph-name="j" unicode="j" horiz-adv-x="259" 
d="M257 597h-143l26 117h143zM-107 -62q34 -2 51 -2q14 0 24.5 12t14.5 23.5t9 32.5t6 24l102 489h142l-113 -535q-19 -87 -59.5 -125t-131.5 -38q-13 0 -36.5 2.5t-32.5 2.5z" />
    <glyph glyph-name="k" unicode="k" horiz-adv-x="556" 
d="M138 714h142l-82 -388l2 -2l204 193h175l-232 -196l133 -321h-156l-85 231l-74 -63l-35 -168h-141z" />
    <glyph glyph-name="l" unicode="l" horiz-adv-x="259" 
d="M140 714h142l-152 -714h-141z" />
    <glyph glyph-name="m" unicode="m" horiz-adv-x="907" 
d="M96 517h136l-16 -73h2q62 87 181 87q108 0 125 -90q26 40 75.5 65t99.5 25q66 0 111.5 -34t45.5 -97q0 -30 -15 -96l-64 -304h-142l68 327q4 17 4 37q0 23 -17.5 39t-44.5 16q-52 0 -87 -43.5t-46 -98.5l-58 -277h-143l68 327q4 17 4 37q0 23 -17.5 39t-44.5 16
q-52 0 -87 -43.5t-46 -98.5l-58 -277h-141z" />
    <glyph glyph-name="n" unicode="n" 
d="M96 517h136l-16 -72h2q69 86 181 86q151 0 151 -139q0 -10 -3 -27.5t-7 -37t-5 -24.5l-64 -303h-142l63 303q9 48 9 63q0 22 -21 37.5t-47 15.5q-59 0 -95 -41.5t-50 -102.5l-58 -275h-141z" />
    <glyph glyph-name="o" unicode="o" horiz-adv-x="593" 
d="M152 209q0 -49 27 -82.5t75 -33.5q50 0 86 37t51 84.5t15 95.5q0 114 -104 114q-71 0 -110.5 -69t-39.5 -146zM10 209q0 136 81.5 229t215.5 93q110 0 175.5 -55.5t65.5 -163.5q0 -140 -81.5 -232.5t-219.5 -92.5q-111 0 -174 56.5t-63 165.5z" />
    <glyph glyph-name="p" unicode="p" 
d="M90 517h137l-14 -64l2 -2q46 80 155 80q93 0 144.5 -54.5t51.5 -149.5q0 -66 -17.5 -125.5t-51 -108t-88.5 -77.5t-124 -29q-48 0 -89 21t-56 61h-3l-54 -250h-141zM323 424q-50 0 -87 -37t-53 -85.5t-16 -96.5q0 -52 26 -82t76 -30q51 0 87.5 36t52 83.5t15.5 96.5
t-26.5 82t-74.5 33z" />
    <glyph glyph-name="q" unicode="q" 
d="M308 424q-52 0 -89 -36.5t-52 -83.5t-15 -96q0 -52 25 -83.5t80 -31.5q48 0 84.5 37t53 86.5t16.5 98.5t-27.5 79t-75.5 30zM443 -181h-142l47 222h-2q-51 -54 -146 -54t-142.5 61t-47.5 158q0 83 29.5 155.5t92 121t146.5 48.5q129 0 162 -95h2l17 81h131z" />
    <glyph glyph-name="r" unicode="r" horiz-adv-x="389" 
d="M96 517h135l-21 -93l2 -2q23 53 71 81t107 28q22 0 44 -3l-29 -138q-45 9 -60 9q-75 0 -112.5 -46t-54.5 -124l-48 -229h-141z" />
    <glyph glyph-name="s" unicode="s" horiz-adv-x="519" 
d="M352 366q-2 70 -80 70q-87 0 -87 -51q0 -17 14.5 -29t50.5 -23l71 -23q64 -20 100 -54t36 -94q0 -61 -37.5 -102t-90.5 -57t-118 -16q-56 0 -102.5 13.5t-81.5 51.5t-35 95v21h131v-17q0 -33 31 -51.5t71 -18.5q37 0 63.5 15t26.5 47q0 25 -12 36t-39 21l-109 35
q-59 20 -85.5 47.5t-26.5 84.5t37.5 96t87 53.5t104.5 14.5q97 0 155.5 -36.5t56.5 -128.5h-132z" />
    <glyph glyph-name="t" unicode="t" horiz-adv-x="370" 
d="M278 517h102l-22 -95h-101l-53 -257q-4 -15 -4 -24q0 -17 8.5 -26t17 -10.5t22.5 -1.5q26 0 51 3l-24 -109q-48 -5 -89 -5q-60 0 -98.5 23.5t-36.5 80.5q0 16 7 49l58 277h-93l22 95h91l32 157h142z" />
    <glyph glyph-name="u" unicode="u" 
d="M478 0h-136l16 72h-2q-69 -85 -181 -85q-151 0 -151 138q0 35 15 89l64 303h142l-63 -303q-9 -29 -9 -63q0 -22 21 -37.5t47 -15.5q59 0 95 41.5t50 102.5l58 275h142z" />
    <glyph glyph-name="v" unicode="v" horiz-adv-x="519" 
d="M260 0h-162l-68 517h146l32 -368h2l183 368h150z" />
    <glyph glyph-name="w" unicode="w" horiz-adv-x="815" 
d="M564 0h-148l-18 363h-2l-160 -363h-149l-57 517h145l20 -364h2l159 364h144l16 -361h2l166 361h150z" />
    <glyph glyph-name="x" unicode="x" horiz-adv-x="519" 
d="M316 269l131 -269h-150l-75 170l-138 -170h-160l239 277l-117 240h152l57 -149l117 149h159z" />
    <glyph glyph-name="y" unicode="y" horiz-adv-x="519" 
d="M214 -72q-36 -65 -78 -87t-123 -22q-13 0 -39 2.5t-36 2.5l24 118q9 0 28.5 -3t28.5 -3q23 0 40 8t24 16.5t16.5 24t13.5 20.5l-92 512h146l45 -370h2l179 370h150z" />
    <glyph glyph-name="z" unicode="z" horiz-adv-x="500" 
d="M-28 105l323 305h-249l23 107h434l-22 -105l-325 -305h285l-23 -107h-468z" />
    <glyph glyph-name="braceleft" unicode="{" horiz-adv-x="333" 
d="M388 619h-54q-56 0 -69 -73l-32 -152q-10 -45 -35 -73t-46 -35.5t-43 -9.5v-3q27 -3 53 -22t26 -57q0 -14 -3 -31l-33 -160q-4 -15 -4 -37q0 -35 42 -35h54l-23 -112h-127q-35 0 -66 28.5t-31 78.5q0 13 3 28l40 194q2 14 2 16q0 33 -25 50t-51 17l18 87q31 0 66 22.5
t44 67.5l39 188q13 62 61.5 98.5t89.5 36.5h127z" />
    <glyph glyph-name="bar" unicode="|" horiz-adv-x="222" 
d="M225 786h107l-213 -999h-107z" />
    <glyph glyph-name="braceright" unicode="}" horiz-adv-x="333" 
d="M-86 -69h54q54 0 68 72l32 152q19 101 124 118v3q-28 3 -53.5 21.5t-25.5 57.5q0 15 3 31l33 160q4 16 4 38q0 35 -42 35h-54l23 112h127q35 0 66.5 -28.5t31.5 -78.5q0 -13 -3 -28l-41 -195q-2 -14 -2 -16q0 -33 25 -50t52 -17l-18 -87q-32 0 -67 -22.5t-44 -67.5
l-39 -187q-13 -62 -61.5 -98.5t-89.5 -36.5h-126z" />
    <glyph glyph-name="asciitilde" unicode="~" horiz-adv-x="600" 
d="M533 251q-27 -41 -55 -63.5t-70 -22.5q-45 0 -102 33q-59 35 -115 35q-51 0 -84 -72l-40 93q42 86 125 86q38 0 111 -32q7 -3 21.5 -9.5t23 -10t20 -8t20.5 -6.5t17 -2q19 0 37 13t25.5 23t25.5 36z" />
    <glyph glyph-name="nbspace" unicode="&#xa0;" horiz-adv-x="278" 
 />
    <glyph glyph-name="exclamdown" unicode="&#xa1;" horiz-adv-x="296" 
d="M236 377h-158l33 154h158zM5 11l105 306h70l-25 -306l-41 -193h-150z" />
    <glyph glyph-name="cent" unicode="&#xa2;" horiz-adv-x="556" 
d="M193 -9q-182 20 -182 217q0 137 78.5 230t213.5 93h4l18 86h49l-19 -90q80 -10 129 -57.5t51 -131.5h-142q0 70 -60 82l-68 -327q73 9 101 96h142q-30 -105 -93 -153.5t-171 -48.5h-2l-22 -103h-49zM284 424q-45 -5 -76 -43.5t-43 -83.5t-12 -92q0 -89 63 -106z" />
    <glyph glyph-name="sterling" unicode="&#xa3;" horiz-adv-x="556" 
d="M27 -16l-20 96q7 5 32.5 22.5t35.5 25t30 24.5t29.5 30t19.5 31.5t14 38.5q8 36 9 59h-97l36 85h64q-9 55 1 111q23 104 113 164t197 60q116 0 163 -64t15 -191h-137q33 138 -66 138q-53 0 -90 -32t-48 -85q-12 -58 -3 -101h141l-35 -85h-114q0 -2 -2 -14l-3 -14
q-12 -56 -44 -95.5t-87 -73.5l1 -2q41 16 87 16q23 0 66 -11.5t68 -11.5q47 0 103 36l19 -107q-89 -50 -177 -50q-30 0 -96 18.5t-99 18.5q-54 0 -126 -37z" />
    <glyph glyph-name="currency" unicode="&#xa4;" horiz-adv-x="556" 
d="M280 491q-58 0 -91 -41.5t-33 -100.5q0 -58 33 -99t90 -41q56 0 87.5 42t31.5 100q0 56 -31.5 98t-86.5 42zM77 207q-48 55 -48 142q0 96 48 144l-57 58l57 57l57 -56q54 46 146 46q85 0 137 -45l58 57l61 -61l-56 -55q45 -50 45 -143q0 -91 -46 -146l55 -56l-55 -55
l-57 58q-52 -50 -143 -50q-93 0 -147 49l-56 -58l-56 56z" />
    <glyph glyph-name="yen" unicode="&#xa5;" horiz-adv-x="556" 
d="M159 138h-155l20 95h155l9 45l-8 30h-141l20 95h94l-88 311h165l59 -311h2l189 311h165l-217 -311h93l-20 -95h-139l-21 -30l-12 -45h157l-20 -95h-155l-29 -138h-152z" />
    <glyph glyph-name="brokenbar" unicode="&#xa6;" horiz-adv-x="222" 
d="M165 411h-107v250h107v-250zM58 161h107v-249h-107v249z" />
    <glyph glyph-name="section" unicode="&#xa7;" horiz-adv-x="593" 
d="M11 17h127q-12 -38 5.5 -64.5t58.5 -26.5q87 0 104 70q9 45 -65 103l-86 73q-76 62 -58 148q12 61 61.5 105t114.5 52q-13 25 -16 39.5t2 44.5q17 79 95.5 124.5t163.5 45.5q94 -2 141.5 -50.5t15.5 -139.5h-127q10 37 -4.5 60t-52.5 23q-34 0 -59.5 -18.5t-31.5 -49.5
q-5 -23 15.5 -50.5t42.5 -42.5l78 -66q83 -74 65 -156q-15 -63 -61.5 -103t-103.5 -54q24 -35 12 -86q-17 -84 -95 -131.5t-170 -47.5q-99 0 -146 51t-26 147zM267 256l59 -59q37 -43 60 -43q28 0 52.5 18t30.5 46q4 6 2 16t-1.5 15t-5 13.5t-7 12t-8.5 11t-10 10.5l-10 10
l-10 10l-52 53q-5 5 -12 13t-10 10.5t-9 6t-13 4.5t-18 1q-24 0 -47.5 -18.5t-29.5 -44.5q-1 -17 -2.5 -24.5t4.5 -18t9.5 -14.5t13 -13.5z" />
    <glyph glyph-name="dieresis" unicode="&#xa8;" horiz-adv-x="259" 
d="M41 714h131l-24 -117h-131zM237 714h131l-24 -117h-131z" />
    <glyph glyph-name="copyright" unicode="&#xa9;" horiz-adv-x="800" 
d="M577 295h81q-28 -73 -87.5 -115.5t-127.5 -42.5q-96 0 -142.5 63.5t-25.5 158.5q21 98 91.5 161t168.5 63q71 0 113.5 -41t34.5 -114h-78q0 35 -24 55t-63 20q-56 0 -94 -38.5t-53 -103.5q-12 -60 12 -102t77 -42q42 0 73.5 21t43.5 57zM193 357q-26 -127 37.5 -210.5
t182.5 -83.5q117 0 217.5 84t126.5 210q27 127 -37 210.5t-182 83.5q-119 0 -218.5 -83.5t-126.5 -210.5zM91 357q24 111 96.5 197.5t169 131.5t198.5 45q157 0 248.5 -104t55.5 -270q-35 -165 -170 -269t-293 -104t-249 104t-56 269z" />
    <glyph glyph-name="ordfeminine" unicode="&#xaa;" horiz-adv-x="344" 
d="M73 609q16 105 165 105q150 0 150 -87q0 -19 -7 -52l-30 -125q-5 -18 -5 -42q0 -11 4 -24h-106v31q-36 -40 -99 -40q-57 0 -86.5 23.5t-29.5 58.5q0 104 129 119q13 2 37 4t36.5 3.5t27 5t21 10t6.5 15.5q0 19 -17 27t-35 8q-56 0 -66 -40h-95zM273 536q-18 -8 -77 -15
q-31 -4 -48 -13.5t-17 -34.5q0 -15 14 -24t33 -9q27 0 46 11.5t26.5 24.5t14.5 33z" />
    <glyph glyph-name="guillemotleft" unicode="&#xab;" horiz-adv-x="463" 
d="M21 218l28 130l181 115l-26 -123l-110 -68l77 -85l-22 -107zM217 218l28 130l181 115l-26 -123l-110 -68l77 -85l-22 -107z" />
    <glyph glyph-name="logicalnot" unicode="&#xac;" horiz-adv-x="600" 
d="M552 99h-107v200h-397v107h504v-307z" />
    <glyph glyph-name="uni00AD" unicode="&#xad;" horiz-adv-x="407" 
d="M38 212l25 122h301l-25 -122h-301z" />
    <glyph glyph-name="registered" unicode="&#xae;" horiz-adv-x="800" 
d="M419 393h72q39 0 61.5 11.5t30.5 46.5q7 30 -15.5 41t-57.5 11h-68zM371 568h158q82 0 117 -29t21 -95q-21 -103 -134 -112l73 -183h-87l-64 179h-50l-38 -179h-85zM194 358q-27 -127 36.5 -211t182.5 -84q118 0 218 84t127 211q25 126 -38.5 209.5t-181.5 83.5
q-119 0 -219 -83.5t-125 -209.5zM92 358q35 165 170 269t293 104t249 -104t56 -269q-25 -111 -97 -197.5t-168.5 -131.5t-198.5 -45t-179.5 45t-113.5 131.5t-11 197.5z" />
    <glyph glyph-name="overscore" unicode="&#xaf;" horiz-adv-x="259" 
d="M49 691h305l-14 -75h-305z" />
    <glyph glyph-name="degree" unicode="&#xb0;" horiz-adv-x="400" 
d="M147 566q0 -36 25 -62t58 -26t58 26t25 62t-25 62t-58 26t-58 -26t-25 -62zM82 566q0 62 43 105t105 43t105 -43t43 -105t-43 -105t-105 -43t-105 43t-43 105z" />
    <glyph glyph-name="plusminus" unicode="&#xb1;" horiz-adv-x="600" 
d="M48 107h505v-107h-505v107zM48 375h199v131h107v-131h199v-107h-199v-131h-107v131h-199v107z" />
    <glyph glyph-name="twosuperior" unicode="&#xb2;" horiz-adv-x="392" 
d="M63 549q7 81 56 123t137 42q72 0 115.5 -32.5t43.5 -99.5q0 -42 -27 -73t-76 -62q-18 -11 -54 -29.5t-61 -33.5t-41 -31h217l-18 -80h-339q3 40 16.5 71t40 54.5t51 38.5t64.5 34q63 30 94 54t31 51q0 29 -19 43.5t-49 14.5q-34 0 -56 -25t-24 -60h-102z" />
    <glyph glyph-name="threesuperior" unicode="&#xb3;" horiz-adv-x="392" 
d="M194 534h28q86 0 86 51q0 24 -18 36.5t-44 12.5q-37 0 -56.5 -17t-28.5 -52h-96q10 74 57 111.5t126 37.5q67 0 111.5 -27.5t44.5 -88.5q0 -37 -23.5 -63t-62.5 -34v-2q66 -17 66 -85q0 -76 -54 -113t-141 -37q-166 0 -166 140v19h96v-15q0 -29 19 -46.5t53 -17.5
q37 0 61.5 19.5t24.5 53.5q0 22 -17.5 34.5t-44.5 12.5h-34z" />
    <glyph glyph-name="acute" unicode="&#xb4;" horiz-adv-x="259" 
d="M234 581h-100l88 142h152z" />
    <glyph glyph-name="mu" unicode="&#xb5;" 
d="M478 0h-136l16 72h-2q-69 -85 -181 -85q-16 0 -44 5l-36 -173h-141l149 698h142l-63 -303q-9 -29 -9 -63q0 -22 21 -37.5t47 -15.5q59 0 95 41.5t50 102.5l58 275h142z" />
    <glyph glyph-name="paragraph" unicode="&#xb6;" horiz-adv-x="600" 
d="M256 353q-102 0 -149 47.5t-31 129.5q39 184 276 184h282l-185 -879h-96l169 799h-111l-169 -799h-96z" />
    <glyph glyph-name="middot" unicode="&#xb7;" horiz-adv-x="278" 
d="M43 287q0 35 25.5 60t59.5 25t59 -25t25 -60q0 -33 -25 -58.5t-58 -25.5q-35 0 -60.5 25t-25.5 59z" />
    <glyph glyph-name="cedilla" unicode="&#xb8;" horiz-adv-x="259" 
d="M33 -147q42 -18 84 -18q40 0 40 34q0 32 -40 32q-23 0 -40 -7l-21 24l59 84h49l-39 -54h2q13 5 34 5q37 0 64.5 -18t27.5 -52q0 -100 -117 -100q-64 0 -124 22z" />
    <glyph glyph-name="onesuperior" unicode="&#xb9;" horiz-adv-x="392" 
d="M250 273h-104l62 274h-110l17 75q53 2 87.5 19.5t59.5 63.5h85z" />
    <glyph glyph-name="ordmasculine" unicode="&#xba;" horiz-adv-x="356" 
d="M139 514q0 -25 17.5 -44.5t45.5 -19.5q45 0 70.5 41t25.5 84q0 29 -16.5 46.5t-48.5 17.5q-44 0 -69 -40.5t-25 -84.5zM37 514q0 87 53.5 143.5t146.5 56.5q163 0 163 -138q0 -89 -53.5 -145t-148.5 -56q-161 0 -161 139z" />
    <glyph glyph-name="guillemotright" unicode="&#xbb;" horiz-adv-x="463" 
d="M411 325l-28 -130l-181 -115l26 123l110 68l-77 85l22 107zM215 325l-28 -130l-181 -115l26 123l110 68l-77 85l22 107z" />
    <glyph glyph-name="onequarter" unicode="&#xbc;" horiz-adv-x="889" 
d="M673 169l34 147l-2 2l-156 -149h124zM654 89h-208l20 87l261 244h106l-58 -251h59l-16 -80h-62l-20 -89h-102zM269 273h-104l62 274h-110l17 75q53 2 87.5 19.5t59.5 63.5h85zM618 722h85l-412 -743h-87z" />
    <glyph glyph-name="onehalf" unicode="&#xbd;" horiz-adv-x="889" 
d="M553 276q7 81 56 123t137 42q72 0 115.5 -32.5t43.5 -99.5q0 -42 -27 -73t-76 -62q-18 -11 -54 -29.5t-61 -33.5t-41 -31h217l-18 -80h-339q3 40 16.5 71t40 54.5t51 38.5t64.5 34q63 30 94 54t31 51q0 29 -19 43.5t-49 14.5q-34 0 -56 -25t-24 -60h-102zM228 547h-110
l17 75q53 2 87.5 19.5t59.5 63.5h85l-97 -432h-104zM616 722h85l-412 -743h-87z" />
    <glyph glyph-name="threequarters" unicode="&#xbe;" horiz-adv-x="889" 
d="M673 169l34 147l-2 2l-156 -149h124zM654 89h-208l20 87l261 244h106l-58 -251h59l-16 -80h-62l-20 -89h-102zM172 534h28q86 0 86 51q0 24 -18 36.5t-44 12.5q-37 0 -56.5 -17t-28.5 -52h-96q10 74 57 111.5t126 37.5q67 0 111.5 -27.5t44.5 -88.5q0 -37 -23.5 -63
t-62.5 -34v-2q66 -17 66 -85q0 -76 -54 -113t-141 -37q-166 0 -166 140v19h96v-15q0 -29 19 -46.5t53 -17.5q37 0 61.5 19.5t24.5 53.5q0 22 -17.5 34.5t-44.5 12.5h-34zM618 722h85l-412 -743h-87z" />
    <glyph glyph-name="questiondown" unicode="&#xbf;" horiz-adv-x="574" 
d="M383 377h-158l33 154h158zM465 44q-6 -115 -83 -177t-195 -62q-94 0 -155.5 47t-61.5 138q0 64 36.5 107.5t101.5 81.5q53 29 81 58t33 78h132q-13 -91 -48 -132t-117 -84q-71 -42 -71 -99q0 -38 24.5 -58t62.5 -20q50 0 81 35t37 87h142z" />
    <glyph glyph-name="Agrave" unicode="&#xc0;" horiz-adv-x="685" 
d="M504 778h-100l-140 142h152zM345 714h161l119 -714h-156l-23 159h-267l-90 -159h-165zM241 276h191l-35 284h-2z" />
    <glyph glyph-name="Aacute" unicode="&#xc1;" horiz-adv-x="685" 
d="M474 778h-100l88 142h152zM345 714h161l119 -714h-156l-23 159h-267l-90 -159h-165zM241 276h191l-35 284h-2z" />
    <glyph glyph-name="Acircumflex" unicode="&#xc2;" horiz-adv-x="685" 
d="M386 920h126l83 -142h-100l-50 81l-87 -81h-109zM345 714h161l119 -714h-156l-23 159h-267l-90 -159h-165zM241 276h191l-35 284h-2z" />
    <glyph glyph-name="Atilde" unicode="&#xc3;" horiz-adv-x="685" 
d="M620 911q-6 -20 -9 -29.5t-12.5 -29t-20 -29t-29 -18t-41.5 -8.5q-29 0 -82 17q-47 17 -70 17q-19 0 -27.5 -10t-14.5 -32h-61q12 55 39.5 88.5t86.5 33.5q19 0 64 -17q42 -18 66 -18q22 0 32.5 10t9.5 25h69zM345 714h161l119 -714h-156l-23 159h-267l-90 -159h-165z
M241 276h191l-35 284h-2z" />
    <glyph glyph-name="Adieresis" unicode="&#xc4;" horiz-adv-x="685" 
d="M281 911h131l-24 -117h-131zM477 911h131l-24 -117h-131zM345 714h161l119 -714h-156l-23 159h-267l-90 -159h-165zM241 276h191l-35 284h-2z" />
    <glyph glyph-name="Aring.low" unicode="&#xc5;" horiz-adv-x="685" 
d="M336 833q10 51 53 86.5t94 35.5t79.5 -35.5t18.5 -86.5q-12 -51 -55 -86.5t-94 -35.5t-79.5 35.5t-16.5 86.5zM395 833q-7 -30 6 -50t42 -20t50.5 20t28.5 50q6 30 -7.5 50t-42.5 20t-50 -20t-27 -50zM247 276h185l-34 262h-2zM355 714h161l116 -714h-163l-21 159h-267
l-89 -159h-158z" />
    <glyph glyph-name="AE" unicode="&#xc6;" horiz-adv-x="981" 
d="M410 714h611l-28 -132h-329l-33 -153h308l-26 -122h-308l-38 -175h339l-28 -132h-497l33 154h-220l-109 -154h-175zM506 582h-20l-219 -311h172z" />
    <glyph glyph-name="Ccedilla" unicode="&#xc7;" horiz-adv-x="741" 
d="M556 466q0 64 -34.5 98.5t-93.5 34.5q-76 0 -131 -47.5t-79 -113.5t-24 -139q0 -80 40.5 -132t121.5 -52q63 0 110 41.5t58 100.5h157q-47 -146 -127 -209.5t-200 -63.5h-2l-26 -36h2q13 5 34 5q37 0 64.5 -18t27.5 -52q0 -100 -117 -100q-64 0 -124 22l21 48
q42 -18 84 -18q40 0 40 34q0 32 -40 32q-23 0 -40 -7l-21 24l49 70q-130 12 -199.5 91.5t-69.5 219.5q0 116 46.5 214t136.5 158t207 60q129 0 208.5 -69.5t77.5 -195.5h-157z" />
    <glyph glyph-name="Egrave" unicode="&#xc8;" horiz-adv-x="667" 
d="M495 778h-100l-140 142h152zM146 714h545l-27 -132h-388l-32 -153h359l-26 -122h-359l-37 -175h394l-28 -132h-550z" />
    <glyph glyph-name="Eacute" unicode="&#xc9;" horiz-adv-x="667" 
d="M465 778h-100l88 142h152zM146 714h545l-27 -132h-388l-32 -153h359l-26 -122h-359l-37 -175h394l-28 -132h-550z" />
    <glyph glyph-name="Ecircumflex" unicode="&#xca;" horiz-adv-x="667" 
d="M377 920h126l83 -142h-100l-50 81l-87 -81h-109zM146 714h545l-27 -132h-388l-32 -153h359l-26 -122h-359l-37 -175h394l-28 -132h-550z" />
    <glyph glyph-name="Edieresis" unicode="&#xcb;" horiz-adv-x="667" 
d="M272 911h131l-24 -117h-131zM468 911h131l-24 -117h-131zM146 714h545l-27 -132h-388l-32 -153h359l-26 -122h-359l-37 -175h394l-28 -132h-550z" />
    <glyph glyph-name="Igrave" unicode="&#xcc;" horiz-adv-x="296" 
d="M310 778h-100l-140 142h152zM147 714h158l-151 -714h-157z" />
    <glyph glyph-name="Iacute" unicode="&#xcd;" horiz-adv-x="296" 
d="M280 778h-100l88 142h152zM147 714h158l-151 -714h-157z" />
    <glyph glyph-name="Icircumflex" unicode="&#xce;" horiz-adv-x="296" 
d="M189 920h126l83 -142h-100l-50 81l-87 -81h-109zM147 714h158l-151 -714h-157z" />
    <glyph glyph-name="Idieresis" unicode="&#xcf;" horiz-adv-x="296" 
d="M87 911h131l-24 -117h-131zM283 911h131l-24 -117h-131zM147 714h158l-151 -714h-157z" />
    <glyph glyph-name="Eth" unicode="&#xd0;" horiz-adv-x="741" 
d="M244 427h168l-25 -117h-169l-37 -178h121q116 0 182.5 79.5t66.5 197.5q0 173 -156 173h-118zM61 310h-81l24 117h83l60 287h258q149 0 226 -72t77 -206q0 -194 -107 -315t-306 -121h-298z" />
    <glyph glyph-name="Ntilde" unicode="&#xd1;" horiz-adv-x="741" 
d="M648 911q-6 -20 -9 -29.5t-12.5 -29t-20 -29t-29 -18t-41.5 -8.5q-29 0 -82 17q-47 17 -70 17q-19 0 -27.5 -10t-14.5 -32h-61q12 55 39.5 88.5t86.5 33.5q19 0 64 -17q42 -18 66 -18q22 0 32.5 10t9.5 25h69zM147 714h162l194 -508h2l102 508h144l-151 -714h-157
l-196 501h-2l-102 -501h-146z" />
    <glyph glyph-name="Ograve" unicode="&#xd2;" horiz-adv-x="778" 
d="M524 778h-100l-140 142h152zM37 299q0 116 46.5 214t136.5 158t207 60q147 0 232 -79t85 -227q0 -120 -44.5 -219t-134.5 -160.5t-211 -61.5q-153 0 -235 81t-82 234zM194 299q0 -80 40.5 -132t121.5 -52q73 0 127.5 47.5t79 113.5t24.5 138q0 82 -38.5 133.5
t-120.5 51.5q-76 0 -131 -47.5t-79 -113.5t-24 -139z" />
    <glyph glyph-name="Oacute" unicode="&#xd3;" horiz-adv-x="778" 
d="M494 778h-100l88 142h152zM37 299q0 116 46.5 214t136.5 158t207 60q147 0 232 -79t85 -227q0 -120 -44.5 -219t-134.5 -160.5t-211 -61.5q-153 0 -235 81t-82 234zM194 299q0 -80 40.5 -132t121.5 -52q73 0 127.5 47.5t79 113.5t24.5 138q0 82 -38.5 133.5t-120.5 51.5
q-76 0 -131 -47.5t-79 -113.5t-24 -139z" />
    <glyph glyph-name="Ocircumflex" unicode="&#xd4;" horiz-adv-x="778" 
d="M406 920h126l83 -142h-100l-50 81l-87 -81h-109zM37 299q0 116 46.5 214t136.5 158t207 60q147 0 232 -79t85 -227q0 -120 -44.5 -219t-134.5 -160.5t-211 -61.5q-153 0 -235 81t-82 234zM194 299q0 -80 40.5 -132t121.5 -52q73 0 127.5 47.5t79 113.5t24.5 138
q0 82 -38.5 133.5t-120.5 51.5q-76 0 -131 -47.5t-79 -113.5t-24 -139z" />
    <glyph glyph-name="Otilde" unicode="&#xd5;" horiz-adv-x="778" 
d="M640 911q-6 -20 -9 -29.5t-12.5 -29t-20 -29t-29 -18t-41.5 -8.5q-29 0 -82 17q-47 17 -70 17q-19 0 -27.5 -10t-14.5 -32h-61q12 55 39.5 88.5t86.5 33.5q19 0 64 -17q42 -18 66 -18q22 0 32.5 10t9.5 25h69zM37 299q0 116 46.5 214t136.5 158t207 60q147 0 232 -79
t85 -227q0 -120 -44.5 -219t-134.5 -160.5t-211 -61.5q-153 0 -235 81t-82 234zM194 299q0 -80 40.5 -132t121.5 -52q73 0 127.5 47.5t79 113.5t24.5 138q0 82 -38.5 133.5t-120.5 51.5q-76 0 -131 -47.5t-79 -113.5t-24 -139z" />
    <glyph glyph-name="Odieresis" unicode="&#xd6;" horiz-adv-x="778" 
d="M301 911h131l-24 -117h-131zM497 911h131l-24 -117h-131zM37 299q0 116 46.5 214t136.5 158t207 60q147 0 232 -79t85 -227q0 -120 -44.5 -219t-134.5 -160.5t-211 -61.5q-153 0 -235 81t-82 234zM194 299q0 -80 40.5 -132t121.5 -52q73 0 127.5 47.5t79 113.5t24.5 138
q0 82 -38.5 133.5t-120.5 51.5q-76 0 -131 -47.5t-79 -113.5t-24 -139z" />
    <glyph glyph-name="multiply" unicode="&#xd7;" horiz-adv-x="600" 
d="M64 93l161 160l-159 160l76 76l159 -160l160 160l76 -76l-161 -160l161 -160l-76 -76l-160 161l-161 -161z" />
    <glyph glyph-name="Oslash" unicode="&#xd8;" horiz-adv-x="778" 
d="M699 602q45 -73 45 -177q0 -120 -44.5 -219t-134.5 -160.5t-211 -61.5q-151 0 -232 82l-101 -93l-39 43l102 96q-47 74 -47 187q0 116 46.5 214t136.5 158t207 60q152 0 234 -82l99 92l41 -45zM233 170q42 -55 123 -55q73 0 127.5 47.5t79 113.5t24.5 138q0 44 -10 75z
M550 545q-42 54 -122 54q-76 0 -131 -47.5t-79 -113.5t-24 -139q0 -37 11 -75z" />
    <glyph glyph-name="Ugrave" unicode="&#xd9;" horiz-adv-x="741" 
d="M532 778h-100l-140 142h152zM663 299q-34 -163 -110 -239t-234 -76q-55 0 -103 11.5t-89 35t-65 65.5t-24 99q0 31 15 106l87 413h157l-87 -413q-15 -69 -15 -90q0 -36 30.5 -66t103.5 -30q47 0 77.5 11t49.5 37.5t28 53t20 74.5l89 423h157z" />
    <glyph glyph-name="Uacute" unicode="&#xda;" horiz-adv-x="741" 
d="M475 778h-100l88 142h152zM663 299q-34 -163 -110 -239t-234 -76q-55 0 -103 11.5t-89 35t-65 65.5t-24 99q0 31 15 106l87 413h157l-87 -413q-15 -69 -15 -90q0 -36 30.5 -66t103.5 -30q47 0 77.5 11t49.5 37.5t28 53t20 74.5l89 423h157z" />
    <glyph glyph-name="Ucircumflex" unicode="&#xdb;" horiz-adv-x="741" 
d="M414 920h126l83 -142h-100l-50 81l-87 -81h-109zM663 299q-34 -163 -110 -239t-234 -76q-55 0 -103 11.5t-89 35t-65 65.5t-24 99q0 31 15 106l87 413h157l-87 -413q-15 -69 -15 -90q0 -36 30.5 -66t103.5 -30q47 0 77.5 11t49.5 37.5t28 53t20 74.5l89 423h157z" />
    <glyph glyph-name="Udieresis" unicode="&#xdc;" horiz-adv-x="741" 
d="M309 911h131l-24 -117h-131zM505 911h131l-24 -117h-131zM663 299q-34 -163 -110 -239t-234 -76q-55 0 -103 11.5t-89 35t-65 65.5t-24 99q0 31 15 106l87 413h157l-87 -413q-15 -69 -15 -90q0 -36 30.5 -66t103.5 -30q47 0 77.5 11t49.5 37.5t28 53t20 74.5l89 423h157z
" />
    <glyph glyph-name="Yacute" unicode="&#xdd;" horiz-adv-x="648" 
d="M429 778h-100l88 142h152zM232 277l-171 437h161l107 -304l222 304h185l-348 -444l-55 -270h-158z" />
    <glyph glyph-name="Thorn" unicode="&#xde;" horiz-adv-x="667" 
d="M145 714h157l-20 -97h130q248 0 248 -208q0 -113 -81 -181t-197 -68h-195l-34 -160h-156zM213 282h161q61 0 95 31t34 93q0 89 -111 89h-135z" />
    <glyph glyph-name="germandbls" unicode="&#xdf;" horiz-adv-x="593" 
d="M-11 0l219 521q87 210 296 210q86 0 141.5 -42.5t37.5 -128.5q-14 -64 -61.5 -107t-113.5 -58v-2q104 -26 79 -146q-26 -117 -120.5 -188.5t-211.5 -71.5q-42 0 -71 8l47 110q30 -2 43 -2q61 0 109 40.5t62 101.5q11 53 -13 77.5t-77 23.5h-20l38 90h22q119 0 142 109
q7 31 -11 50t-49 19q-29 0 -50.5 -8t-38.5 -29t-25.5 -35.5t-24.5 -48.5l-208 -493h-141z" />
    <glyph glyph-name="agrave" unicode="&#xe0;" horiz-adv-x="574" 
d="M422 581h-100l-140 142h152zM60 360q9 62 46.5 101.5t87 54.5t111.5 15q40 0 74 -5.5t68.5 -19t54 -42t18.5 -69.5q0 -35 -11 -87l-46 -208q-7 -27 -7 -70q0 -12 5 -30h-142v51q-57 -64 -158 -64q-81 0 -124 38.5t-43 96.5q0 74 51 119.5t146 56.5q22 3 52.5 6t45.5 4.5
t35 4.5t29 7.5t18.5 11.5t13 17t3.5 24q0 35 -27.5 49t-62.5 14q-40 0 -69.5 -19.5t-35.5 -56.5h-133zM360 248q-32 -19 -120 -25q-48 -5 -76.5 -22.5t-28.5 -61.5q0 -28 22.5 -43t55.5 -15q59 0 88.5 32t44.5 85z" />
    <glyph glyph-name="aacute" unicode="&#xe1;" horiz-adv-x="574" 
d="M392 581h-100l88 142h152zM60 360q9 62 46.5 101.5t87 54.5t111.5 15q40 0 74 -5.5t68.5 -19t54 -42t18.5 -69.5q0 -35 -11 -87l-46 -208q-7 -27 -7 -70q0 -12 5 -30h-142v51q-57 -64 -158 -64q-81 0 -124 38.5t-43 96.5q0 74 51 119.5t146 56.5q22 3 52.5 6t45.5 4.5
t35 4.5t29 7.5t18.5 11.5t13 17t3.5 24q0 35 -27.5 49t-62.5 14q-40 0 -69.5 -19.5t-35.5 -56.5h-133zM360 248q-32 -19 -120 -25q-48 -5 -76.5 -22.5t-28.5 -61.5q0 -28 22.5 -43t55.5 -15q59 0 88.5 32t44.5 85z" />
    <glyph glyph-name="acircumflex" unicode="&#xe2;" horiz-adv-x="574" 
d="M304 723h126l83 -142h-100l-50 81l-87 -81h-109zM60 360q9 62 46.5 101.5t87 54.5t111.5 15q40 0 74 -5.5t68.5 -19t54 -42t18.5 -69.5q0 -35 -11 -87l-46 -208q-7 -27 -7 -70q0 -12 5 -30h-142v51q-57 -64 -158 -64q-81 0 -124 38.5t-43 96.5q0 74 51 119.5t146 56.5
q22 3 52.5 6t45.5 4.5t35 4.5t29 7.5t18.5 11.5t13 17t3.5 24q0 35 -27.5 49t-62.5 14q-40 0 -69.5 -19.5t-35.5 -56.5h-133zM360 248q-32 -19 -120 -25q-48 -5 -76.5 -22.5t-28.5 -61.5q0 -28 22.5 -43t55.5 -15q59 0 88.5 32t44.5 85z" />
    <glyph glyph-name="atilde" unicode="&#xe3;" horiz-adv-x="574" 
d="M538 714q-6 -20 -9 -29.5t-12.5 -29t-20 -29t-29 -18t-41.5 -8.5q-29 0 -82 17q-47 17 -70 17q-19 0 -27.5 -10t-14.5 -32h-61q12 55 39.5 88.5t86.5 33.5q19 0 64 -17q42 -18 66 -18q22 0 32.5 10t9.5 25h69zM60 360q9 62 46.5 101.5t87 54.5t111.5 15q40 0 74 -5.5
t68.5 -19t54 -42t18.5 -69.5q0 -35 -11 -87l-46 -208q-7 -27 -7 -70q0 -12 5 -30h-142v51q-57 -64 -158 -64q-81 0 -124 38.5t-43 96.5q0 74 51 119.5t146 56.5q22 3 52.5 6t45.5 4.5t35 4.5t29 7.5t18.5 11.5t13 17t3.5 24q0 35 -27.5 49t-62.5 14q-40 0 -69.5 -19.5
t-35.5 -56.5h-133zM360 248q-32 -19 -120 -25q-48 -5 -76.5 -22.5t-28.5 -61.5q0 -28 22.5 -43t55.5 -15q59 0 88.5 32t44.5 85z" />
    <glyph glyph-name="adieresis" unicode="&#xe4;" horiz-adv-x="574" 
d="M199 714h131l-24 -117h-131zM395 714h131l-24 -117h-131zM60 360q9 62 46.5 101.5t87 54.5t111.5 15q40 0 74 -5.5t68.5 -19t54 -42t18.5 -69.5q0 -35 -11 -87l-46 -208q-7 -27 -7 -70q0 -12 5 -30h-142v51q-57 -64 -158 -64q-81 0 -124 38.5t-43 96.5q0 74 51 119.5
t146 56.5q22 3 52.5 6t45.5 4.5t35 4.5t29 7.5t18.5 11.5t13 17t3.5 24q0 35 -27.5 49t-62.5 14q-40 0 -69.5 -19.5t-35.5 -56.5h-133zM360 248q-32 -19 -120 -25q-48 -5 -76.5 -22.5t-28.5 -61.5q0 -28 22.5 -43t55.5 -15q59 0 88.5 32t44.5 85z" />
    <glyph glyph-name="aring" unicode="&#xe5;" horiz-adv-x="574" 
d="M230 656q0 51 35.5 86.5t86.5 35.5t87 -35.5t36 -86.5t-36 -86.5t-87 -35.5t-86.5 35.5t-35.5 86.5zM289 656q0 -30 17 -50t46 -20t46.5 20t17.5 50t-17.5 50t-46.5 20t-46 -20t-17 -50zM60 360q9 62 46.5 101.5t87 54.5t111.5 15q40 0 74 -5.5t68.5 -19t54 -42
t18.5 -69.5q0 -35 -11 -87l-46 -208q-7 -27 -7 -70q0 -12 5 -30h-142v51q-57 -64 -158 -64q-81 0 -124 38.5t-43 96.5q0 74 51 119.5t146 56.5q22 3 52.5 6t45.5 4.5t35 4.5t29 7.5t18.5 11.5t13 17t3.5 24q0 35 -27.5 49t-62.5 14q-40 0 -69.5 -19.5t-35.5 -56.5h-133z
M360 248q-32 -19 -120 -25q-48 -5 -76.5 -22.5t-28.5 -61.5q0 -28 22.5 -43t55.5 -15q59 0 88.5 32t44.5 85z" />
    <glyph glyph-name="ae" unicode="&#xe6;" horiz-adv-x="907" 
d="M378 249q-34 -19 -143 -30q-40 -4 -64.5 -24t-24.5 -52q0 -62 83 -62q118 0 141 124zM72 360q35 171 254 171q52 0 99.5 -16t67.5 -52q55 68 171 68q209 0 209 -234q0 -28 -5 -73h-372q-5 -21 -5 -46q0 -40 30 -68.5t80 -28.5q83 0 109 79h142q-67 -173 -261 -173
q-135 0 -188 95q-60 -95 -212 -95q-187 0 -187 138q0 157 212 174q12 1 32.5 2.5t32 2t28 2.5t26.5 4t22 5.5t19 8t13.5 11t9.5 15.5t3 20q0 66 -80 66q-103 0 -113 -76h-137zM746 314q0 58 -21.5 90t-77.5 32q-53 0 -90.5 -34.5t-46.5 -87.5h236z" />
    <glyph glyph-name="ccedilla" unicode="&#xe7;" horiz-adv-x="556" 
d="M392 338q0 45 -23 65.5t-72 20.5q-38 0 -67.5 -21.5t-45.5 -55.5t-24 -70t-8 -72q0 -50 23.5 -81t74.5 -31q85 0 115 96h142q-63 -190 -245 -200l-28 -41h2q13 5 34 5q37 0 64.5 -18t27.5 -52q0 -100 -117 -100q-64 0 -124 22l21 48q42 -18 84 -18q40 0 40 34
q0 32 -40 32q-23 0 -40 -7l-21 24l49 71q-204 11 -204 219q0 137 78.5 230t213.5 93q101 0 165.5 -47.5t66.5 -145.5h-142z" />
    <glyph glyph-name="egrave" unicode="&#xe8;" horiz-adv-x="574" 
d="M422 581h-100l-140 142h152zM399 314q0 110 -96 110q-102 0 -141 -110h237zM147 224q-1 -3 -1 -9v-8v-13q0 -47 29 -74t85 -27q26 0 48 12t33 24.5t25 34.5h142q-35 -91 -97 -134t-171 -43q-107 0 -168.5 58t-61.5 167q0 130 79 224.5t206 94.5q111 0 176 -58t65 -168
q0 -35 -8 -81h-381z" />
    <glyph glyph-name="eacute" unicode="&#xe9;" horiz-adv-x="574" 
d="M392 581h-100l88 142h152zM399 314q0 110 -96 110q-102 0 -141 -110h237zM147 224q-1 -3 -1 -9v-8v-13q0 -47 29 -74t85 -27q26 0 48 12t33 24.5t25 34.5h142q-35 -91 -97 -134t-171 -43q-107 0 -168.5 58t-61.5 167q0 130 79 224.5t206 94.5q111 0 176 -58t65 -168
q0 -35 -8 -81h-381z" />
    <glyph glyph-name="ecircumflex" unicode="&#xea;" horiz-adv-x="574" 
d="M304 723h126l83 -142h-100l-50 81l-87 -81h-109zM399 314q0 110 -96 110q-102 0 -141 -110h237zM147 224q-1 -3 -1 -9v-8v-13q0 -47 29 -74t85 -27q26 0 48 12t33 24.5t25 34.5h142q-35 -91 -97 -134t-171 -43q-107 0 -168.5 58t-61.5 167q0 130 79 224.5t206 94.5
q111 0 176 -58t65 -168q0 -35 -8 -81h-381z" />
    <glyph glyph-name="edieresis" unicode="&#xeb;" horiz-adv-x="574" 
d="M199 714h131l-24 -117h-131zM395 714h131l-24 -117h-131zM399 314q0 110 -96 110q-102 0 -141 -110h237zM147 224q-1 -3 -1 -9v-8v-13q0 -47 29 -74t85 -27q26 0 48 12t33 24.5t25 34.5h142q-35 -91 -97 -134t-171 -43q-107 0 -168.5 58t-61.5 167q0 130 79 224.5
t206 94.5q111 0 176 -58t65 -168q0 -35 -8 -81h-381z" />
    <glyph glyph-name="igrave" unicode="&#xec;" horiz-adv-x="259" 
d="M264 581h-100l-140 142h152zM131 0h-142l109 517h143z" />
    <glyph glyph-name="iacute" unicode="&#xed;" horiz-adv-x="259" 
d="M234 581h-100l88 142h152zM131 0h-142l109 517h143z" />
    <glyph glyph-name="icircumflex" unicode="&#xee;" horiz-adv-x="259" 
d="M146 723h126l83 -142h-100l-50 81l-87 -81h-109zM131 0h-142l109 517h143z" />
    <glyph glyph-name="idieresis" unicode="&#xef;" horiz-adv-x="259" 
d="M41 714h131l-24 -117h-131zM237 714h131l-24 -117h-131zM131 0h-142l109 517h143z" />
    <glyph glyph-name="eth" unicode="&#xf0;" horiz-adv-x="593" 
d="M303 668q-49 39 -89 56l93 56q52 -30 91 -66l121 59l63 -61l-124 -61q90 -117 90 -291q0 -39 -6.5 -82t-26.5 -97t-51.5 -95.5t-87.5 -70t-129 -28.5q-111 0 -174 56.5t-63 165.5q0 118 82.5 207.5t214.5 89.5q74 0 111 -45l2 2q-9 75 -57 141l-121 -59l-64 62zM254 93
q48 0 84.5 37t52 85t15.5 95q0 45 -25.5 73t-78.5 28q-48 0 -84 -36t-51 -80.5t-15 -85.5q0 -49 27 -82.5t75 -33.5z" />
    <glyph glyph-name="ntilde" unicode="&#xf1;" 
d="M534 714q-6 -20 -9 -29.5t-12.5 -29t-20 -29t-29 -18t-41.5 -8.5q-29 0 -82 17q-47 17 -70 17q-19 0 -27.5 -10t-14.5 -32h-61q12 55 39.5 88.5t86.5 33.5q19 0 64 -17q42 -18 66 -18q22 0 32.5 10t9.5 25h69zM96 517h136l-16 -72h2q69 86 181 86q151 0 151 -139
q0 -10 -3 -27.5t-7 -37t-5 -24.5l-64 -303h-142l63 303q9 48 9 63q0 22 -21 37.5t-47 15.5q-59 0 -95 -41.5t-50 -102.5l-58 -275h-141z" />
    <glyph glyph-name="ograve" unicode="&#xf2;" horiz-adv-x="593" 
d="M431 581h-100l-140 142h152zM152 209q0 -49 27 -82.5t75 -33.5q50 0 86 37t51 84.5t15 95.5q0 114 -104 114q-71 0 -110.5 -69t-39.5 -146zM10 209q0 136 81.5 229t215.5 93q110 0 175.5 -55.5t65.5 -163.5q0 -140 -81.5 -232.5t-219.5 -92.5q-111 0 -174 56.5t-63 165.5
z" />
    <glyph glyph-name="oacute" unicode="&#xf3;" horiz-adv-x="593" 
d="M401 581h-100l88 142h152zM152 209q0 -49 27 -82.5t75 -33.5q50 0 86 37t51 84.5t15 95.5q0 114 -104 114q-71 0 -110.5 -69t-39.5 -146zM10 209q0 136 81.5 229t215.5 93q110 0 175.5 -55.5t65.5 -163.5q0 -140 -81.5 -232.5t-219.5 -92.5q-111 0 -174 56.5t-63 165.5z
" />
    <glyph glyph-name="ocircumflex" unicode="&#xf4;" horiz-adv-x="593" 
d="M313 723h126l83 -142h-100l-50 81l-87 -81h-109zM152 209q0 -49 27 -82.5t75 -33.5q50 0 86 37t51 84.5t15 95.5q0 114 -104 114q-71 0 -110.5 -69t-39.5 -146zM10 209q0 136 81.5 229t215.5 93q110 0 175.5 -55.5t65.5 -163.5q0 -140 -81.5 -232.5t-219.5 -92.5
q-111 0 -174 56.5t-63 165.5z" />
    <glyph glyph-name="otilde" unicode="&#xf5;" horiz-adv-x="593" 
d="M547 714q-6 -20 -9 -29.5t-12.5 -29t-20 -29t-29 -18t-41.5 -8.5q-29 0 -82 17q-47 17 -70 17q-19 0 -27.5 -10t-14.5 -32h-61q12 55 39.5 88.5t86.5 33.5q19 0 64 -17q42 -18 66 -18q22 0 32.5 10t9.5 25h69zM152 209q0 -49 27 -82.5t75 -33.5q50 0 86 37t51 84.5
t15 95.5q0 114 -104 114q-71 0 -110.5 -69t-39.5 -146zM10 209q0 136 81.5 229t215.5 93q110 0 175.5 -55.5t65.5 -163.5q0 -140 -81.5 -232.5t-219.5 -92.5q-111 0 -174 56.5t-63 165.5z" />
    <glyph glyph-name="odieresis" unicode="&#xf6;" horiz-adv-x="593" 
d="M208 714h131l-24 -117h-131zM404 714h131l-24 -117h-131zM152 209q0 -49 27 -82.5t75 -33.5q50 0 86 37t51 84.5t15 95.5q0 114 -104 114q-71 0 -110.5 -69t-39.5 -146zM10 209q0 136 81.5 229t215.5 93q110 0 175.5 -55.5t65.5 -163.5q0 -140 -81.5 -232.5t-219.5 -92.5
q-111 0 -174 56.5t-63 165.5z" />
    <glyph glyph-name="divide" unicode="&#xf7;" horiz-adv-x="600" 
d="M216 45q0 35 25.5 59.5t59.5 24.5t59 -24.5t25 -59.5q0 -31 -25.5 -57.5t-57.5 -26.5q-35 0 -60.5 25.5t-25.5 58.5zM216 460q0 35 25.5 60t59.5 25t59 -25t25 -60q0 -33 -25 -58.5t-58 -25.5q-35 0 -60.5 25t-25.5 59zM48 306h505v-107h-505v107z" />
    <glyph glyph-name="oslash" unicode="&#xf8;" horiz-adv-x="593" 
d="M579 506l-68 -62q37 -54 37 -132q0 -140 -81.5 -232.5t-219.5 -92.5q-115 0 -172 56l-73 -66l-28 32l72 67q-36 52 -36 133q0 136 81.5 229t215.5 93q109 0 174 -54l68 62zM174 134q28 -41 80 -41q50 0 86 37t51 84.5t15 95.5q0 19 -3 34zM385 388q-23 36 -83 36
q-71 0 -110.5 -69t-39.5 -146q0 -21 4 -32z" />
    <glyph glyph-name="ugrave" unicode="&#xf9;" 
d="M440 581h-100l-140 142h152zM478 0h-136l16 72h-2q-69 -85 -181 -85q-151 0 -151 138q0 35 15 89l64 303h142l-63 -303q-9 -29 -9 -63q0 -22 21 -37.5t47 -15.5q59 0 95 41.5t50 102.5l58 275h142z" />
    <glyph glyph-name="uacute" unicode="&#xfa;" 
d="M386 581h-100l88 142h152zM478 0h-136l16 72h-2q-69 -85 -181 -85q-151 0 -151 138q0 35 15 89l64 303h142l-63 -303q-9 -29 -9 -63q0 -22 21 -37.5t47 -15.5q59 0 95 41.5t50 102.5l58 275h142z" />
    <glyph glyph-name="ucircumflex" unicode="&#xfb;" 
d="M322 723h126l83 -142h-100l-50 81l-87 -81h-109zM478 0h-136l16 72h-2q-69 -85 -181 -85q-151 0 -151 138q0 35 15 89l64 303h142l-63 -303q-9 -29 -9 -63q0 -22 21 -37.5t47 -15.5q59 0 95 41.5t50 102.5l58 275h142z" />
    <glyph glyph-name="udieresis" unicode="&#xfc;" 
d="M230 714h131l-24 -117h-131zM426 714h131l-24 -117h-131zM478 0h-136l16 72h-2q-69 -85 -181 -85q-151 0 -151 138q0 35 15 89l64 303h142l-63 -303q-9 -29 -9 -63q0 -22 21 -37.5t47 -15.5q59 0 95 41.5t50 102.5l58 275h142z" />
    <glyph glyph-name="yacute" unicode="&#xfd;" horiz-adv-x="519" 
d="M348 581h-100l88 142h152zM214 -72q-36 -65 -78 -87t-123 -22q-13 0 -39 2.5t-36 2.5l24 118q9 0 28.5 -3t28.5 -3q23 0 40 8t24 16.5t16.5 24t13.5 20.5l-92 512h146l45 -370h2l179 370h150z" />
    <glyph glyph-name="thorn" unicode="&#xfe;" 
d="M323 424q-50 0 -87 -37t-53 -85.5t-16 -96.5q0 -52 26 -82t76 -30q51 0 87.5 36t52 83.5t15.5 96.5t-26.5 82t-74.5 33zM130 714h142l-57 -262h2q41 79 153 79q93 0 144.5 -54.5t51.5 -149.5q0 -66 -17.5 -125.5t-51 -108t-88.5 -77.5t-124 -29q-49 0 -88.5 20.5
t-57.5 61.5h-2l-54 -250h-141z" />
    <glyph glyph-name="ydieresis" unicode="&#xff;" horiz-adv-x="519" 
d="M136 714h131l-24 -117h-131zM332 714h131l-24 -117h-131zM214 -72q-36 -65 -78 -87t-123 -22q-13 0 -39 2.5t-36 2.5l24 118q9 0 28.5 -3t28.5 -3q23 0 40 8t24 16.5t16.5 24t13.5 20.5l-92 512h146l45 -370h2l179 370h150z" />
    <glyph glyph-name="uni0100" unicode="&#x100;" horiz-adv-x="685" 
d="M-67 0l422 714h161l116 -714h-163l-21 159h-267l-89 -159h-159zM247 276h185l-34 262h-2zM278 809l16 75h353l-16 -75h-353z" />
    <glyph glyph-name="uni0101" unicode="&#x101;" horiz-adv-x="574" 
d="M206 358h-142q13 47 42 82t68 54t81 28t88 9q34 0 63 -3t58 -13t47.5 -25.5t27 -42.5t0.5 -63l-57 -269q-20 -83 -6 -115h-144q-3 24 0 50q-76 -64 -187 -64q-79 0 -119 39.5t-25 115.5q8 38 28 66.5t42 44.5t56.5 27.5t59 15.5t61.5 8q42 5 61 8t41 10t31 17.5t12 27.5
q10 41 -11.5 55.5t-65.5 14.5q-88 0 -110 -78zM358 200l11 53q-21 -16 -91 -25q-30 -4 -46.5 -7.5t-37.5 -11.5t-32.5 -23.5t-16.5 -38.5q-7 -36 14 -51t59 -15q32 0 57 10t38.5 22t24 32t13.5 29.5t7 25.5zM189 619l16 75h353l-16 -75h-353z" />
    <glyph glyph-name="uni0102" unicode="&#x102;" horiz-adv-x="685" 
d="M-67 0l422 714h161l116 -714h-163l-21 159h-267l-89 -159h-159zM247 276h185l-34 262h-2zM312 921h65q-2 -34 24 -50.5t61 -16.5q91 0 124 67h63q-50 -142 -208 -142q-72 0 -104.5 36.5t-24.5 105.5z" />
    <glyph glyph-name="uni0103" unicode="&#x103;" horiz-adv-x="574" 
d="M206 358h-142q13 47 42 82t68 54t81 28t88 9q34 0 63 -3t58 -13t47.5 -25.5t27 -42.5t0.5 -63l-57 -269q-20 -83 -6 -115h-144q-3 24 0 50q-76 -64 -187 -64q-79 0 -119 39.5t-25 115.5q8 38 28 66.5t42 44.5t56.5 27.5t59 15.5t61.5 8q42 5 61 8t41 10t31 17.5t12 27.5
q10 41 -11.5 55.5t-65.5 14.5q-88 0 -110 -78zM358 200l11 53q-21 -16 -91 -25q-30 -4 -46.5 -7.5t-37.5 -11.5t-32.5 -23.5t-16.5 -38.5q-7 -36 14 -51t59 -15q32 0 57 10t38.5 22t24 32t13.5 29.5t7 25.5zM223 731h65q-2 -34 24 -50.5t61 -16.5q91 0 124 67h63
q-50 -142 -208 -142q-72 0 -105 36.5t-24 105.5z" />
    <glyph glyph-name="Aogonek" unicode="&#x104;" horiz-adv-x="685" 
d="M577 -127l48 -22q-53 -68 -134 -68q-14 0 -28 2.5t-34 10.5t-32.5 27.5t-12.5 49.5q0 47 69 93q25 16 71 34h-55l-23 159h-267l-90 -159h-165l421 714h161l119 -714h-33q-36 -20 -53 -34q-59 -46 -59 -89q0 -15 11.5 -24.5t27.5 -9.5q35 0 58 30zM241 276h191l-35 284h-2
z" />
    <glyph glyph-name="aogonek" unicode="&#x105;" horiz-adv-x="574" 
d="M420 -127l48 -22q-53 -68 -134 -68q-14 0 -28 2.5t-34 10.5t-32.5 27.5t-12.5 49.5q0 47 69 93q25 16 71 34h-48v51q-57 -64 -158 -64q-81 0 -124 38.5t-43 96.5q0 74 51 119.5t146 56.5q22 3 52.5 6t45.5 4.5t35 4.5t29 7.5t18.5 11.5t13 17t3.5 24q0 35 -27.5 49
t-62.5 14q-40 0 -69.5 -19.5t-35.5 -56.5h-133q9 62 46.5 101.5t87 54.5t111.5 15q40 0 74 -5.5t68.5 -19t54 -42t18.5 -69.5q0 -35 -11 -87l-46 -208q-7 -27 -7 -70q0 -12 5 -30h-26q-36 -20 -53 -34q-59 -46 -59 -89q0 -15 11.5 -24.5t27.5 -9.5q35 0 58 30zM346 198
l14 50q-32 -19 -120 -25q-48 -5 -76.5 -22.5t-28.5 -61.5q0 -28 22.5 -43t55.5 -15q59 0 88.5 32t44.5 85z" />
    <glyph glyph-name="Cacute" unicode="&#x106;" horiz-adv-x="741" 
d="M713 466h-157q0 64 -34.5 98.5t-93.5 34.5q-76 0 -131 -47.5t-79 -113.5t-24 -139q0 -80 40.5 -132t121.5 -52q63 0 110 41.5t58 100.5h157q-47 -146 -127 -209.5t-200 -63.5q-153 0 -235 81t-82 234q0 116 46.5 214t136.5 158t207 60q129 0 208.5 -69.5t77.5 -195.5z
M480 778h-100l88 142h152z" />
    <glyph glyph-name="cacute" unicode="&#x107;" horiz-adv-x="556" 
d="M534 338h-142q0 45 -23 65.5t-72 20.5q-38 0 -67.5 -21.5t-45.5 -55.5t-24 -70t-8 -72q0 -50 23.5 -81t74.5 -31q85 0 115 96h142q-67 -202 -267 -202q-230 0 -230 221q0 137 78.5 230t213.5 93q101 0 165.5 -47.5t66.5 -145.5zM348 581h-100l88 142h152z" />
    <glyph glyph-name="uni0108" unicode="&#x108;" horiz-adv-x="741" 
d="M53 354q36 164 153 270.5t278 106.5q121 0 193 -68.5t60 -188.5h-152q2 54 -34.5 89.5t-94.5 35.5q-99 0 -161 -70t-85 -175q-11 -62 -6 -115t43.5 -88.5t105.5 -35.5q70 0 120.5 43t75.5 117h152q-40 -134 -142 -213t-234 -79q-161 0 -234 106t-38 265zM315 779l141 142
h130l80 -142h-115l-45 81l-81 -81h-110z" />
    <glyph glyph-name="uni0109" unicode="&#x109;" horiz-adv-x="574" 
d="M556 335h-139q5 89 -86 89q-62 0 -102.5 -50.5t-54.5 -117.5q-6 -39 -5 -75.5t23.5 -62t64.5 -25.5q98 0 136 105h137q-36 -102 -113.5 -157t-180.5 -55q-116 0 -172.5 74t-32.5 191q27 124 113.5 202t209.5 78q98 0 157 -51t45 -145zM195 589l141 142h130l80 -142h-115
l-45 81l-81 -81h-110z" />
    <glyph glyph-name="uni010A" unicode="&#x10a;" horiz-adv-x="741" 
d="M53 354q36 164 153 270.5t278 106.5q121 0 193 -68.5t60 -188.5h-152q2 54 -34.5 89.5t-94.5 35.5q-99 0 -161 -70t-85 -175q-11 -62 -6 -115t43.5 -88.5t105.5 -35.5q70 0 120.5 43t75.5 117h152q-40 -134 -142 -213t-234 -79q-161 0 -234 106t-38 265zM423 788l25 117
h135l-25 -117h-135z" />
    <glyph glyph-name="uni010B" unicode="&#x10b;" horiz-adv-x="574" 
d="M556 335h-139q5 89 -86 89q-62 0 -102.5 -50.5t-54.5 -117.5q-6 -39 -5 -75.5t23.5 -62t64.5 -25.5q98 0 136 105h137q-36 -102 -113.5 -157t-180.5 -55q-116 0 -172.5 74t-32.5 191q27 124 113.5 202t209.5 78q98 0 157 -51t45 -145zM304 598l24 117h135l-24 -117h-135z
" />
    <glyph glyph-name="uni010C" unicode="&#x10c;" horiz-adv-x="741" 
d="M53 354q36 164 153 270.5t278 106.5q121 0 193 -68.5t60 -188.5h-152q2 54 -34.5 89.5t-94.5 35.5q-99 0 -161 -70t-85 -175q-11 -62 -6 -115t43.5 -88.5t105.5 -35.5q70 0 120.5 43t75.5 117h152q-40 -134 -142 -213t-234 -79q-161 0 -234 106t-38 265zM694 921
l-141 -142h-130l-80 142h115l45 -81l81 81h110z" />
    <glyph glyph-name="uni010D" unicode="&#x10d;" horiz-adv-x="574" 
d="M556 335h-139q5 89 -86 89q-62 0 -102.5 -50.5t-54.5 -117.5q-6 -39 -5 -75.5t23.5 -62t64.5 -25.5q98 0 136 105h137q-36 -102 -113.5 -157t-180.5 -55q-116 0 -172.5 74t-32.5 191q27 124 113.5 202t209.5 78q98 0 157 -51t45 -145zM576 731l-141 -142h-130l-80 142
h115l45 -81l81 81h110z" />
    <glyph glyph-name="uni010E" unicode="&#x10e;" horiz-adv-x="741" 
d="M9 0l151 714h308q145 0 215.5 -91t33.5 -262q-35 -163 -138.5 -262t-261.5 -99h-308zM194 132h140q76 0 137 51.5t86 162.5q25 114 -10 175t-146 61h-112zM643 921l-141 -142h-130l-80 142h115l45 -81l81 81h110z" />
    <glyph glyph-name="uni010F" unicode="&#x10f;" 
d="M363 0l14 66h-2q-64 -80 -174 -80q-111 0 -154 80t-20 197q23 111 100.5 189.5t185.5 78.5q47 0 84.5 -20t52.5 -57h2l55 260h142l-151 -714h-135zM416 260q16 70 -4 117t-83 47q-65 0 -106 -47.5t-54 -117.5q-16 -67 6 -116.5t83 -49.5q64 0 103 47t55 120zM875 714
l-111 -142h-98l61 142h148z" />
    <glyph glyph-name="uni0110" unicode="&#x110;" horiz-adv-x="741" 
d="M9 0l68 320h-73l20 98h73l63 296h308q145 0 215.5 -91t33.5 -262q-35 -163 -138.5 -262t-261.5 -99h-308zM289 582l-35 -164h160l-21 -99h-160l-39 -187h140q76 0 137 51.5t86 162.5q25 114 -10 175t-146 61h-112z" />
    <glyph glyph-name="uni0111" unicode="&#x111;" horiz-adv-x="621" 
d="M318 568l16 76h158l15 70h142l-15 -70h81l-16 -76h-81l-120 -568h-135l14 66h-2q-64 -80 -174 -80q-111 0 -154 80t-20 197q23 111 100.5 189.5t185.5 78.5q47 0 84.5 -20t52.5 -57h2l24 114h-158zM416 260q16 70 -4 117t-83 47q-65 0 -106 -47.5t-54 -117.5
q-16 -67 6 -116.5t83 -49.5q64 0 103 47t55 120z" />
    <glyph glyph-name="uni0112" unicode="&#x112;" horiz-adv-x="648" 
d="M9 0l151 714h534l-28 -132h-377l-32 -153h346l-26 -122h-346l-37 -175h385l-28 -132h-542zM266 809l16 75h353l-16 -75h-353z" />
    <glyph glyph-name="uni0113" unicode="&#x113;" horiz-adv-x="574" 
d="M531 224h-373q-11 -68 13.5 -99.5t85.5 -31.5q41 0 77.5 20.5t49.5 46.5h125q-95 -174 -279 -174q-121 0 -177.5 75.5t-29.5 196.5q24 117 115 195t207 78q84 0 136 -44.5t61 -112.5t-11 -150zM177 314h231q2 56 -18.5 83t-70.5 27q-61 0 -96 -35t-46 -75zM188 619l16 75
h353l-16 -75h-353z" />
    <glyph glyph-name="uni0114" unicode="&#x114;" horiz-adv-x="648" 
d="M9 0l151 714h534l-28 -132h-377l-32 -153h346l-26 -122h-346l-37 -175h385l-28 -132h-542zM300 921h65q-2 -34 24 -50.5t61 -16.5q91 0 124 67h63q-50 -142 -208 -142q-72 0 -104.5 36.5t-24.5 105.5z" />
    <glyph glyph-name="uni0115" unicode="&#x115;" horiz-adv-x="574" 
d="M531 224h-373q-11 -68 13.5 -99.5t85.5 -31.5q41 0 77.5 20.5t49.5 46.5h125q-95 -174 -279 -174q-121 0 -177.5 75.5t-29.5 196.5q24 117 115 195t207 78q84 0 136 -44.5t61 -112.5t-11 -150zM177 314h231q2 56 -18.5 83t-70.5 27q-61 0 -96 -35t-46 -75zM222 731h65
q-2 -34 24 -50.5t61 -16.5q91 0 124 67h63q-50 -142 -208 -142q-72 0 -105 36.5t-24 105.5z" />
    <glyph glyph-name="uni0116" unicode="&#x116;" horiz-adv-x="648" 
d="M9 0l151 714h534l-28 -132h-377l-32 -153h346l-26 -122h-346l-37 -175h385l-28 -132h-542zM370 788l25 117h135l-25 -117h-135z" />
    <glyph glyph-name="uni0117" unicode="&#x117;" horiz-adv-x="574" 
d="M531 224h-373q-11 -68 13.5 -99.5t85.5 -31.5q41 0 77.5 20.5t49.5 46.5h125q-95 -174 -279 -174q-121 0 -177.5 75.5t-29.5 196.5q24 117 115 195t207 78q84 0 136 -44.5t61 -112.5t-11 -150zM177 314h231q2 56 -18.5 83t-70.5 27q-61 0 -96 -35t-46 -75zM292 598
l24 117h135l-24 -117h-135z" />
    <glyph glyph-name="Eogonek" unicode="&#x118;" horiz-adv-x="667" 
d="M495 -127l48 -22q-53 -68 -134 -68q-14 0 -28 2.5t-34 10.5t-32.5 27.5t-12.5 49.5q0 47 69 93q25 16 71 34h-445l149 714h545l-27 -132h-388l-32 -153h359l-26 -122h-359l-37 -175h394l-28 -132h-37q-36 -20 -53 -34q-59 -46 -59 -89q0 -15 11.5 -24.5t27.5 -9.5
q35 0 58 30z" />
    <glyph glyph-name="eogonek" unicode="&#x119;" horiz-adv-x="574" 
d="M298 -127l48 -22q-53 -68 -134 -68q-14 0 -28 2.5t-34 10.5t-32.5 27.5t-12.5 49.5q0 47 69 93q20 13 41 22q-41 3 -70 13q-64 21 -99.5 75t-35.5 136q0 130 79 224.5t206 94.5q111 0 176 -58t65 -168q0 -35 -8 -81h-381q-1 -3 -1 -9v-21q0 -47 29 -74t85 -27q26 0 48 12
t33 24.5t25 34.5h142q-53 -136 -170 -166q-25 -6 -42 -8l-36 -24q-59 -46 -59 -89q0 -15 11.5 -24.5t27.5 -9.5q35 0 58 30zM162 314h237q0 110 -96 110q-102 0 -141 -110z" />
    <glyph glyph-name="uni011A" unicode="&#x11a;" horiz-adv-x="648" 
d="M9 0l151 714h534l-28 -132h-377l-32 -153h346l-26 -122h-346l-37 -175h385l-28 -132h-542zM643 921l-141 -142h-130l-80 142h115l45 -81l81 81h110z" />
    <glyph glyph-name="uni011B" unicode="&#x11b;" horiz-adv-x="574" 
d="M531 224h-373q-11 -68 13.5 -99.5t85.5 -31.5q41 0 77.5 20.5t49.5 46.5h125q-95 -174 -279 -174q-121 0 -177.5 75.5t-29.5 196.5q24 117 115 195t207 78q84 0 136 -44.5t61 -112.5t-11 -150zM177 314h231q2 56 -18.5 83t-70.5 27q-61 0 -96 -35t-46 -75zM565 731
l-141 -142h-130l-80 142h115l45 -81l81 81h110z" />
    <glyph glyph-name="uni011C" unicode="&#x11c;" horiz-adv-x="759" 
d="M53 354q36 164 153 270.5t278 106.5q116 0 188.5 -67.5t58.5 -184.5h-150q-5 120 -125 120q-99 0 -161 -70t-85 -175q-11 -62 -6 -115t43.5 -88.5t105.5 -35.5q155 0 203 154h-158l25 117h300l-82 -386h-100l1 81q-98 -98 -217 -98q-161 0 -234 106t-38 265zM315 779
l141 142h130l80 -142h-115l-45 81l-81 -81h-110z" />
    <glyph glyph-name="uni011D" unicode="&#x11d;" 
d="M600 517l-102 -484q-6 -30 -16.5 -56.5t-34.5 -59.5t-57 -57t-87 -40t-122 -16q-86 0 -145 42.5t-48 123.5h141q4 -71 91 -71q58 0 93.5 34.5t47.5 93.5l15 68h-2q-61 -80 -172 -80t-150.5 72.5t-15.5 187.5q21 106 97 181t179 75q105 0 137 -83h2l14 69h135zM260 122
q58 0 98.5 41.5t53.5 101.5q16 70 -3.5 114.5t-83.5 44.5q-57 0 -95.5 -42.5t-51.5 -104.5q-14 -64 4 -109.5t78 -45.5zM200 589l141 142h130l80 -142h-115l-45 81l-81 -81h-110z" />
    <glyph glyph-name="uni011E" unicode="&#x11e;" horiz-adv-x="759" 
d="M53 354q36 164 153 270.5t278 106.5q116 0 188.5 -67.5t58.5 -184.5h-150q-5 120 -125 120q-99 0 -161 -70t-85 -175q-11 -62 -6 -115t43.5 -88.5t105.5 -35.5q155 0 203 154h-158l25 117h300l-82 -386h-100l1 81q-98 -98 -217 -98q-161 0 -234 106t-38 265zM353 921h65
q-2 -34 24 -50.5t61 -16.5q91 0 124 67h63q-50 -142 -208 -142q-72 0 -104.5 36.5t-24.5 105.5z" />
    <glyph glyph-name="uni011F" unicode="&#x11f;" 
d="M600 517l-102 -484q-6 -30 -16.5 -56.5t-34.5 -59.5t-57 -57t-87 -40t-122 -16q-86 0 -145 42.5t-48 123.5h141q4 -71 91 -71q58 0 93.5 34.5t47.5 93.5l15 68h-2q-61 -80 -172 -80t-150.5 72.5t-15.5 187.5q21 106 97 181t179 75q105 0 137 -83h2l14 69h135zM260 122
q58 0 98.5 41.5t53.5 101.5q16 70 -3.5 114.5t-83.5 44.5q-57 0 -95.5 -42.5t-51.5 -104.5q-14 -64 4 -109.5t78 -45.5zM238 731h65q-2 -34 24 -50.5t61 -16.5q91 0 124 67h63q-50 -142 -208 -142q-72 0 -105 36.5t-24 105.5z" />
    <glyph glyph-name="uni0120" unicode="&#x120;" horiz-adv-x="759" 
d="M53 354q36 164 153 270.5t278 106.5q116 0 188.5 -67.5t58.5 -184.5h-150q-5 120 -125 120q-99 0 -161 -70t-85 -175q-11 -62 -6 -115t43.5 -88.5t105.5 -35.5q155 0 203 154h-158l25 117h300l-82 -386h-100l1 81q-98 -98 -217 -98q-161 0 -234 106t-38 265zM423 788
l25 117h135l-25 -117h-135z" />
    <glyph glyph-name="uni0121" unicode="&#x121;" 
d="M600 517l-102 -484q-6 -30 -16.5 -56.5t-34.5 -59.5t-57 -57t-87 -40t-122 -16q-86 0 -145 42.5t-48 123.5h141q4 -71 91 -71q58 0 93.5 34.5t47.5 93.5l15 68h-2q-61 -80 -172 -80t-150.5 72.5t-15.5 187.5q21 106 97 181t179 75q105 0 137 -83h2l14 69h135zM260 122
q58 0 98.5 41.5t53.5 101.5q16 70 -3.5 114.5t-83.5 44.5q-57 0 -95.5 -42.5t-51.5 -104.5q-14 -64 4 -109.5t78 -45.5zM308 598l24 117h135l-24 -117h-135z" />
    <glyph glyph-name="uni0122" unicode="&#x122;" horiz-adv-x="759" 
d="M53 354q36 164 153 270.5t278 106.5q116 0 188.5 -67.5t58.5 -184.5h-150q-5 120 -125 120q-99 0 -161 -70t-85 -175q-11 -62 -6 -115t43.5 -88.5t105.5 -35.5q155 0 203 154h-158l25 117h300l-82 -386h-100l1 81q-98 -98 -217 -98q-161 0 -234 106t-38 265zM216 -143
l20 93h145l-16 -73q-11 -57 -49.5 -75.5t-105.5 -18.5l8 37q49 4 65 37h-67z" />
    <glyph glyph-name="uni0123" unicode="&#x123;" 
d="M600 517l-102 -484q-6 -30 -16.5 -56.5t-34.5 -59.5t-57 -57t-87 -40t-122 -16q-86 0 -145 42.5t-48 123.5h141q4 -71 91 -71q58 0 93.5 34.5t47.5 93.5l15 68h-2q-61 -80 -172 -80t-150.5 72.5t-15.5 187.5q21 106 97 181t179 75q105 0 137 -83h2l14 69h135zM260 122
q58 0 98.5 41.5t53.5 101.5q16 70 -3.5 114.5t-83.5 44.5q-57 0 -95.5 -42.5t-51.5 -104.5q-14 -64 4 -109.5t78 -45.5zM471 714l-20 -93h-145l16 73q13 58 50.5 76t104.5 18l-8 -37q-48 -4 -65 -37h67z" />
    <glyph glyph-name="uni0124" unicode="&#x124;" horiz-adv-x="741" 
d="M9 0l151 714h157l-58 -274h289l58 274h157l-151 -714h-157l65 308h-289l-65 -308h-157zM300 779l141 142h130l80 -142h-115l-45 81l-81 -81h-110z" />
    <glyph glyph-name="uni0125" unicode="&#x125;" horiz-adv-x="593" 
d="M-6 0l151 714h142l-57 -269h3q35 43 80.5 64.5t88.5 21.5q107 0 136.5 -54t7.5 -159l-67 -318h-142l62 292q15 64 0.5 95.5t-64.5 31.5q-58 0 -91.5 -34.5t-50.5 -113.5l-57 -271h-142zM215 779l141 142h130l80 -142h-115l-45 81l-81 -81h-110z" />
    <glyph glyph-name="uni0126" unicode="&#x126;" horiz-adv-x="741" 
d="M9 0l151 714h157l-23 -109h289l23 109h157l-151 -714h-157l59 281h-289l-59 -281h-157zM251 403h289l24 113h-289z" />
    <glyph glyph-name="uni0127" unicode="&#x127;" horiz-adv-x="603" 
d="M4 0l120 568h-81l16 76h81l15 70h142l-15 -70h158l-16 -76h-158l-26 -123h3q35 43 80.5 64.5t88.5 21.5q107 0 136.5 -54t7.5 -159l-67 -318h-142l62 292q15 64 0.5 95.5t-64.5 31.5q-58 0 -91.5 -34.5t-50.5 -113.5l-57 -271h-142z" />
    <glyph glyph-name="uni0128" unicode="&#x128;" horiz-adv-x="295" 
d="M9 0l151 714h157l-151 -714h-157zM328 797q-33 0 -77 17t-63 17q-32 0 -54 -42h-63q15 48 55.5 85t87.5 37q28 0 72 -17.5t64 -17.5q33 0 50 35h64q-45 -114 -136 -114z" />
    <glyph glyph-name="uni0129" unicode="&#x129;" horiz-adv-x="258" 
d="M-2 0l109 517h142l-109 -517h-142zM270 607q-33 0 -77 17t-63 17q-34 0 -54 -42h-63q16 48 55 85t88 37q28 0 71.5 -17.5t63.5 -17.5q33 0 51 35h64q-45 -114 -136 -114z" />
    <glyph glyph-name="uni012A" unicode="&#x12a;" horiz-adv-x="295" 
d="M9 0l151 714h157l-151 -714h-157zM81 809l16 75h353l-16 -75h-353z" />
    <glyph glyph-name="uni012B" unicode="&#x12b;" horiz-adv-x="258" 
d="M-2 0l109 517h142l-109 -517h-142zM24 619l16 75h353l-16 -75h-353z" />
    <glyph glyph-name="uni012C" unicode="&#x12c;" horiz-adv-x="295" 
d="M9 0l151 714h157l-151 -714h-157zM115 921h65q-2 -34 24 -50.5t61 -16.5q91 0 124 67h63q-50 -142 -208 -142q-72 0 -104.5 36.5t-24.5 105.5z" />
    <glyph glyph-name="uni012D" unicode="&#x12d;" horiz-adv-x="258" 
d="M-2 0l109 517h142l-109 -517h-142zM58 731h65q-2 -34 24 -50.5t61 -16.5q91 0 124 67h63q-50 -142 -208 -142q-72 0 -105 36.5t-24 105.5z" />
    <glyph glyph-name="uni012E" unicode="&#x12e;" horiz-adv-x="295" 
d="M9 0l151 714h157l-151 -714q-62 -44 -84.5 -70.5t-27.5 -50.5q-8 -36 24 -36q24 0 52 28l36 -26q-56 -62 -123 -62q-48 0 -70 22.5t-14 60.5q17 71 139 134h-89z" />
    <glyph glyph-name="uni012F" unicode="&#x12f;" horiz-adv-x="258" 
d="M291 714l-25 -117h-142l25 117h142zM-2 0l109 517h142l-109 -517q-93 -74 -103 -121q-7 -36 24 -36q24 0 52 28l36 -26q-56 -62 -123 -62q-48 0 -70 22.5t-14 60.5q16 69 136 134h-80z" />
    <glyph glyph-name="uni0130" unicode="&#x130;" horiz-adv-x="295" 
d="M9 0l151 714h157l-151 -714h-157zM187 788l25 117h135l-25 -117h-135z" />
    <glyph glyph-name="dotlessi" unicode="&#x131;" horiz-adv-x="259" 
d="M131 0h-142l109 517h143z" />
    <glyph glyph-name="uni0132" unicode="&#x132;" horiz-adv-x="845" 
d="M9 0l151 714h157l-151 -714h-157zM286 204l13 62h142l-7 -32q-11 -59 1.5 -89t64.5 -30q29 0 49.5 10t32 31t16 35t10.5 41l102 482h157l-104 -489q-6 -32 -16 -61t-32 -63.5t-52 -59t-79 -41.5t-110 -17q-46 0 -84.5 12.5t-66.5 39.5t-38 69t1 100z" />
    <glyph glyph-name="uni0133" unicode="&#x133;" horiz-adv-x="524" 
d="M291 714l-25 -117h-142l25 117h142zM-2 0l109 517h142l-109 -517h-142zM546 714l-25 -117h-142l25 117h142zM129 -178l25 117q8 -4 30 -4q55 0 64 46l114 536h142l-115 -543q-19 -83 -65 -119.5t-150 -36.5q-25 0 -45 4z" />
    <glyph glyph-name="uni0134" unicode="&#x134;" horiz-adv-x="556" 
d="M-3 204l13 62h142l-7 -32q-11 -59 1.5 -89t64.5 -30q29 0 49.5 10t32 31t16 35t10.5 41l102 482h157l-104 -489q-6 -32 -16 -61t-32 -63.5t-52 -59t-79 -41.5t-110 -17q-46 0 -84.5 12.5t-66.5 39.5t-38 69t1 100zM333 779l141 142h130l80 -142h-115l-45 81l-81 -81h-110
z" />
    <glyph glyph-name="uni0135" unicode="&#x135;" horiz-adv-x="278" 
d="M-116 -178l25 117q8 -4 30 -4q54 0 63 46l114 536h142l-115 -543q-19 -83 -65 -119.5t-149 -36.5q-25 0 -45 4zM25 589l141 142h130l80 -142h-115l-45 81l-81 -81h-110z" />
    <glyph glyph-name="uni0136" unicode="&#x136;" horiz-adv-x="722" 
d="M9 0l151 714h157l-63 -296l342 296h196l-339 -282l215 -432h-197l-147 321l-110 -91l-48 -230h-157zM207 -143l20 93h145l-16 -73q-11 -57 -49.5 -75.5t-105.5 -18.5l8 37q49 4 65 37h-67z" />
    <glyph glyph-name="uni0137" unicode="&#x137;" horiz-adv-x="574" 
d="M7 0l151 714h142l-81 -383l218 186h168l-235 -190l148 -327h-172l-93 231l-67 -53l-37 -178h-142zM144 -143l20 93h145l-16 -73q-11 -57 -49.5 -75.5t-105.5 -18.5l8 37q49 4 65 37h-67z" />
    <glyph glyph-name="uni0138" unicode="&#x138;" horiz-adv-x="565" 
d="M-6 0l109 517h142l-43 -204l222 204h168l-237 -202l151 -315h-172l-95 216l-69 -56l-34 -160h-142z" />
    <glyph glyph-name="uni0139" unicode="&#x139;" horiz-adv-x="593" 
d="M9 0l151 714h157l-123 -582h348l-28 -132h-505zM483 921l-184 -142h-99l126 142h157z" />
    <glyph glyph-name="uni013A" unicode="&#x13a;" horiz-adv-x="258" 
d="M-2 0l151 714h142l-151 -714h-142zM448 921l-184 -142h-99l126 142h157z" />
    <glyph glyph-name="uni013B" unicode="&#x13b;" horiz-adv-x="593" 
d="M9 0l151 714h157l-123 -582h348l-28 -132h-505zM155 -143l20 93h145l-16 -73q-11 -57 -49.5 -75.5t-105.5 -18.5l8 37q49 4 65 37h-67z" />
    <glyph glyph-name="uni013C" unicode="&#x13c;" horiz-adv-x="258" 
d="M-2 0l151 714h142l-151 -714h-142zM-35 -143l20 93h145l-16 -73q-11 -57 -49.5 -75.5t-105.5 -18.5l8 37q49 4 65 37h-67z" />
    <glyph glyph-name="uni013D" unicode="&#x13d;" horiz-adv-x="593" 
d="M9 0l151 714h157l-123 -582h348l-28 -132h-505zM574 714l-111 -142h-98l61 142h148z" />
    <glyph glyph-name="uni013E" unicode="&#x13e;" horiz-adv-x="386" 
d="M-2 0l151 714h142l-151 -714h-142zM477 714l-88 -247h-81l61 247h108z" />
    <glyph glyph-name="uni013F" unicode="&#x13f;" horiz-adv-x="593" 
d="M9 0l151 714h157l-123 -582h348l-28 -132h-505zM350 333l25 117h135l-25 -117h-135z" />
    <glyph glyph-name="uni0140" unicode="&#x140;" horiz-adv-x="410" 
d="M-2 0l151 714h142l-151 -714h-142zM271 333l25 117h135l-25 -117h-135z" />
    <glyph glyph-name="Lslash" unicode="&#x141;" horiz-adv-x="574" 
d="M38 200l-81 -56l21 111l84 58l84 401h158l-58 -274l204 140l-26 -115l-202 -139l-41 -194h346l-28 -132h-502z" />
    <glyph glyph-name="lslash" unicode="&#x142;" horiz-adv-x="259" 
d="M-11 0l58 278l-70 -54l25 122l71 54l67 314h142l-39 -186l83 63l-26 -121l-83 -63l-87 -407h-141z" />
    <glyph glyph-name="Nacute" unicode="&#x143;" horiz-adv-x="741" 
d="M147 714h162l194 -508h2l102 508h144l-151 -714h-157l-196 501h-2l-102 -501h-146zM480 778h-100l88 142h152z" />
    <glyph glyph-name="nacute" unicode="&#x144;" 
d="M96 517h136l-16 -72h2q69 86 181 86q151 0 151 -139q0 -10 -3 -27.5t-7 -37t-5 -24.5l-64 -303h-142l63 303q9 48 9 63q0 22 -21 37.5t-47 15.5q-59 0 -95 -41.5t-50 -102.5l-58 -275h-141zM376 581h-100l88 142h152z" />
    <glyph glyph-name="uni0145" unicode="&#x145;" horiz-adv-x="741" 
d="M9 0l151 714h156l196 -479h2l102 479h147l-151 -714h-157l-196 478h-2l-101 -478h-147zM209 -143l20 93h145l-16 -73q-11 -57 -49.5 -75.5t-105.5 -18.5l8 37q49 4 65 37h-67z" />
    <glyph glyph-name="uni0146" unicode="&#x146;" horiz-adv-x="593" 
d="M-6 0l109 517h135l-15 -72h3q70 86 176 86q107 0 136.5 -54t7.5 -159l-67 -318h-142l62 292q15 64 0.5 95.5t-64.5 31.5q-58 0 -91.5 -34.5t-50.5 -113.5l-57 -271h-142zM130 -143l20 93h145l-16 -73q-11 -57 -49.5 -75.5t-105.5 -18.5l8 37q49 4 65 37h-67z" />
    <glyph glyph-name="uni0147" unicode="&#x147;" horiz-adv-x="741" 
d="M9 0l151 714h156l196 -479h2l102 479h147l-151 -714h-157l-196 478h-2l-101 -478h-147zM677 921l-141 -142h-130l-80 142h115l45 -81l81 81h110z" />
    <glyph glyph-name="uni0148" unicode="&#x148;" horiz-adv-x="593" 
d="M-6 0l109 517h135l-15 -72h3q70 86 176 86q107 0 136.5 -54t7.5 -159l-67 -318h-142l62 292q15 64 0.5 95.5t-64.5 31.5q-58 0 -91.5 -34.5t-50.5 -113.5l-57 -271h-142zM567 731l-141 -142h-130l-80 142h115l45 -81l81 81h110z" />
    <glyph glyph-name="uni0149" unicode="&#x149;" horiz-adv-x="737" 
d="M138 0l109 517h135l-15 -72h3q70 86 176 86q107 0 136.5 -54t7.5 -159l-67 -318h-142l62 292q15 64 0.5 95.5t-64.5 31.5q-58 0 -91.5 -34.5t-50.5 -113.5l-57 -271h-142zM79 560l32 154h142l-32 -153q-12 -65 -62.5 -112.5t-115.5 -55.5l14 66q40 12 59.5 36.5
t28.5 64.5h-66z" />
    <glyph glyph-name="uni014A" unicode="&#x14a;" horiz-adv-x="741" 
d="M9 0l151 714h156l198 -471h2l100 471h147l-152 -715q-19 -93 -74 -137t-163 -44q-33 0 -75 6l26 121q35 -6 57 -6q69 0 85 61l-208 478h-2l-101 -478h-147z" />
    <glyph glyph-name="uni014B" unicode="&#x14b;" horiz-adv-x="593" 
d="M191 -178l25 117q21 -4 44 -4q63 0 76 64l63 293q15 64 0.5 95.5t-64.5 31.5q-58 0 -91.5 -34.5t-50.5 -113.5l-57 -271h-142l109 517h135l-15 -72h3q70 86 176 86q107 0 136.5 -54t7.5 -159l-69 -324q-19 -90 -70 -133t-159 -43q-29 0 -57 4z" />
    <glyph glyph-name="uni014C" unicode="&#x14c;" horiz-adv-x="778" 
d="M53 354q36 164 153 270.5t278 106.5t233.5 -107t37.5 -270q-36 -160 -152.5 -265.5t-277.5 -105.5t-234 106t-38 265zM210 354q-11 -62 -6 -115t43.5 -88.5t105.5 -35.5q98 0 160.5 69.5t84.5 169.5q12 47 9 91t-17 78.5t-48.5 55t-85.5 20.5q-99 0 -161 -70t-85 -175z
M324 809l16 75h353l-16 -75h-353z" />
    <glyph glyph-name="uni014D" unicode="&#x14d;" 
d="M32 258q26 124 114.5 198.5t210.5 74.5q123 0 179.5 -74.5t30.5 -198.5q-26 -123 -115 -197.5t-210 -74.5t-178.5 74.5t-31.5 197.5zM174 258q-32 -165 90 -165q67 0 107 47.5t54 117.5q16 71 -3.5 118.5t-86.5 47.5q-66 0 -105.5 -47t-55.5 -119zM201 619l16 75h353
l-16 -75h-353z" />
    <glyph glyph-name="uni014E" unicode="&#x14e;" horiz-adv-x="778" 
d="M53 354q36 164 153 270.5t278 106.5t233.5 -107t37.5 -270q-36 -160 -152.5 -265.5t-277.5 -105.5t-234 106t-38 265zM210 354q-11 -62 -6 -115t43.5 -88.5t105.5 -35.5q98 0 160.5 69.5t84.5 169.5q12 47 9 91t-17 78.5t-48.5 55t-85.5 20.5q-99 0 -161 -70t-85 -175z
M358 921h65q-2 -34 24 -50.5t61 -16.5q91 0 124 67h63q-50 -142 -208 -142q-72 0 -104.5 36.5t-24.5 105.5z" />
    <glyph glyph-name="uni014F" unicode="&#x14f;" 
d="M32 258q26 124 114.5 198.5t210.5 74.5q123 0 179.5 -74.5t30.5 -198.5q-26 -123 -115 -197.5t-210 -74.5t-178.5 74.5t-31.5 197.5zM174 258q-32 -165 90 -165q67 0 107 47.5t54 117.5q16 71 -3.5 118.5t-86.5 47.5q-66 0 -105.5 -47t-55.5 -119zM235 731h65
q-2 -34 24 -50.5t61 -16.5q91 0 124 67h63q-50 -142 -208 -142q-72 0 -105 36.5t-24 105.5z" />
    <glyph glyph-name="uni0150" unicode="&#x150;" horiz-adv-x="778" 
d="M53 354q36 164 153 270.5t278 106.5t233.5 -107t37.5 -270q-36 -160 -152.5 -265.5t-277.5 -105.5t-234 106t-38 265zM210 354q-11 -62 -6 -115t43.5 -88.5t105.5 -35.5q98 0 160.5 69.5t84.5 169.5q12 47 9 91t-17 78.5t-48.5 55t-85.5 20.5q-99 0 -161 -70t-85 -175z
M814 921l-179 -142h-99l121 142h157zM607 921l-179 -142h-99l121 142h157z" />
    <glyph glyph-name="uni0151" unicode="&#x151;" 
d="M32 258q26 124 114.5 198.5t210.5 74.5q123 0 179.5 -74.5t30.5 -198.5q-26 -123 -115 -197.5t-210 -74.5t-178.5 74.5t-31.5 197.5zM174 258q-32 -165 90 -165q67 0 107 47.5t54 117.5q16 71 -3.5 118.5t-86.5 47.5q-66 0 -105.5 -47t-55.5 -119zM691 731l-179 -142h-99
l121 142h157zM484 731l-179 -142h-99l121 142h157z" />
    <glyph glyph-name="OE" unicode="&#x152;" horiz-adv-x="1111" 
d="M425 599q-76 0 -130.5 -50t-77.5 -118.5t-23 -141.5q0 -78 35.5 -126t110.5 -48q65 0 111.5 33t67.5 91q15 41 31 123t16 120q0 59 -40 88t-101 29zM494 56l-2 2q-31 -37 -80 -55.5t-102 -18.5q-130 0 -201.5 85t-71.5 219q0 88 26.5 167.5t75 141t123.5 98t165 36.5
q122 0 181 -82l14 65h507l-28 -132h-361l-33 -153h330l-26 -122h-329l-38 -175h368l-28 -132h-502z" />
    <glyph glyph-name="oe" unicode="&#x153;" horiz-adv-x="926" 
d="M152 201q0 -47 24.5 -77.5t72.5 -30.5q38 0 67.5 24t46 61.5t24.5 76.5t8 76q0 39 -22.5 66t-67.5 27q-39 0 -69.5 -23.5t-48 -59.5t-26.5 -72.5t-9 -67.5zM860 161q-28 -86 -97 -130t-162 -44q-66 0 -110 18t-74 67q-60 -85 -186 -85q-61 0 -106 19.5t-69 54t-35 74
t-11 85.5q0 120 87 215.5t214 95.5q54 0 101.5 -21t72.5 -63q25 37 77 60.5t100 23.5q109 0 169.5 -59.5t60.5 -167.5q0 -39 -10 -80h-377q-3 -16 -3 -34q0 -43 27.5 -70t74.5 -27q90 0 114 68h142zM753 314q2 14 2 22q0 35 -25.5 61.5t-68.5 26.5q-58 0 -89.5 -28.5
t-52.5 -81.5h234z" />
    <glyph glyph-name="uni0154" unicode="&#x154;" horiz-adv-x="722" 
d="M9 0l151 714h385q94 0 139.5 -57t27.5 -140q-27 -134 -151 -179v-2q90 -26 68 -167q-1 -10 -5.5 -39.5t-7 -49t-1 -43t8.5 -37.5h-157q-2 36 -1.5 51t6 60t6.5 60q4 58 -17 83t-79 25h-157l-59 -279h-157zM291 592l-42 -201h172q108 0 129 102q22 99 -87 99h-172z
M667 921l-184 -142h-99l126 142h157z" />
    <glyph glyph-name="uni0155" unicode="&#x155;" horiz-adv-x="389" 
d="M-6 0l109 517h135l-20 -96h2q31 49 82.5 79.5t105.5 30.5q13 0 30 -5l-28 -132q-20 5 -50 5q-73 0 -116.5 -45.5t-58.5 -120.5l-49 -233h-142zM505 731l-184 -142h-99l126 142h157z" />
    <glyph glyph-name="uni0156" unicode="&#x156;" horiz-adv-x="722" 
d="M9 0l151 714h385q94 0 139.5 -57t27.5 -140q-27 -134 -151 -179v-2q90 -26 68 -167q-1 -10 -5.5 -39.5t-7 -49t-1 -43t8.5 -37.5h-157q-2 36 -1.5 51t6 60t6.5 60q4 58 -17 83t-79 25h-157l-59 -279h-157zM291 592l-42 -201h172q108 0 129 102q22 99 -87 99h-172z
M204 -143l20 93h145l-16 -73q-11 -57 -49.5 -75.5t-105.5 -18.5l8 37q49 4 65 37h-67z" />
    <glyph glyph-name="uni0157" unicode="&#x157;" horiz-adv-x="389" 
d="M-6 0l109 517h135l-20 -96h2q31 49 82.5 79.5t105.5 30.5q13 0 30 -5l-28 -132q-20 5 -50 5q-73 0 -116.5 -45.5t-58.5 -120.5l-49 -233h-142zM-38 -143l20 93h145l-16 -73q-11 -57 -49.5 -75.5t-105.5 -18.5l8 37q49 4 65 37h-67z" />
    <glyph glyph-name="uni0158" unicode="&#x158;" horiz-adv-x="722" 
d="M9 0l151 714h385q94 0 139.5 -57t27.5 -140q-27 -134 -151 -179v-2q90 -26 68 -167q-1 -10 -5.5 -39.5t-7 -49t-1 -43t8.5 -37.5h-157q-2 36 -1.5 51t6 60t6.5 60q4 58 -17 83t-79 25h-157l-59 -279h-157zM291 592l-42 -201h172q108 0 129 102q22 99 -87 99h-172z
M649 921l-141 -142h-130l-80 142h115l45 -81l81 81h110z" />
    <glyph glyph-name="uni0159" unicode="&#x159;" horiz-adv-x="389" 
d="M-6 0l109 517h135l-20 -96h2q31 49 82.5 79.5t105.5 30.5q13 0 30 -5l-28 -132q-20 5 -50 5q-73 0 -116.5 -45.5t-58.5 -120.5l-49 -233h-142zM491 731l-141 -142h-130l-80 142h115l45 -81l81 81h110z" />
    <glyph glyph-name="Sacute" unicode="&#x15a;" horiz-adv-x="648" 
d="M5 237h149q-4 -71 37.5 -101.5t116.5 -30.5q54 0 95 26t41 75q0 14 -5 26t-16.5 21.5t-21.5 16t-30 14t-33 11.5t-38 11t-37 11q-82 24 -131 66.5t-49 125.5q0 57 24.5 101t65.5 70t90 38.5t103 12.5q119 0 193.5 -56.5t74.5 -173.5h-149q2 56 -33 82t-95 26
q-52 0 -88.5 -21.5t-36.5 -67.5q0 -23 16.5 -41t43 -28.5t51.5 -17.5t48 -12q8 -1 11 -2q95 -25 143 -68t48 -132q0 -62 -26 -109t-69 -73.5t-92.5 -39.5t-103.5 -13q-151 0 -224 61.5t-73 191.5zM404 778h-100l88 142h152z" />
    <glyph glyph-name="sacute" unicode="&#x15b;" horiz-adv-x="519" 
d="M484 366h-132q-2 70 -80 70q-87 0 -87 -51q0 -17 14.5 -29t50.5 -23l71 -23q64 -20 100 -54t36 -94q0 -61 -37.5 -102t-90.5 -57t-118 -16q-56 0 -102.5 13.5t-81.5 51.5t-35 95v21h131v-17q0 -33 31 -51.5t71 -18.5q37 0 63.5 15t26.5 47q0 25 -12 36t-39 21l-109 35
q-59 20 -85.5 47.5t-26.5 84.5t37.5 96t87 53.5t104.5 14.5q97 0 155.5 -36.5t56.5 -128.5zM329 581h-100l88 142h152z" />
    <glyph glyph-name="uni015C" unicode="&#x15c;" horiz-adv-x="649" 
d="M14 237h152q-15 -67 23 -99.5t107 -32.5q54 0 100.5 20t57.5 69q3 16 0 29t-13.5 23t-22 17.5t-32 14.5t-36 11.5t-42 11t-41.5 11.5q-43 11 -73.5 24.5t-59 36.5t-38 58.5t0.5 83.5q23 103 114.5 159.5t198.5 56.5q58 0 105 -13t82 -39.5t49 -72t1 -105.5h-152
q9 60 -23 84t-95 24q-43 0 -80 -20t-45 -61q-9 -39 22.5 -55.5t167.5 -52.5q93 -24 132 -62q54 -55 36 -146q-23 -102 -113 -165.5t-233 -63.5q-130 0 -204 65t-46 189zM258 779l141 142h130l80 -142h-115l-45 81l-81 -81h-110z" />
    <glyph glyph-name="uni015D" unicode="&#x15d;" horiz-adv-x="537" 
d="M4 168h135q-9 -43 18.5 -65t72.5 -22q36 0 68 16t39 50q3 16 -4.5 27.5t-29.5 21t-44.5 15.5t-65.5 16q-74 18 -110.5 47t-24.5 91q10 47 36 81t63.5 52t76.5 25.5t84 7.5q95 0 149.5 -38.5t43.5 -126.5h-135q6 39 -16.5 54.5t-65.5 15.5q-80 0 -89 -48q-2 -11 0.5 -19.5
t11 -15t17 -11.5t24.5 -9.5t27.5 -7t32.5 -7t32 -7.5q73 -17 109.5 -48.5t23.5 -96.5q-20 -94 -97 -137t-177 -43q-47 0 -86 9.5t-70 30t-44.5 57t-4.5 85.5zM161 589l141 142h130l80 -142h-115l-45 81l-81 -81h-110z" />
    <glyph glyph-name="uni015E" unicode="&#x15e;" horiz-adv-x="649" 
d="M92 -195l31 48q38 -18 75 -18q46 0 53 34q3 15 -7 24t-28 9q-16 0 -40 -8l-16 24l62 67q-113 11 -174 74.5t-34 177.5h152q-15 -67 23 -99.5t107 -32.5q54 0 100.5 20t57.5 69q3 16 0 29t-13.5 23t-22 17.5t-32 14.5t-36 11.5t-42 11t-41.5 11.5q-43 11 -73.5 24.5
t-59 36.5t-38 58.5t0.5 83.5q23 103 114.5 159.5t198.5 56.5q58 0 105 -13t82 -39.5t49 -72t1 -105.5h-152q9 60 -23 84t-95 24q-43 0 -80 -20t-45 -61q-9 -39 22.5 -55.5t167.5 -52.5q93 -24 132 -62q54 -55 36 -146q-22 -101 -111.5 -164t-229.5 -65l-34 -35l2 -2
q18 7 42 7q40 0 58.5 -20.5t10.5 -56.5q-9 -44 -47 -68.5t-98 -24.5t-111 22z" />
    <glyph glyph-name="uni015F" unicode="&#x15f;" horiz-adv-x="537" 
d="M36 -195l31 48q38 -18 75 -18q46 0 53 34q3 15 -7 24t-28 9q-16 0 -40 -8l-16 24l65 70q-86 7 -133 50.5t-32 129.5h135q-9 -43 18.5 -65t72.5 -22q36 0 68 16t39 50q3 16 -4.5 27.5t-29.5 21t-44.5 15.5t-65.5 16q-74 18 -110.5 47t-24.5 91q10 47 36 81t63.5 52
t76.5 25.5t84 7.5q95 0 149.5 -38.5t43.5 -126.5h-135q6 39 -16.5 54.5t-65.5 15.5q-80 0 -89 -48q-2 -11 0.5 -19.5t11 -15t17 -11.5t24.5 -9.5t27.5 -7t32.5 -7t32 -7.5q73 -17 109.5 -48.5t23.5 -96.5q-20 -92 -94.5 -134.5t-172.5 -45.5l-37 -38l2 -2q18 7 42 7
q40 0 58.5 -20.5t10.5 -56.5q-9 -44 -47 -68.5t-98 -24.5t-111 22z" />
    <glyph glyph-name="Scaron" unicode="&#x160;" horiz-adv-x="648" 
d="M435 778h-126l-83 142h100l50 -83l87 83h109zM154 237q-4 -71 37.5 -101.5t116.5 -30.5q54 0 95 26t41 75q0 14 -5 26t-16.5 21.5t-21.5 16t-30 14t-33 11.5t-38 11t-37 11q-82 24 -131 66.5t-49 125.5q0 57 24.5 101t65.5 70t90 38.5t103 12.5q119 0 193.5 -56.5
t74.5 -173.5h-149q2 56 -33 82t-95 26q-52 0 -88.5 -21.5t-36.5 -67.5q0 -23 16.5 -41t43 -28.5t51.5 -17.5t48 -12q8 -1 11 -2q95 -25 143 -68t48 -132q0 -62 -26 -109t-69 -73.5t-92.5 -39.5t-103.5 -13q-151 0 -224 61.5t-73 191.5h149z" />
    <glyph glyph-name="scaron" unicode="&#x161;" horiz-adv-x="519" 
d="M370 581h-126l-83 142h100l50 -83l87 83h109zM352 366q-2 70 -80 70q-87 0 -87 -51q0 -17 14.5 -29t50.5 -23l71 -23q64 -20 100 -54t36 -94q0 -61 -37.5 -102t-90.5 -57t-118 -16q-56 0 -102.5 13.5t-81.5 51.5t-35 95v21h131v-17q0 -33 31 -51.5t71 -18.5q37 0 63.5 15
t26.5 47q0 25 -12 36t-39 21l-109 35q-59 20 -85.5 47.5t-26.5 84.5t37.5 96t87 53.5t104.5 14.5q97 0 155.5 -36.5t56.5 -128.5h-132z" />
    <glyph glyph-name="uni0162" unicode="&#x162;" 
d="M167 0l123 582h-214l28 132h585l-28 -132h-214l-123 -582h-157zM142 -143l20 93h145l-16 -73q-11 -57 -49.5 -75.5t-105.5 -18.5l8 37q49 4 65 37h-67z" />
    <glyph glyph-name="uni0163" unicode="&#x163;" horiz-adv-x="352" 
d="M316 672l-33 -155h104l-20 -95h-104l-54 -256q-8 -36 1.5 -48t45.5 -12q28 0 45 4l-24 -111q-31 -5 -84 -5q-77 0 -114 25.5t-23 97.5l65 305h-86l20 95h86l33 155h142zM16 -195l21 48q42 -18 84 -18q40 0 40 34q0 32 -40 32q-23 0 -40 -7l-21 24l59 84h49l-39 -54h2
q13 5 34 5q37 0 64.5 -18t27.5 -52q0 -100 -117 -100q-64 0 -124 22z" />
    <glyph glyph-name="uni0164" unicode="&#x164;" 
d="M167 0l123 582h-214l28 132h585l-28 -132h-214l-123 -582h-157zM616 921l-141 -142h-130l-80 142h115l45 -81l81 81h110z" />
    <glyph glyph-name="uni0165" unicode="&#x165;" horiz-adv-x="352" 
d="M557 714l-111 -142h-98l61 142h148zM316 672l-33 -155h104l-20 -95h-104l-54 -256q-8 -36 1.5 -48t45.5 -12q28 0 45 4l-24 -111q-31 -5 -84 -5q-77 0 -114 25.5t-23 97.5l65 305h-86l20 95h86l33 155h142z" />
    <glyph glyph-name="uni0166" unicode="&#x166;" 
d="M97 366l21 96h147l25 120h-214l28 132h585l-28 -132h-214l-25 -120h147l-21 -96h-147l-77 -366h-157l77 366h-147z" />
    <glyph glyph-name="uni0167" unicode="&#x167;" horiz-adv-x="352" 
d="M316 672l-33 -155h104l-20 -95h-104l-17 -81h92l-16 -76h-92l-21 -99q-8 -36 1.5 -48t45.5 -12q28 0 45 4l-24 -111q-31 -5 -84 -5q-77 0 -114 25.5t-23 97.5l32 148h-78l16 76h78l17 81h-86l20 95h86l33 155h142z" />
    <glyph glyph-name="uni0168" unicode="&#x168;" horiz-adv-x="741" 
d="M766 714l-94 -444q-30 -142 -125 -214.5t-241 -72.5q-147 0 -211 71.5t-32 215.5l94 444h157l-94 -444q-7 -33 -7 -57.5t9.5 -48.5t37.5 -36.5t74 -12.5q83 0 122.5 36t58.5 119l94 444h157zM551 797q-33 0 -77 17t-63 17q-32 0 -54 -42h-63q15 48 55.5 85t87.5 37
q29 0 73 -17.5t63 -17.5q33 0 50 35h64q-45 -114 -136 -114z" />
    <glyph glyph-name="uni0169" unicode="&#x169;" horiz-adv-x="593" 
d="M588 517l-109 -517h-135l15 72h-3q-70 -86 -176 -86q-107 0 -136.5 54t-7.5 159l67 318h142l-62 -292q-15 -64 -0.5 -95.5t64.5 -31.5q58 0 91.5 34.5t50.5 113.5l57 271h142zM439 607q-33 0 -77 17t-63 17q-34 0 -54 -42h-63q16 48 55 85t88 37q28 0 71.5 -17.5
t63.5 -17.5q33 0 51 35h64q-45 -114 -136 -114z" />
    <glyph glyph-name="uni016A" unicode="&#x16a;" horiz-adv-x="741" 
d="M766 714l-94 -444q-30 -142 -125 -214.5t-241 -72.5q-147 0 -211 71.5t-32 215.5l94 444h157l-94 -444q-7 -33 -7 -57.5t9.5 -48.5t37.5 -36.5t74 -12.5q83 0 122.5 36t58.5 119l94 444h157zM305 809l16 75h353l-16 -75h-353z" />
    <glyph glyph-name="uni016B" unicode="&#x16b;" horiz-adv-x="593" 
d="M588 517l-109 -517h-135l15 72h-3q-70 -86 -176 -86q-107 0 -136.5 54t-7.5 159l67 318h142l-62 -292q-15 -64 -0.5 -95.5t64.5 -31.5q58 0 91.5 34.5t50.5 113.5l57 271h142zM194 619l16 75h353l-16 -75h-353z" />
    <glyph glyph-name="uni016C" unicode="&#x16c;" horiz-adv-x="741" 
d="M766 714l-94 -444q-30 -142 -125 -214.5t-241 -72.5q-147 0 -211 71.5t-32 215.5l94 444h157l-94 -444q-7 -33 -7 -57.5t9.5 -48.5t37.5 -36.5t74 -12.5q83 0 122.5 36t58.5 119l94 444h157zM339 921h65q-2 -34 24 -50.5t61 -16.5q91 0 124 67h63q-50 -142 -208 -142
q-72 0 -104.5 36.5t-24.5 105.5z" />
    <glyph glyph-name="uni016D" unicode="&#x16d;" horiz-adv-x="593" 
d="M588 517l-109 -517h-135l15 72h-3q-70 -86 -176 -86q-107 0 -136.5 54t-7.5 159l67 318h142l-62 -292q-15 -64 -0.5 -95.5t64.5 -31.5q58 0 91.5 34.5t50.5 113.5l57 271h142zM227 731h65q-2 -34 24 -50.5t61 -16.5q91 0 124 67h63q-50 -142 -208 -142q-72 0 -105 36.5
t-24 105.5z" />
    <glyph glyph-name="uni016E.low" unicode="&#x16e;" horiz-adv-x="741" 
d="M766 714l-94 -444q-30 -142 -125 -214.5t-241 -72.5q-147 0 -211 71.5t-32 215.5l94 444h157l-94 -444q-7 -33 -7 -57.5t9.5 -48.5t37.5 -36.5t74 -12.5q83 0 122.5 36t58.5 119l94 444h157zM605 839q-10 -48 -51 -81t-90 -33q-50 0 -76.5 33t-16.5 81t51 81t90 33
q50 0 76.5 -33t16.5 -81zM427 839q-6 -27 7 -45t40 -18q28 0 48.5 17.5t26.5 45.5q5 27 -8 45t-40 18t-47.5 -17.5t-26.5 -45.5z" />
    <glyph glyph-name="uni016F" unicode="&#x16f;" horiz-adv-x="593" 
d="M588 517l-109 -517h-135l15 72h-3q-70 -86 -176 -86q-107 0 -136.5 54t-7.5 159l67 318h142l-62 -292q-15 -64 -0.5 -95.5t64.5 -31.5q58 0 91.5 34.5t50.5 113.5l57 271h142zM261 684q12 52 54 86t94 34q54 0 81 -34t16 -86q-12 -52 -54.5 -86t-94.5 -34q-54 0 -80.5 34
t-15.5 86zM447 684q6 30 -7 48.5t-42 18.5t-50.5 -18.5t-27.5 -48.5t7 -48.5t42 -18.5t50.5 18.5t27.5 48.5z" />
    <glyph glyph-name="uni0170" unicode="&#x170;" horiz-adv-x="741" 
d="M766 714l-94 -444q-30 -142 -125 -214.5t-241 -72.5q-147 0 -211 71.5t-32 215.5l94 444h157l-94 -444q-7 -33 -7 -57.5t9.5 -48.5t37.5 -36.5t74 -12.5q83 0 122.5 36t58.5 119l94 444h157zM795 921l-179 -142h-99l121 142h157zM588 921l-179 -142h-99l121 142h157z" />
    <glyph glyph-name="uni0171" unicode="&#x171;" horiz-adv-x="593" 
d="M588 517l-109 -517h-135l15 72h-3q-70 -86 -176 -86q-107 0 -136.5 54t-7.5 159l67 318h142l-62 -292q-15 -64 -0.5 -95.5t64.5 -31.5q58 0 91.5 34.5t50.5 113.5l57 271h142zM683 731l-179 -142h-99l121 142h157zM476 731l-179 -142h-99l121 142h157z" />
    <glyph glyph-name="uni0172" unicode="&#x172;" horiz-adv-x="741" 
d="M355 -125l39 -26q-58 -66 -138 -66q-50 0 -74.5 22.5t-16.5 60.5q12 59 107 118q-266 17 -209 286l94 444h157l-94 -444q-7 -33 -7 -57.5t9.5 -48.5t37.5 -36.5t74 -12.5q83 0 122.5 36t58.5 119l94 444h157l-94 -444q-58 -267 -328 -286q-72 -62 -80 -103
q-4 -17 4.5 -27.5t24.5 -10.5q28 0 62 32z" />
    <glyph glyph-name="uni0173" unicode="&#x173;" horiz-adv-x="593" 
d="M588 517l-109 -517h-65q-81 -66 -92 -118q-4 -18 5 -28.5t25 -10.5q28 0 62 32l39 -26q-58 -66 -138 -66q-50 0 -74.5 23t-16.5 61q8 34 36.5 65t83.5 68l15 72h-3q-70 -86 -176 -86q-107 0 -136.5 54t-7.5 159l67 318h142l-62 -292q-15 -64 -0.5 -95.5t64.5 -31.5
q58 0 91.5 34.5t50.5 113.5l57 271h142z" />
    <glyph glyph-name="uni0174" unicode="&#x174;" horiz-adv-x="944" 
d="M1032 714l-343 -714h-156l-18 486h-2l-222 -486h-159l-38 714h157l10 -486h2l227 486h147l18 -492h2l221 492h154zM404 779l141 142h130l80 -142h-115l-45 81l-81 -81h-110z" />
    <glyph glyph-name="uni0175" unicode="&#x175;" horiz-adv-x="814" 
d="M857 517l-272 -517h-146l-19 347h-2l-161 -347h-147l-55 517h150l21 -351h2l160 351h138l14 -350h2l169 350h146zM299 589l141 142h130l80 -142h-115l-45 81l-81 -81h-110z" />
    <glyph glyph-name="uni0176" unicode="&#x176;" horiz-adv-x="667" 
d="M194 0l59 278l-171 436h177l107 -282l226 282h175l-358 -440l-58 -274h-157zM267 779l141 142h130l80 -142h-115l-45 81l-81 -81h-110z" />
    <glyph glyph-name="uni0177" unicode="&#x177;" horiz-adv-x="519" 
d="M574 517l-339 -582q-37 -63 -84 -90t-119 -27q-39 0 -86 5l25 117q38 -5 75 -5q28 0 48.5 18t27.5 47q3 17 0 32l-79 485h152l42 -354h2l188 354h147zM156 589l141 142h130l80 -142h-115l-45 81l-81 -81h-110z" />
    <glyph glyph-name="Ydieresis" unicode="&#x178;" horiz-adv-x="648" 
d="M236 911h131l-24 -117h-131zM432 911h131l-24 -117h-131zM232 277l-171 437h161l107 -304l222 304h185l-348 -444l-55 -270h-158z" />
    <glyph glyph-name="Zacute" unicode="&#x179;" horiz-adv-x="648" 
d="M-15 130l476 452h-366l29 132h564l-26 -126l-481 -456h403l-26 -132h-600zM414 778h-100l88 142h152z" />
    <glyph glyph-name="zacute" unicode="&#x17a;" horiz-adv-x="500" 
d="M-28 105l323 305h-249l23 107h434l-22 -105l-325 -305h285l-23 -107h-468zM310 581h-100l88 142h152z" />
    <glyph glyph-name="Zdotaccent" unicode="&#x17b;" horiz-adv-x="648" 
d="M-15 130l476 452h-366l29 132h564l-26 -126l-481 -456h403l-26 -132h-600zM360 911h131l-24 -117h-131z" />
    <glyph glyph-name="zdotaccent" unicode="&#x17c;" horiz-adv-x="500" 
d="M-28 105l323 305h-249l23 107h434l-22 -105l-325 -305h285l-23 -107h-468zM240 714h131l-24 -117h-131z" />
    <glyph glyph-name="Zcaron" unicode="&#x17d;" horiz-adv-x="648" 
d="M435 778h-126l-83 142h100l50 -83l87 83h109zM-15 130l476 452h-366l29 132h564l-26 -126l-481 -456h403l-26 -132h-600z" />
    <glyph glyph-name="zcaron" unicode="&#x17e;" horiz-adv-x="500" 
d="M361 581h-126l-83 142h100l50 -83l87 83h109zM-28 105l323 305h-249l23 107h434l-22 -105l-325 -305h285l-23 -107h-468z" />
    <glyph glyph-name="uni017F" unicode="&#x17f;" horiz-adv-x="333" 
d="M288 572l-30 -143l-91 -429h-139l91 429h-78l21 98h76l7 35q18 86 54 117q41 48 156 48q29 0 52 -3l-24 -113q-3 0 -8 0.5t-14 1t-16 0.5q-49 1 -57 -41z" />
    <glyph glyph-name="uni0180" unicode="&#x180;" 
d="M298 588l-26 -123q67 80 164 80q106 0 151.5 -78.5t16.5 -214.5q-25 -117 -105 -194q-79 -75 -172 -75q-57 0 -90.5 21.5t-53.5 69.5l-15 -74h-135l124 588h-62l16 75h62l12 56h141l-12 -56h144l-16 -75h-144zM224 258q-15 -71 7.5 -114t80.5 -43t97 43t54 119
q16 72 -5 116t-79 44q-41 0 -76 -25q-58 -41 -79 -140z" />
    <glyph glyph-name="uni0182" unicode="&#x182;" horiz-adv-x="667" 
d="M266 461h153q123 0 174 -55t25 -178q-24 -114 -99 -171t-186 -57h-313l152 718l-3 4h528l-27 -128h-375zM195 125h140q112 0 134 104q23 108 -89 108h-140z" />
    <glyph glyph-name="uni0183" unicode="&#x183;" 
d="M152 718l-3 4h440l-27 -128h-293l-3 4l-29 -135q35 38 70 57q42 24 101 24q105 0 148 -76q44 -75 18 -195q-27 -124 -103 -206q-75 -81 -180 -81q-66 0 -101 26q-21 16 -40 55l-14 -67h-136zM424 258q12 57 6 94q-13 70 -88 70q-76 0 -118 -68q-24 -39 -35 -95
q-16 -72 6.5 -115t82.5 -43q53 0 92 42.5t54 114.5z" />
    <glyph glyph-name="uni0186" unicode="&#x186;" horiz-adv-x="722" 
d="M537 68q-107 -89 -242 -89q-181 0 -240 120q-32 69 -22 134h151q3 -52 20 -78q32 -47 112 -47q83 0 145 67t86 186q25 117 -10 179.5t-115 62.5t-132 -52q-30 -30 -56 -83h-149q44 117 140 191q97 74 222 74q156 0 223 -100q68 -102 31 -274q-41 -190 -164 -291z" />
    <glyph glyph-name="uni0189" unicode="&#x189;" horiz-adv-x="722" 
d="M188 125h104q60 0 90 8q45 12 83 53q33 36 55 89q22 54 30 92q31 147 -31 199q-35 29 -120 29h-111l-32 -149h152l-26 -125h-152zM609 152q-110 -152 -293 -152h-300l68 321h-67l26 125h67l58 273h301q85 0 138 -26t83 -84q46 -90 15 -232q-29 -131 -96 -225z" />
    <glyph glyph-name="uni018B" unicode="&#x18b;" horiz-adv-x="667" 
d="M361 461h153l29 133h-374l27 128h527l-5 -4l-152 -718h-313q-111 0 -162 57t-27 171q26 123 100 178t197 55zM303 125h140l45 212h-140q-112 0 -135 -108q-22 -104 90 -104z" />
    <glyph glyph-name="uni018C" unicode="&#x18c;" 
d="M669 722l-5 -4l-152 -718h-136l14 67q-37 -39 -64 -55q-46 -26 -111 -26q-105 0 -147 81q-41 83 -14 206q26 121 100 195q76 76 181 76q59 0 90 -24q27 -18 47 -57l29 135l-6 -4h-293l27 128h440zM196 258q-15 -72 6 -114.5t74 -42.5q60 0 100.5 43t56.5 115q12 59 5 95
q-14 68 -90 68q-74 0 -117 -70q-23 -39 -35 -94z" />
    <glyph glyph-name="uni018D" unicode="&#x18d;" horiz-adv-x="577" 
d="M308 193l150 -108l-22 -100h-421l24 112h220q-10 1 -67 57q-58 58 -97 137q-41 84 -22 172q24 112 106 182t191 70q120 0 172 -73q54 -72 28 -191q-19 -97 -92 -168q-70 -70 -170 -90zM281 293q54 0 96 49q43 50 56 115q13 63 -8 109q-19 45 -77 45q-54 0 -91 -46
q-39 -47 -52 -109q-13 -66 6 -115q19 -48 70 -48z" />
    <glyph glyph-name="uni018E" unicode="&#x18e;" horiz-adv-x="667" 
d="M163 592l28 128h527l-153 -720h-545l27 129h399l39 185h-350l27 125h350l32 153h-381z" />
    <glyph glyph-name="uni018F" unicode="&#x18f;" horiz-adv-x="758" 
d="M335 -16q-138 0 -218 84t-80 214q0 55 17 118h514v14q0 85 -42 136t-114 51q-60 0 -109.5 -30t-73.5 -81h-149q33 106 129 173.5t223 67.5q138 0 215 -85t77 -221q0 -191 -107.5 -316t-281.5 -125zM350 114q63 0 116 44.5t79 119.5h-348q7 -72 44.5 -118t108.5 -46z" />
    <glyph glyph-name="uni0190" unicode="&#x190;" horiz-adv-x="568" 
d="M15 231q12 57 52 104q43 55 97 64q-38 21 -54 61.5t-6 88.5q21 98 97 147q70 44 170 44q141 0 182 -93q11 -28 8 -61l-8 -47h-120q8 39 -10 67q-21 35 -77 35q-45 0 -77 -27t-41 -72q-10 -48 18 -78q24 -25 55 -25h68l-23 -105h-76q-31 0 -69 -26q-44 -31 -55 -78
q-13 -61 8 -99q24 -42 83 -42q122 0 151 131h126q-22 -107 -102 -175q-80 -69 -187 -69q-124 0 -179 66q-57 67 -31 189z" />
    <glyph glyph-name="uni0191" unicode="&#x191;" 
d="M-96 -213l24 111q9 -1 15.5 -1.5t8.5 -0.5q41 0 52 49l164 774h510l-27 -127h-360l-35 -165h316l-26 -125h-316l-64 -302h-2l-13 -57q-17 -82 -57 -119q-40 -39 -141 -39q-4 0 -10 0.5t-17.5 1t-21.5 0.5z" />
    <glyph glyph-name="florin" unicode="&#x192;" horiz-adv-x="556" 
d="M-2 -61q5 0 17 -0.5t18 -0.5q12 0 22 2.5t17.5 11t12.5 13t10.5 18.5t7.5 18t7 21.5t5 18.5l81 296h-96l28 95h95l39 147q34 152 204 152q9 0 84 -8l-28 -103q-6 0 -20 2t-22 2q-11 0 -20 -2t-15.5 -4t-13 -8.5t-9.5 -9t-8 -12.5t-6 -12.5t-6 -15.5t-6 -14l-30 -114h104
l-26 -95h-106l-85 -314q-26 -97 -73.5 -144.5t-141.5 -47.5q-13 0 -36.5 2t-31.5 2z" />
    <glyph glyph-name="uni0196" unicode="&#x196;" horiz-adv-x="278" 
d="M208 89l-23 -111q-50 -2 -51 -2q-93 0 -117 38q-23 39 -6 120l125 587h140l-125 -585q-6 -28 2 -38.5t29 -10.5q2 0 5 0.5t8.5 1t12.5 0.5z" />
    <glyph glyph-name="uni0197" unicode="&#x197;" horiz-adv-x="390" 
d="M49 416l16 74h101l49 230h139l-49 -230h107l-16 -74h-107l-88 -416h-139l88 416h-101z" />
    <glyph glyph-name="uni019A" unicode="&#x19a;" horiz-adv-x="390" 
d="M49 416l16 74h101l49 230h139l-49 -230h107l-16 -74h-107l-88 -416h-139l88 416h-101z" />
    <glyph glyph-name="uni019B" unicode="&#x19b;" horiz-adv-x="549" 
d="M86 484l16 74l129 30l-17 118h148l13 -84l144 34l-16 -74l-118 -28l87 -554h-154l-32 322h-2l-165 -322h-155l283 490l-5 30z" />
    <glyph glyph-name="uni019D" unicode="&#x19d;" horiz-adv-x="722" 
d="M-99 -213l24 111q9 -1 15.5 -1.5t8.5 -0.5q41 0 52 49l124 585h1l41 190h157l180 -503l107 503h140l-153 -720h-150l-186 511l-108 -511h-2l-13 -57q-17 -82 -57 -119q-39 -39 -132 -39q-4 0 -10 0.5t-17.5 1t-21.5 0.5z" />
    <glyph glyph-name="uni019E" unicode="&#x19e;" 
d="M563 358l-121 -569h-142l113 535q9 42 3 64q-12 41 -70 41q-70 0 -110 -60q-20 -31 -30 -81l-61 -288h-139l112 531h134l-16 -77q38 42 64 59q50 32 115 32q81 0 125 -44t23 -143z" />
    <glyph glyph-name="uni019F" unicode="&#x19f;" horiz-adv-x="778" 
d="M583 64q-99 -84 -253 -84q-155 0 -218 84q-88 103 -47 297q42 198 173 297q99 84 254 84q154 0 217 -84q88 -99 46 -297q-40 -193 -172 -297zM228 173q39 -66 129 -66q89 0 155 66q52 52 79 137h-385q-9 -85 22 -137zM592 548q-38 66 -127 66t-157 -66q-52 -50 -78 -132
h384q7 81 -22 132z" />
    <glyph glyph-name="uni01A0" unicode="&#x1a0;" horiz-adv-x="946" 
d="M583 64q-99 -84 -253 -84q-155 0 -218 84q-88 103 -47 297q42 198 173 297q99 84 254 84q154 0 217 -84q26 -29 41 -65l2 -1q35 -3 82 19l-26 73l141 73l48 -131l-123 -63q-31 -16 -71 -27q-19 -4 -38 -6q11 -75 -10 -169q-40 -193 -172 -297zM605 361q26 120 -12 186.5
t-128 66.5q-91 0 -157.5 -66.5t-92.5 -186.5q-26 -121 12.5 -187.5t129.5 -66.5q90 0 156 66.5t92 187.5z" />
    <glyph glyph-name="uni01A1" unicode="&#x1a1;" horiz-adv-x="795" 
d="M239 -19q-137 0 -187 83q-50 84 -24 201q24 115 109 199q85 85 223 85t187 -84l14 -28q2 -1 7 -1q34 -3 82 19l-27 73l141 73l47 -131l-121 -63q-31 -16 -71 -27q-21 -6 -41 -6q6 -51 -6 -109q-26 -117 -111 -201q-86 -83 -222 -83zM426 265q17 80 -6.5 123.5t-84.5 43.5
t-103 -43.5t-59 -123.5t6.5 -123.5t84.5 -43.5t103 43.5t59 123.5z" />
    <glyph glyph-name="uni01A2" unicode="&#x1a2;" horiz-adv-x="926" 
d="M590 -181l162 763h-90l-115 -548q-82 -50 -216 -50q-138 0 -216 85t-78 230q0 191 110.5 311.5t279.5 120.5q73 0 122 -17h388l-190 -895h-157zM351 115q30 0 57 7l97 460q-23 17 -77 17q-77 0 -131.5 -45.5t-78.5 -111.5t-24 -143q0 -75 40 -129.5t117 -54.5z" />
    <glyph glyph-name="uni01A3" unicode="&#x1a3;" horiz-adv-x="770" 
d="M455 -181l126 591h-68l-77 -360q-77 -63 -189 -63q-109 0 -173 54t-64 168q0 147 86 234.5t209 87.5q57 0 99 -14h341l-148 -698h-142zM250 93q32 0 55 10l64 303q-25 18 -67 18q-69 0 -109.5 -67t-40.5 -148q0 -50 23.5 -83t74.5 -33z" />
    <glyph glyph-name="uni01A6" unicode="&#x1a6;" horiz-adv-x="650" 
d="M-31 0l153 720h147l-21 -98h206q72 -1 110 -17.5t60 -51.5q39 -58 22 -136q-12 -56 -50 -103.5t-97 -67.5q46 -20 58 -57t-3 -112l-11 -49q-10 -47 -10 -67q0 -27 18 -41l-3 -18h-165q-2 32 -2 39q0 33 7 62l13 67q14 69 -6 92t-85 23h-155l-39 -185h-147zM396 497h-175
l-41 -193h170q50 0 78 11q50 21 63 81q13 66 -25 88q-22 13 -70 13z" />
    <glyph glyph-name="uni01A7" unicode="&#x1a7;" horiz-adv-x="667" 
d="M476 222h143q-24 -112 -119 -177q-94 -64 -234 -64q-138 0 -200 65q-61 66 -40 164q21 97 95 147q51 34 135 53l131 29q75 18 99 30q38 20 47 58q8 42 -21.5 65.5t-87.5 23.5q-52 0 -90 -18q-59 -29 -77 -93h-145q28 115 121 175q94 61 208 61q136 0 193 -64t36 -161
q-23 -107 -106 -156q-53 -30 -167 -55l-80 -17q-70 -15 -106 -34q-35 -20 -42 -55q-13 -61 45 -83q32 -12 84 -12q88 0 135 44q25 25 43 74z" />
    <glyph glyph-name="uni01A8" unicode="&#x1a8;" horiz-adv-x="556" 
d="M353 170h142q-19 -86 -92 -137t-194 -51q-119 0 -169.5 48.5t-32.5 130.5q12 59 62 100q48 39 137 59q130 28 153 39t28 35q4 20 -14 33.5t-60 13.5q-56 0 -84 -28q-17 -17 -24 -43h-140q55 177 273 177q104 0 151 -53q46 -52 31 -126q-13 -62 -58 -96q-41 -33 -139 -56
q-131 -30 -154 -42t-27 -36q-5 -24 16 -36.5t63 -12.5q70 0 101 28q19 16 31 53z" />
    <glyph glyph-name="uni01A9" unicode="&#x1a9;" horiz-adv-x="595" 
d="M294 585l179 -227l-276 -228h332l-27 -130h-532l23 110l297 247l-192 248l23 110h532l-27 -130h-332z" />
    <glyph glyph-name="uni01AE" unicode="&#x1ae;" 
d="M60 -213l24 111q8 -1 15 -1.5t9 -0.5q41 0 52 49l137 647h-216l28 128h583l-28 -128h-215l-138 -649q-18 -83 -64.5 -120.5t-137.5 -37.5q-1 0 -49 2z" />
    <glyph glyph-name="uni01AF" unicode="&#x1af;" horiz-adv-x="918" 
d="M74 277l95 443h153l-95 -443q-15 -74 -5 -108q13 -61 106 -61q91 0 131 61q26 35 41 108l95 443h153l-28 -128h3q33 -3 82 19l-27 73l141 73l49 -131l-123 -63q-31 -16 -71 -27q-36 -10 -66 -3l-55 -256q-24 -114 -73 -178q-91 -118 -279 -118t-228 118q-23 65 1 178z
" />
    <glyph glyph-name="uni01B0" unicode="&#x1b0;" horiz-adv-x="805" 
d="M114 532h143l-69 -321q-9 -44 -4 -68q10 -40 66 -40q70 0 111 57q20 32 30 83l62 289h142l-16 -71q1 -1 3 -1q35 -3 83 19l-27 73l141 73l48 -130l-123 -63q-36 -19 -70 -28q-36 -9 -67 -3l-85 -401h-136l15 75l-6 -7q-6 -8 -13.5 -16t-15.5 -13q-68 -51 -146 -51
q-119 0 -141 85q-13 47 6 138z" />
    <glyph glyph-name="uni01B1" unicode="&#x1b1;" horiz-adv-x="775" 
d="M352 135q81 0 136 60q55 59 73 145q20 83 8 143.5t-61 101.5l27 130h285l-25 -120h-149q104 -100 70 -260q-30 -140 -134 -238q-103 -97 -252 -97q-143 0 -212 97q-68 98 -38 238q18 86 60 146.5t120 113.5h-150l25 120h286l-27 -130q-66 -41 -102 -99t-55 -146
q-19 -85 8 -146q27 -59 107 -59z" />
    <glyph glyph-name="uni01B5" unicode="&#x1b5;" horiz-adv-x="648" 
d="M-42 0l27 130l186 177h-85l26 122h188l161 153h-366l29 132h564l-26 -126l-168 -159h95l-26 -122h-198l-184 -175h403l-26 -132h-600z" />
    <glyph glyph-name="uni01B6" unicode="&#x1b6;" horiz-adv-x="500" 
d="M-50 0l22 105l123 116h-51l20 91h127l104 98h-249l23 107h434l-22 -105l-107 -100h60l-20 -91h-137l-121 -114h285l-23 -107h-468z" />
    <glyph glyph-name="uni01B7" unicode="&#x1b7;" horiz-adv-x="600" 
d="M159 358l276 232h-332l28 130h532l-24 -110l-180 -154q40 -19 65 -56q58 -37 29 -174q-26 -122 -123 -179q-97 -56 -225 -56t-175 92q-29 56 -20 120h142q-4 -46 12 -70.5t62 -24.5q70 0 120 32t62 89q13 60 7 99q-16 22 -73 30l-2 -1z" />
    <glyph glyph-name="uni01B8" unicode="&#x1b8;" horiz-adv-x="600" 
d="M294 590l179 -232l-184 -1v1q-59 -8 -87 -30q-20 -36 -34 -99q-12 -57 24 -89t106 -32q86 0 115 95h142q-19 -65 -72 -120q-84 -92 -212 -92t-202 56q-73 56 -47 179q28 136 104 174q37 36 87 56l-115 154l24 110h533l-28 -130h-333z" />
    <glyph glyph-name="uni01B9" unicode="&#x1b9;" horiz-adv-x="551" 
d="M254 400l129 -232l-134 -1l-1 1q-57 -7 -86 -30q-22 -43 -36 -106q-27 -130 95 -130q49 0 67 27q17 23 32 68h142q-18 -63 -71 -121q-64 -91 -194 -91t-186.5 61.5t-30.5 182.5q29 138 105 181q39 36 88 56l-115 154l23 110h484l-27 -130h-284z" />
    <glyph glyph-name="uni01BB" unicode="&#x1bb;" horiz-adv-x="612" 
d="M40 139q45 70 173 150q109 68 145 99q55 47 65 101q10 46 -9 75.5t-64 29.5q-64 0 -97 -48q-19 -26 -34 -87h-136q22 88 64 146q79 106 221 106q111 0 164.5 -62t31.5 -165q-17 -78 -76 -139q-44 -44 -121 -91l-64 -39q-63 -40 -83 -54q-23 -17 -40 -38h309l-26 -123
h-484q18 77 61 139zM85 391h522l-21 -99h-522z" />
    <glyph glyph-name="uni01C0" unicode="&#x1c0;" horiz-adv-x="280" 
d="M175 727h128l-154 -727h-128z" />
    <glyph glyph-name="uni01C1" unicode="&#x1c1;" horiz-adv-x="529" 
d="M175 727h128l-154 -727h-128zM419 727h128l-154 -727h-128z" />
    <glyph glyph-name="uni01C2" unicode="&#x1c2;" horiz-adv-x="572" 
d="M381 521h211l-27 -128h-211l-21 -100h211l-27 -128h-211l-35 -165h-128l35 165h-190l27 128h190l21 100h-190l27 128h190l44 206h128z" />
    <glyph glyph-name="uni01C3" unicode="&#x1c3;" horiz-adv-x="333" 
d="M163 535l39 182h153l-39 -182l-111 -336h-73zM53 0l29 141h146l-29 -141h-146z" />
    <glyph glyph-name="uni01C4" unicode="&#x1c4;" horiz-adv-x="1230" 
d="M386 595h-139l-100 -470h139q106 0 170 105q37 60 53 137q23 112 1 169q-23 59 -124 59zM546 704q70 -25 103 -91q45 -93 15 -236q-32 -144 -110 -243q-107 -134 -269 -134h-310l153 720h310q67 -2 108 -16zM592 0l26 127l471 465h-362l28 128h549l-26 -121l-477 -472
h377l-26 -127h-560zM1088 751h-125l-84 146h113l47 -82l81 82h113z" />
    <glyph glyph-name="uni01C5" unicode="&#x1c5;" horiz-adv-x="1132" 
d="M394 595h-139l-100 -470h139q106 0 170 105q37 60 53 137q23 112 1 169q-23 59 -124 59zM553 704q71 -26 104 -91q45 -93 15 -236q-32 -144 -110 -243q-107 -134 -269 -134h-310l153 720h310q68 -2 107 -16zM955 419h-254l24 113h432l-25 -115l-335 -303h280l-24 -114
h-460l22 108zM998 575h-125l-84 146h114l46 -83l81 83h113z" />
    <glyph glyph-name="uni01C6" unicode="&#x1c6;" horiz-adv-x="1060" 
d="M446 465l54 254h141l-152 -719h-135l15 74q-40 -48 -82.5 -69.5t-99.5 -21.5q-93 0 -141 75q-47 77 -22 194q29 137 108 215q80 78 184 78q97 0 130 -80zM406 258q21 98 -19 140q-25 25 -66 25q-58 0 -97 -44t-55 -116q-15 -77 5.5 -119.5t78.5 -42.5t98 42.5t55 114.5z
M885 419h-254l24 113h431l-25 -115l-334 -303h279l-24 -114h-459l22 108zM932 577h-125l-84 146h114l47 -83l80 83h113z" />
    <glyph glyph-name="uni01C7" unicode="&#x1c7;" horiz-adv-x="1058" 
d="M-7 0l153 720h151l-126 -591h356l-27 -129h-507zM566 283h142l-4 -16q-17 -84 -6.5 -118t62.5 -34q54 0 79 37q14 24 26 75l107 503h150l-107 -501q-20 -94 -62 -146q-73 -90 -213 -90t-173 73q-32 74 -5 201z" />
    <glyph glyph-name="uni01C8" unicode="&#x1c8;" horiz-adv-x="835" 
d="M-7 0l153 720h151l-126 -591h356l-27 -129h-507zM886 724l-27 -128h-139l27 128h139zM481 -213l24 111q9 -1 15.5 -1.5t8.5 -0.5q22 0 34.5 11t18.5 38l124 585h139l-125 -587q-17 -82 -57 -119q-41 -39 -132 -39q-2 0 -50 2z" />
    <glyph glyph-name="uni01C9" unicode="&#x1c9;" horiz-adv-x="521" 
d="M300 720l-153 -720h-139l153 720h139zM581 724l-27 -128h-139l27 128h139zM176 -213l24 111q8 -1 15.5 -1.5t9.5 -0.5q41 0 52 49l124 585h139l-125 -587q-17 -82 -57 -119q-39 -39 -132 -39z" />
    <glyph glyph-name="uni01CA" unicode="&#x1ca;" horiz-adv-x="1158" 
d="M-12 0l153 720h158l180 -503l107 503h140l-153 -720h-151l-186 511l-108 -511h-140zM661 278h142l-4 -17q-18 -83 -7 -117t63 -34q53 0 78 37q16 24 26 74l108 504h150l-107 -501q-20 -92 -63 -146q-72 -91 -213 -91t-172 73q-32 74 -5 201z" />
    <glyph glyph-name="uni01CB" unicode="&#x1cb;" horiz-adv-x="906" 
d="M-9 0l153 720h157l180 -503l107 503h140l-153 -720h-150l-186 511l-108 -511h-140zM955 727l-27 -129h-139l27 129h139zM550 -211l23 111q16 -1 25 -1q22 0 34 10.5t18 38.5l125 584h139l-125 -587q-18 -84 -59.5 -120.5t-130.5 -36.5q-3 0 -19 0.5t-30 0.5z" />
    <glyph glyph-name="uni01CC" unicode="&#x1cc;" horiz-adv-x="800" 
d="M543 358l-76 -358h-143l68 324q9 42 3 64q-11 41 -69 41q-71 0 -110 -60q-20 -30 -31 -81l-61 -288h-139l112 531h135l-16 -77q37 42 63 59q50 32 115 32q82 0 126 -44t23 -143zM840 724l-27 -128h-140l27 128h140zM435 -213l24 111q8 -1 15 -1.5t9 -0.5q41 0 52 49
l124 585h140l-125 -587q-17 -82 -57 -119q-41 -39 -133 -39q-1 0 -49 2z" />
    <glyph glyph-name="uni01CD" unicode="&#x1cd;" horiz-adv-x="722" 
d="M423 555l-153 -283h183zM-35 0l410 720h170l102 -720h-163l-15 148h-266l-80 -148h-158zM536 789h-125l-84 146h114l47 -83l80 83h113z" />
    <glyph glyph-name="uni01CE" unicode="&#x1ce;" horiz-adv-x="556" 
d="M341 207l12 52q-28 -17 -68 -23l-33 -6q-41 -7 -67 -19q-38 -20 -45 -59q-8 -34 7.5 -51t45.5 -17q45 0 89 26q44 27 59 97zM234 318l48 6q38 4 58 12q34 14 38 39q7 32 -12 45t-64 13q-50 0 -76 -24q-18 -18 -30 -49h-134q19 70 63 115q70 70 204 70q87 0 149 -35
q61 -34 40 -131l-52 -244l-12 -61q-4 -28 0 -37t17 -16l-4 -21h-151q-5 25 0 62q-33 -29 -78 -53q-50 -26 -107 -26q-74 0 -110.5 42.5t-21.5 116.5q21 99 105 142q45 23 130 34zM408 615h-125l-83 146h113l47 -82l80 82h114z" />
    <glyph glyph-name="uni01CF" unicode="&#x1cf;" horiz-adv-x="278" 
d="M307 720l-153 -720h-150l153 720h150zM313 798h-125l-84 146h113l47 -83l81 83h113z" />
    <glyph glyph-name="uni01D0" unicode="&#x1d0;" horiz-adv-x="278" 
d="M7 0l113 532h141l-113 -532h-141zM273 607h-125l-84 146h113l46 -82l82 82h113z" />
    <glyph glyph-name="uni01D1" unicode="&#x1d1;" horiz-adv-x="778" 
d="M605 361q26 120 -12 186.5t-128 66.5q-91 0 -157.5 -66.5t-92.5 -186.5q-26 -121 12.5 -187.5t129.5 -66.5q90 0 156 66.5t92 187.5zM583 64q-99 -84 -253 -84q-155 0 -218 84q-88 103 -47 297q42 198 173 297q99 84 254 84q154 0 217 -84q88 -99 46 -297
q-40 -193 -172 -297zM573 819h-125l-83 146h113l46 -83l81 83h114z" />
    <glyph glyph-name="uni01D2" unicode="&#x1d2;" 
d="M426 265q17 80 -6.5 123.5t-84.5 43.5t-103 -43.5t-59 -123.5t6.5 -123.5t84.5 -43.5t103 43.5t59 123.5zM239 -19q-137 0 -187 83q-50 84 -24 201q24 115 109 199q85 85 223 85q137 0 186 -85q50 -84 26 -199q-26 -117 -111 -201q-86 -83 -222 -83zM442 625h-125
l-84 146h114l47 -83l80 83h113z" />
    <glyph glyph-name="uni01D3" unicode="&#x1d3;" horiz-adv-x="722" 
d="M74 277l95 443h153l-95 -443q-15 -74 -5 -108q13 -61 106 -61q91 0 131 61q26 35 41 108l95 443h153l-95 -443q-24 -114 -73 -178q-91 -118 -279 -118t-228 118q-23 65 1 178zM532 797h-125l-84 146h113l47 -82l81 82h113z" />
    <glyph glyph-name="uni01D4" unicode="&#x1d4;" 
d="M114 532h143l-69 -321q-9 -44 -4 -68q10 -40 66 -40q70 0 111 57q20 32 30 83l62 289h142l-113 -532h-136l15 75l-6 -7q-6 -8 -13.5 -16t-15.5 -13q-68 -51 -146 -51q-119 0 -141 85q-13 47 6 138zM431 599h-125l-83 146h113l46 -83l81 83h114z" />
    <glyph glyph-name="uni01D5" unicode="&#x1d5;" horiz-adv-x="722" 
d="M74 277l95 443h153l-95 -443q-15 -74 -5 -108q13 -61 106 -61q91 0 131 61q26 35 41 108l95 443h153l-95 -443q-24 -114 -73 -178q-91 -118 -279 -118t-228 118q-23 65 1 178zM520 803l25 116h127l-25 -116h-127zM324 803l25 116h128l-25 -116h-128zM344 1002l16 74h347
l-16 -74h-347z" />
    <glyph glyph-name="uni01D6" unicode="&#x1d6;" 
d="M114 532h143l-69 -321q-9 -44 -4 -68q10 -40 66 -40q70 0 111 57q20 32 30 83l62 289h142l-113 -532h-136l15 75l-6 -7q-6 -8 -13.5 -16t-15.5 -13q-68 -51 -146 -51q-119 0 -141 85q-13 47 6 138zM409 607l24 116h128l-24 -116h-128zM214 607l24 116h127l-24 -116h-127z
M241 795l16 75h347l-16 -75h-347z" />
    <glyph glyph-name="uni01D7" unicode="&#x1d7;" horiz-adv-x="722" 
d="M74 277l95 443h153l-95 -443q-15 -74 -5 -108q13 -61 106 -61q91 0 131 61q26 35 41 108l95 443h153l-95 -443q-24 -114 -73 -178q-91 -118 -279 -118t-228 118q-23 65 1 178zM506 775l25 116h127l-25 -116h-127zM311 775l25 116h127l-25 -116h-127zM555 1079h155
l-179 -146h-101z" />
    <glyph glyph-name="uni01D8" unicode="&#x1d8;" 
d="M114 532h143l-69 -321q-9 -44 -4 -68q10 -40 66 -40q70 0 111 57q20 32 30 83l62 289h142l-113 -532h-136l15 75l-6 -7q-6 -8 -13.5 -16t-15.5 -13q-68 -51 -146 -51q-119 0 -141 85q-13 47 6 138zM403 604l25 116h128l-25 -116h-128zM208 604l25 116h128l-25 -116h-128z
M468 927h155l-180 -146h-100z" />
    <glyph glyph-name="uni01D9" unicode="&#x1d9;" horiz-adv-x="722" 
d="M74 277l95 443h153l-95 -443q-15 -74 -5 -108q13 -61 106 -61q91 0 131 61q26 35 41 108l95 443h153l-95 -443q-24 -114 -73 -178q-91 -118 -279 -118t-228 118q-23 65 1 178zM512 801l24 116h127l-24 -116h-127zM317 801l24 116h127l-24 -116h-127zM572 984h-125
l-83 146h113l46 -83l81 83h114z" />
    <glyph glyph-name="uni01DA" unicode="&#x1da;" 
d="M114 532h143l-69 -321q-9 -44 -4 -68q10 -40 66 -40q70 0 111 57q20 32 30 83l62 289h142l-113 -532h-136l15 75l-6 -7q-6 -8 -13.5 -16t-15.5 -13q-68 -51 -146 -51q-119 0 -141 85q-13 47 6 138zM402 607l24 116h127l-24 -116h-127zM207 607l24 116h127l-24 -116h-127z
M470 781h-125l-83 146h113l46 -83l81 83h114z" />
    <glyph glyph-name="uni01DB" unicode="&#x1db;" horiz-adv-x="722" 
d="M74 277l95 443h153l-95 -443q-15 -74 -5 -108q13 -61 106 -61q91 0 131 61q26 35 41 108l95 443h153l-95 -443q-24 -114 -73 -178q-91 -118 -279 -118t-228 118q-23 65 1 178zM511 788l25 116h128l-25 -116h-128zM316 788l25 116h127l-25 -116h-127zM504 1098l63 -146
h-101l-117 146h155z" />
    <glyph glyph-name="uni01DC" unicode="&#x1dc;" 
d="M114 532h143l-69 -321q-9 -44 -4 -68q10 -40 66 -40q70 0 111 57q20 32 30 83l62 289h142l-113 -532h-136l15 75l-6 -7q-6 -8 -13.5 -16t-15.5 -13q-68 -51 -146 -51q-119 0 -141 85q-13 47 6 138zM414 601l25 115h128l-25 -115h-128zM219 601l25 115h127l-25 -115h-127z
M405 915l63 -146h-100l-117 146h154z" />
    <glyph glyph-name="uni01DD" unicode="&#x1dd;" horiz-adv-x="556" 
d="M368 209h-216q-9 -53 14.5 -82.5t69.5 -29.5q93 0 132 112zM26 85q-21 49 -17 110q1 34 17 106h365q14 80 -27 112q-23 20 -64 20q-43 0 -76 -24q-17 -14 -33 -37h-142q17 47 70 96q85 78 208 78q102 0 165 -66q64 -64 32 -212q-28 -138 -115 -213q-85 -73 -197 -73
q-141 0 -186 103z" />
    <glyph glyph-name="uni01DE" unicode="&#x1de;" horiz-adv-x="722" 
d="M423 555l-153 -283h183zM-35 0l410 720h170l102 -720h-163l-15 148h-266l-80 -148h-158zM520 813l25 116h128l-25 -116h-128zM325 813l25 116h127l-25 -116h-127zM345 1002l16 74h347l-16 -74h-347z" />
    <glyph glyph-name="uni01DF" unicode="&#x1df;" horiz-adv-x="556" 
d="M341 207l12 52q-28 -17 -68 -23l-33 -6q-41 -7 -67 -19q-38 -20 -45 -59q-8 -34 7.5 -51t45.5 -17q45 0 89 26q44 27 59 97zM234 318l48 6q38 4 58 12q34 14 38 39q7 32 -12 45t-64 13q-50 0 -76 -24q-18 -18 -30 -49h-134q19 70 63 115q70 70 204 70q87 0 149 -35
q61 -34 40 -131l-52 -244l-12 -61q-4 -28 0 -37t17 -16l-4 -21h-151q-5 25 0 62q-33 -29 -78 -53q-50 -26 -107 -26q-74 0 -110.5 42.5t-21.5 116.5q21 99 105 142q45 23 130 34zM394 623l25 116h127l-25 -116h-127zM198 623l25 116h128l-25 -116h-128zM219 810l15 74h347
l-15 -74h-347z" />
    <glyph glyph-name="uni01E0" unicode="&#x1e0;" horiz-adv-x="722" 
d="M423 555l-153 -283h183zM-35 0l410 720h170l102 -720h-163l-15 148h-266l-80 -148h-158zM415 810l24 115h127l-24 -115h-127zM345 1002l16 74h347l-16 -74h-347z" />
    <glyph glyph-name="uni01E1" unicode="&#x1e1;" horiz-adv-x="556" 
d="M341 207l12 52q-28 -17 -68 -23l-33 -6q-41 -7 -67 -19q-38 -20 -45 -59q-8 -34 7.5 -51t45.5 -17q45 0 89 26q44 27 59 97zM234 318l48 6q38 4 58 12q34 14 38 39q7 32 -12 45t-64 13q-50 0 -76 -24q-18 -18 -30 -49h-134q19 70 63 115q70 70 204 70q87 0 149 -35
q61 -34 40 -131l-52 -244l-12 -61q-4 -28 0 -37t17 -16l-4 -21h-151q-5 25 0 62q-33 -29 -78 -53q-50 -26 -107 -26q-74 0 -110.5 42.5t-21.5 116.5q21 99 105 142q45 23 130 34zM276 619l25 116h127l-25 -116h-127zM208 805l15 74h347l-15 -74h-347z" />
    <glyph glyph-name="uni01E2" unicode="&#x1e2;" horiz-adv-x="1000" 
d="M430 271l69 324h-65l-180 -324h176zM-51 0l414 717h680l-27 -125h-370l-33 -155h333l-26 -123h-333l-40 -187h377l-26 -127h-525l32 152h-216l-84 -152h-156zM508 815l15 74h347l-15 -74h-347z" />
    <glyph glyph-name="uni01E3" unicode="&#x1e3;" horiz-adv-x="889" 
d="M501 321h217q8 53 -12.5 83t-70.5 30q-104 0 -134 -113zM345 201l11 53q-18 -11 -59 -19l-56 -11q-48 -9 -65 -20q-30 -17 -38 -58q-6 -26 8.5 -44.5t52.5 -18.5q43 0 74 16q55 29 72 102zM212 310l88 13q33 4 52 13q27 14 31 38q8 40 -28 53q-18 7 -54 7q-54 0 -82 -30
q-14 -17 -21 -46h-136q29 110 124 156q63 30 152 30q63 0 106 -22q24 -10 49 -35q81 57 170 57q163 0 191 -133q15 -72 -10 -180h-364q-12 -57 -5 -84q12 -54 82 -54q86 0 125 67h141q-16 -48 -69 -98q-88 -80 -215 -80q-64 0 -107.5 24.5t-59.5 64.5q-92 -89 -222 -89
q-98 0 -133 48q-34 47 -20 114q20 91 95 132q41 22 120 34zM343 633l16 74h347l-16 -74h-347z" />
    <glyph glyph-name="uni01E4" unicode="&#x1e4;" horiz-adv-x="825" 
d="M456 139h-85l21 98h154q7 13 12 29h-166l26 120h300l-32 -149h112l-21 -98h-112l-29 -139h-100l4 90q-55 -52 -94 -72q-67 -37 -155 -37q-143 0 -212 99q-74 102 -37 273q38 174 155 280q119 105 276 105q139 0 206 -70q69 -70 59 -173h-148q-2 74 -61 103q-33 16 -80 16
q-90 0 -158.5 -67.5t-95.5 -195.5q-28 -132 20 -188q49 -55 126 -55q63 0 115 31z" />
    <glyph glyph-name="uni01E5" unicode="&#x1e5;" horiz-adv-x="687" 
d="M378 533q45 -21 65 -77l17 76h135l-47 -217h130l-20 -98h-130l-41 -190q-23 -104 -68 -155q-78 -90 -247 -90q-105 0 -159.5 40.5t-44.5 119.5h151q1 -24 12 -35q19 -19 72 -19q75 0 111 50q22 32 39 108l8 35q-30 -37 -54 -52q-47 -31 -115 -31q-102 0 -148 72t-20 195
q26 119 101 199q77 81 185 81q40 0 68 -12zM387 217h-134l20 98h135q2 43 -13 69q-24 39 -78 39q-73 0 -115 -69q-24 -38 -34 -90q-10 -44 -2 -82q14 -68 88 -68q49 0 90 37q26 23 43 66z" />
    <glyph glyph-name="uni01E6" unicode="&#x1e6;" horiz-adv-x="778" 
d="M753 495h-148q-2 74 -61 103q-33 16 -80 16q-90 0 -159 -67.5t-96 -195.5q-28 -132 20 -188q49 -55 127 -55q74 0 132 43t85 115h-166l26 120h299l-82 -386h-99l4 90q-56 -52 -94 -72q-67 -37 -155 -37q-143 0 -212 99q-74 102 -37 273q38 174 155 280q118 105 276 105
q137 0 206 -70t59 -173zM566 802h-125l-84 146h113l47 -82l81 82h113z" />
    <glyph glyph-name="uni01E7" unicode="&#x1e7;" 
d="M407 269q16 74 -7.5 114t-78.5 40q-73 0 -115 -69q-24 -38 -34 -90q-10 -44 -2 -82q14 -68 87 -68q52 0 92.5 39t57.5 116zM382 533q45 -21 65 -77l17 76h135l-108 -505q-23 -104 -68 -155q-78 -90 -247 -90q-105 0 -159.5 40.5t-44.5 119.5h151q1 -24 12 -35
q19 -19 72 -19q75 0 111 50q22 32 39 108l8 35q-30 -37 -54 -52q-47 -31 -115 -31q-102 0 -148 72t-20 195q26 119 101 199q77 81 185 81q40 0 68 -12zM394 625h-125l-83 146h113l47 -83l80 83h114z" />
    <glyph glyph-name="uni01E8" unicode="&#x1e8;" horiz-adv-x="722" 
d="M19 0l153 720h148l-64 -297l341 297h195l-359 -297l221 -423h-193l-157 314l-86 -73l-51 -241h-148zM527 776h-125l-84 146h113l47 -83l81 83h113z" />
    <glyph glyph-name="uni01E9" unicode="&#x1e9;" horiz-adv-x="556" 
d="M3 0l152 717h137l-82 -387l216 200h172l-229 -204l124 -326h-168l-79 228l-71 -61l-35 -167h-137zM492 754h-125l-84 146h114l46 -82l81 82h113z" />
    <glyph glyph-name="uni01EA" unicode="&#x1ea;" horiz-adv-x="778" 
d="M605 361q26 120 -12 186.5t-128 66.5q-91 0 -157.5 -66.5t-92.5 -186.5q-26 -121 12.5 -187.5t129.5 -66.5q90 0 156 66.5t92 187.5zM583 64q-99 -84 -253 -84q-155 0 -218 84q-88 103 -47 297q42 198 173 297q99 84 254 84q154 0 217 -84q88 -99 46 -297
q-40 -193 -172 -297zM334 -9h88l-38 -24q-41 -25 -59.5 -42.5t-23.5 -38.5q-4 -22 9 -35t37 -13q18 0 51 11l-14 -70l-39 -12q-28 -6 -61 -6q-50 0 -77.5 28t-19.5 68q11 45 59 82q28 22 88 52z" />
    <glyph glyph-name="uni01EB" unicode="&#x1eb;" 
d="M426 265q17 80 -6.5 123.5t-84.5 43.5t-103 -43.5t-59 -123.5t6.5 -123.5t84.5 -43.5t103 43.5t59 123.5zM239 -19q-137 0 -187 83q-50 84 -24 201q24 115 109 199q85 85 223 85q137 0 186 -85q50 -84 26 -199q-26 -117 -111 -201q-86 -83 -222 -83zM217 -13h88l-38 -23
q-42 -27 -60 -44t-22 -37q-5 -23 7.5 -36t37.5 -13q18 0 52 12l-15 -71q-29 -9 -40 -11q-25 -7 -60 -7q-50 0 -77.5 28.5t-19.5 68.5q11 46 59 82q27 21 88 51z" />
    <glyph glyph-name="uni01EC" unicode="&#x1ec;" horiz-adv-x="778" 
d="M605 361q26 120 -12 186.5t-128 66.5q-91 0 -157.5 -66.5t-92.5 -186.5q-26 -121 12.5 -187.5t129.5 -66.5q90 0 156 66.5t92 187.5zM583 64q-99 -84 -253 -84q-155 0 -218 84q-88 103 -47 297q42 198 173 297q99 84 254 84q154 0 217 -84q88 -99 46 -297
q-40 -193 -172 -297zM325 -7h88l-38 -23q-43 -28 -61.5 -44.5t-21.5 -36.5q-5 -23 8 -36t38 -13q20 0 52 12l-15 -71q-28 -9 -39 -11q-27 -7 -61 -7q-51 0 -78 28.5t-18 68.5q9 45 58 82q27 21 88 51zM330 820l16 74h347l-16 -74h-347z" />
    <glyph glyph-name="uni01ED" unicode="&#x1ed;" 
d="M426 265q17 80 -6.5 123.5t-84.5 43.5t-103 -43.5t-59 -123.5t6.5 -123.5t84.5 -43.5t103 43.5t59 123.5zM239 -19q-137 0 -187 83q-50 84 -24 201q24 115 109 199q85 85 223 85q137 0 186 -85q50 -84 26 -199q-26 -117 -111 -201q-86 -83 -222 -83zM233 -8h88l-38 -23
q-43 -27 -61 -44t-22 -37q-5 -23 7.5 -36t37.5 -13q21 0 53 12l-15 -71q-29 -9 -40 -11q-25 -7 -61 -7q-50 0 -77 28.5t-18 68.5q9 45 58 82q27 21 88 51zM203 624l16 74h347l-16 -74h-347z" />
    <glyph glyph-name="uni01EE" unicode="&#x1ee;" horiz-adv-x="581" 
d="M148 358l276 232h-332l28 130h532l-24 -110l-180 -154q41 -20 64 -56q58 -38 30 -174q-26 -122 -123 -179q-98 -56 -225 -56q-128 0 -175 92q-29 56 -20 120h142q-4 -46 12 -70.5t61 -24.5q71 0 121 32t62 89q13 60 7 99q-16 22 -73 30l-2 -1zM473 799h-125l-83 146h113
l47 -82l80 82h114z" />
    <glyph glyph-name="uni01EF" unicode="&#x1ef;" horiz-adv-x="533" 
d="M107 168l229 232h-284l27 130h484l-23 -110l-181 -154q41 -20 64 -56q58 -43 29 -181q-26 -121 -108.5 -182.5t-212.5 -61.5q-129 0 -156 91q-29 58 -19 121h142q-5 -45 2 -68q8 -27 57 -27q122 0 149 130q13 60 10 106q-18 22 -74 30l-1 -1zM408 604h-125l-83 146h113
l46 -83l81 83h114z" />
    <glyph glyph-name="uni01F0" unicode="&#x1f0;" horiz-adv-x="278" 
d="M-101 -213l24 111q9 -1 15.5 -1.5t8.5 -0.5q41 0 52 49l124 585h139l-125 -587q-17 -82 -57 -119q-39 -39 -132 -39q-4 0 -10 0.5t-17.5 1t-21.5 0.5zM273 609h-125l-84 146h113l46 -83l82 83h113z" />
    <glyph glyph-name="uni01F1" unicode="&#x1f1;" horiz-adv-x="1256" 
d="M404 595h-139l-100 -470h139q106 0 170 105q37 60 53 137q23 112 1 169q-23 59 -124 59zM564 704q70 -25 103 -91q45 -93 15 -236q-32 -144 -110 -243q-107 -134 -269 -134h-310l153 720h310q67 -2 108 -16zM606 0l26 127l470 465h-362l28 128h550l-26 -121l-478 -472
h378l-26 -127h-560z" />
    <glyph glyph-name="uni01F2" unicode="&#x1f2;" horiz-adv-x="1153" 
d="M401 595h-138l-100 -470h138q107 0 171 105q37 60 53 137q23 112 1 169q-23 59 -125 59zM561 704q71 -26 104 -91q44 -97 15 -236q-32 -144 -110 -243q-107 -134 -269 -134h-310l153 720h310q68 -2 107 -16zM966 419h-255l24 113h432l-25 -115l-334 -303h279l-24 -114
h-459l22 108z" />
    <glyph glyph-name="uni01F3" unicode="&#x1f3;" horiz-adv-x="1083" 
d="M446 465l54 254h141l-152 -719h-135l15 74q-40 -48 -82.5 -69.5t-99.5 -21.5q-93 0 -141 75q-47 77 -22 194q29 137 108 215q80 78 184 78q97 0 130 -80zM406 258q21 98 -19 140q-25 25 -66 25q-58 0 -97 -44t-55 -116q-15 -77 5.5 -119.5t78.5 -42.5t98 42.5t55 114.5z
M902 424h-255l24 114h432l-25 -116l-334 -302h279l-24 -115h-459l23 109z" />
    <glyph glyph-name="uni01F4" unicode="&#x1f4;" horiz-adv-x="778" 
d="M753 495h-148q-2 74 -61 103q-33 16 -80 16q-90 0 -159 -67.5t-96 -195.5q-28 -132 20 -188q49 -55 127 -55q74 0 132 43t85 115h-166l26 120h299l-82 -386h-99l4 90q-56 -52 -94 -72q-67 -37 -155 -37q-143 0 -212 99q-74 102 -37 273q38 174 155 280q118 105 276 105
q137 0 206 -70t59 -173zM545 956h155l-179 -146h-101z" />
    <glyph glyph-name="uni01F5" unicode="&#x1f5;" 
d="M407 269q16 74 -7.5 114t-78.5 40q-73 0 -115 -69q-24 -38 -34 -90q-10 -44 -2 -82q14 -68 87 -68q52 0 92.5 39t57.5 116zM382 533q45 -21 65 -77l17 76h135l-108 -505q-23 -104 -68 -155q-78 -90 -247 -90q-105 0 -159.5 40.5t-44.5 119.5h151q1 -24 12 -35
q19 -19 72 -19q75 0 111 50q22 32 39 108l8 35q-30 -37 -54 -52q-47 -31 -115 -31q-102 0 -148 72t-20 195q26 119 101 199q77 81 185 81q40 0 68 -12zM395 772h155l-179 -146h-101z" />
    <glyph glyph-name="uni01F7" unicode="&#x1f7;" horiz-adv-x="667" 
d="M435 595h-140l-76 -359l160 98q67 37 101 70.5t45 86.5q22 104 -90 104zM366 210l-174 -98l-23 -112h-149l153 720h313q111 0 161.5 -57.5t26.5 -170.5q-27 -128 -102 -176q-78 -49 -206 -106z" />
    <glyph glyph-name="uni01F8" unicode="&#x1f8;" horiz-adv-x="722" 
d="M14 0l153 720h157l180 -503l107 503h140l-153 -720h-150l-186 511l-108 -511h-140zM500 923l63 -146h-101l-117 146h155z" />
    <glyph glyph-name="uni01F9" unicode="&#x1f9;" 
d="M563 358l-76 -358h-142l68 324q9 42 3 64q-12 41 -70 41q-70 0 -110 -60q-20 -31 -30 -81l-61 -288h-139l112 531h134l-16 -77q38 42 64 59q50 32 115 32q81 0 125 -44t23 -143zM415 769l62 -146h-100l-117 146h155z" />
    <glyph glyph-name="uni01FA" unicode="&#x1fa;" horiz-adv-x="685" 
d="M653 973l-149 -115h-99l101 115h147zM544 739q-8 -31 -28 -54l116 -685h-163l-21 159h-267l-89 -159h-159l409 683q-12 23 -5 56q8 42 43.5 70t80.5 28q46 0 68.5 -27.5t14.5 -70.5zM390 739q-5 -23 5.5 -38t33.5 -15t40 14.5t22 38.5q5 22 -5.5 37.5t-33.5 15.5
t-40 -14.5t-22 -38.5zM398 548l-151 -272h185l-32 272h-2z" />
    <glyph glyph-name="uni01FB" unicode="&#x1fb;" horiz-adv-x="574" 
d="M598 921l-153 -119h-98l104 119h147zM354 564q-48 0 -71.5 29.5t-13.5 75.5q10 45 47 75t83 30q48 0 72 -29.5t14 -75.5q-10 -45 -47.5 -75t-83.5 -30zM321 669q-6 -26 5.5 -42t37.5 -16t45 16.5t24 41.5q5 27 -6.5 42.5t-37.5 15.5t-44.5 -16.5t-23.5 -41.5zM206 358
h-142q13 47 42 82t68 54t81 28t88 9q34 0 63 -3t58 -13t47.5 -25.5t27 -42.5t0.5 -63l-57 -269q-20 -83 -6 -115h-144q-3 24 0 50q-76 -64 -187 -64q-79 0 -119 39.5t-25 115.5q8 38 28 66.5t42 44.5t56.5 27.5t59 15.5t61.5 8q42 5 61 8t41 10t31 17.5t12 27.5
q10 41 -11.5 55.5t-65.5 14.5q-88 0 -110 -78zM358 200l11 53q-21 -16 -91 -25q-30 -4 -46.5 -7.5t-37.5 -11.5t-32.5 -23.5t-16.5 -38.5q-7 -36 14 -51t59 -15q32 0 57 10t38.5 22t24 32t13.5 29.5t7 25.5z" />
    <glyph glyph-name="uni01FC" unicode="&#x1fc;" horiz-adv-x="981" 
d="M912 921l-184 -142h-99l126 142h157zM-71 0l492 714h606l-28 -132h-332l-32 -153h312l-26 -122h-312l-37 -175h340l-28 -132h-492l33 159h-224l-105 -159h-167zM481 582l-203 -306h172l65 306h-34z" />
    <glyph glyph-name="uni01FD" unicode="&#x1fd;" horiz-adv-x="907" 
d="M865 224h-369q-13 -56 11.5 -99.5t81.5 -43.5q88 0 120 81h138q-40 -82 -114.5 -129t-160.5 -47q-132 0 -175 88q-43 -45 -104.5 -66.5t-124.5 -21.5q-83 0 -130.5 37t-30.5 117q9 42 29.5 72t51.5 47t59.5 25t66.5 14q16 2 39 5.5t34.5 5t28.5 4.5t25 5.5t19.5 6t17 7.5
t11.5 9.5t9 12.5t5 16q8 37 -14.5 51.5t-63.5 14.5q-95 0 -116 -80h-142q15 62 61 103t100.5 56.5t119.5 15.5q52 0 96 -16.5t60 -53.5q76 70 188 70q62 0 104 -25.5t59.5 -68t21 -98t-11.5 -115.5zM515 314h227q10 51 -11.5 86.5t-73.5 35.5t-92 -36t-50 -86zM364 188
l14 64q-19 -13 -58 -20.5t-71.5 -11t-61.5 -21t-36 -51.5q-7 -36 14.5 -51.5t59.5 -15.5q44 0 86 27.5t53 79.5zM755 731l-184 -142h-99l126 142h157z" />
    <glyph glyph-name="uni01FE" unicode="&#x1fe;" horiz-adv-x="778" 
d="M720 921l-184 -142h-99l126 142h157zM-24 10l106 95q-61 102 -29 249q36 164 153 270.5t278 106.5q135 0 209 -77l98 89l41 -44l-104 -93q58 -102 27 -252q-36 -160 -152.5 -265.5t-277.5 -105.5q-131 0 -207 76l-103 -92zM209 219l366 329q-39 51 -119 51
q-99 0 -161 -70t-85 -175q-17 -74 -1 -135zM600 490l-365 -326q40 -49 118 -49q98 0 160.5 69.5t84.5 169.5q18 77 2 136z" />
    <glyph glyph-name="uni01FF" unicode="&#x1ff;" 
d="M592 731l-184 -142h-99l126 142h157zM-16 1l74 68q-50 71 -26 189q26 124 114.5 198.5t210.5 74.5q96 0 153 -48l66 61l30 -32l-67 -61q54 -72 28 -193q-26 -123 -115 -197.5t-210 -74.5q-96 0 -155 50l-73 -67zM171 172l240 220q-24 32 -76 32q-66 0 -105.5 -47
t-55.5 -119q-12 -54 -3 -86zM429 349l-243 -222q24 -34 78 -34q67 0 107 47.5t54 117.5q11 52 4 91z" />
    <glyph glyph-name="uni0200" unicode="&#x200;" horiz-adv-x="722" 
d="M423 555l-153 -283h183zM-35 0l410 720h170l102 -720h-163l-15 148h-266l-80 -148h-158zM382 929l43 -142h-96l-89 142h142zM454 929h142l43 -142h-95z" />
    <glyph glyph-name="uni0201" unicode="&#x201;" horiz-adv-x="556" 
d="M341 207l12 52q-28 -17 -68 -23l-33 -6q-41 -7 -67 -19q-38 -20 -45 -59q-8 -34 7.5 -51t45.5 -17q45 0 89 26q44 27 59 97zM234 318l48 6q38 4 58 12q34 14 38 39q7 32 -12 45t-64 13q-50 0 -76 -24q-18 -18 -30 -49h-134q19 70 63 115q70 70 204 70q87 0 149 -35
q61 -34 40 -131l-52 -244l-12 -61q-4 -28 0 -37t17 -16l-4 -21h-151q-5 25 0 62q-33 -29 -78 -53q-50 -26 -107 -26q-74 0 -110.5 42.5t-21.5 116.5q21 99 105 142q45 23 130 34zM270 765l43 -142h-95l-90 142h142zM343 765h142l43 -142h-96z" />
    <glyph glyph-name="uni0202" unicode="&#x202;" horiz-adv-x="722" 
d="M423 555l-153 -283h183zM-35 0l410 720h170l102 -720h-163l-15 148h-266l-80 -148h-158zM504 916q156 0 137 -145h-66q3 45 -34 61q-20 9 -53 9q-34 0 -58 -9q-43 -16 -60 -61h-66q45 145 200 145z" />
    <glyph glyph-name="uni0203" unicode="&#x203;" horiz-adv-x="556" 
d="M341 207l12 52q-28 -17 -68 -23l-33 -6q-41 -7 -67 -19q-38 -20 -45 -59q-8 -34 7.5 -51t45.5 -17q45 0 89 26q44 27 59 97zM234 318l48 6q38 4 58 12q34 14 38 39q7 32 -12 45t-64 13q-50 0 -76 -24q-18 -18 -30 -49h-134q19 70 63 115q70 70 204 70q87 0 149 -35
q61 -34 40 -131l-52 -244l-12 -61q-4 -28 0 -37t17 -16l-4 -21h-151q-5 25 0 62q-33 -29 -78 -53q-50 -26 -107 -26q-74 0 -110.5 42.5t-21.5 116.5q21 99 105 142q45 23 130 34zM376 765q157 0 138 -145h-66q3 45 -34 61q-20 9 -54 9q-33 0 -57 -9q-44 -17 -60 -61h-66
q42 145 199 145z" />
    <glyph glyph-name="uni0204" unicode="&#x204;" horiz-adv-x="667" 
d="M701 720l-28 -128h-380l-32 -153h349l-27 -125h-349l-39 -185h398l-27 -129h-545l153 720h527zM373 940l43 -142h-96l-89 142h142zM446 940h142l42 -142h-95z" />
    <glyph glyph-name="uni0205" unicode="&#x205;" horiz-adv-x="556" 
d="M174 319h216q8 55 -15 84t-69 29q-94 0 -132 -113zM516 443q22 -45 17 -110q-3 -37 -18 -105h-364q-14 -82 26 -113q26 -20 66 -20q44 0 75 25q16 14 33 36h143q-17 -48 -71 -96q-84 -78 -207 -78q-101 0 -166 65q-63 66 -32 214q28 136 115 211q86 74 198 74
q141 0 185 -103zM275 774l43 -143h-96l-89 143h142zM347 774h142l43 -143h-96z" />
    <glyph glyph-name="uni0206" unicode="&#x206;" horiz-adv-x="667" 
d="M701 720l-28 -128h-380l-32 -153h349l-27 -125h-349l-39 -185h398l-27 -129h-545l153 720h527zM490 943q156 0 137 -145h-66q3 45 -34 61q-20 9 -53 9q-34 0 -58 -9q-44 -17 -60 -61h-66q42 145 200 145z" />
    <glyph glyph-name="uni0207" unicode="&#x207;" horiz-adv-x="556" 
d="M174 319h216q8 55 -15 84t-69 29q-94 0 -132 -113zM516 443q22 -45 17 -110q-3 -37 -18 -105h-364q-14 -82 26 -113q26 -20 66 -20q44 0 75 25q16 14 33 36h143q-17 -48 -71 -96q-84 -78 -207 -78q-101 0 -166 65q-63 66 -32 214q28 136 115 211q86 74 198 74
q141 0 185 -103zM393 763q156 0 137 -145h-65q1 45 -34 61q-21 9 -54 9t-58 -9q-44 -17 -60 -61h-65q42 145 199 145z" />
    <glyph glyph-name="uni0208" unicode="&#x208;" horiz-adv-x="278" 
d="M307 720l-153 -720h-150l153 720h150zM171 945l43 -142h-96l-89 142h142zM244 945h142l42 -142h-95z" />
    <glyph glyph-name="uni0209" unicode="&#x209;" horiz-adv-x="278" 
d="M7 0l113 532h141l-113 -532h-141zM132 770l43 -143h-96l-89 143h142zM205 770h142l42 -143h-95z" />
    <glyph glyph-name="uni020A" unicode="&#x20a;" horiz-adv-x="278" 
d="M307 720l-153 -720h-150l153 720h150zM281 948q156 0 138 -145h-66q3 45 -34 61q-21 9 -54 9t-58 -9q-43 -16 -59 -61h-66q42 145 199 145z" />
    <glyph glyph-name="uni020B" unicode="&#x20b;" horiz-adv-x="278" 
d="M7 0l113 532h141l-113 -532h-141zM247 773q155 0 138 -145h-66q3 45 -34 61q-21 9 -54 9t-58 -9q-43 -16 -59 -61h-66q42 145 199 145z" />
    <glyph glyph-name="uni020C" unicode="&#x20c;" horiz-adv-x="778" 
d="M605 361q26 120 -12 186.5t-128 66.5q-91 0 -157.5 -66.5t-92.5 -186.5q-26 -121 12.5 -187.5t129.5 -66.5q90 0 156 66.5t92 187.5zM583 64q-99 -84 -253 -84q-155 0 -218 84q-88 103 -47 297q42 198 173 297q99 84 254 84q154 0 217 -84q88 -99 46 -297
q-40 -193 -172 -297zM417 962l43 -142h-96l-89 142h142zM489 962h142l43 -142h-96z" />
    <glyph glyph-name="uni020D" unicode="&#x20d;" 
d="M426 265q17 80 -6.5 123.5t-84.5 43.5t-103 -43.5t-59 -123.5t6.5 -123.5t84.5 -43.5t103 43.5t59 123.5zM239 -19q-137 0 -187 83q-50 84 -24 201q24 115 109 199q85 85 223 85q137 0 186 -85q50 -84 26 -199q-26 -117 -111 -201q-86 -83 -222 -83zM288 777l42 -143h-96
l-88 143h142zM360 777h142l42 -143h-95z" />
    <glyph glyph-name="uni020E" unicode="&#x20e;" horiz-adv-x="778" 
d="M605 361q26 120 -12 186.5t-128 66.5q-91 0 -157.5 -66.5t-92.5 -186.5q-26 -121 12.5 -187.5t129.5 -66.5q90 0 156 66.5t92 187.5zM583 64q-99 -84 -253 -84q-155 0 -218 84q-88 103 -47 297q42 198 173 297q99 84 254 84q154 0 217 -84q88 -99 46 -297
q-40 -193 -172 -297zM535 960q156 0 137 -145h-66q1 45 -34 61q-20 9 -53 9q-34 0 -58 -9q-44 -17 -60 -61h-66q45 145 200 145z" />
    <glyph glyph-name="uni020F" unicode="&#x20f;" 
d="M426 265q17 80 -6.5 123.5t-84.5 43.5t-103 -43.5t-59 -123.5t6.5 -123.5t84.5 -43.5t103 43.5t59 123.5zM239 -19q-137 0 -187 83q-50 84 -24 201q24 115 109 199q85 85 223 85q137 0 186 -85q50 -84 26 -199q-26 -117 -111 -201q-86 -83 -222 -83zM405 773
q156 0 137 -146h-66q1 45 -34 61q-19 10 -53 10t-58 -10q-44 -17 -60 -61h-66q45 146 200 146z" />
    <glyph glyph-name="uni0210" unicode="&#x210;" horiz-adv-x="722" 
d="M467 595h-174l-41 -194h170q51 0 78 12q50 21 63 81q13 66 -25 88q-22 13 -71 13zM696 651q39 -58 22 -136q-10 -53 -48 -102q-36 -49 -99 -69q45 -21 57.5 -57.5t-3.5 -112.5l-10 -48q-10 -47 -10 -67q0 -27 18 -41l-3 -18h-165q-2 32 -2 39q0 33 7 62l13 66
q14 68 -5.5 91.5t-86.5 23.5h-155l-59 -282h-147l153 720h353q72 -2 110 -18.5t60 -50.5zM362 944l42 -142h-95l-89 142h142zM434 944h142l43 -142h-96z" />
    <glyph glyph-name="uni0211" unicode="&#x211;" horiz-adv-x="389" 
d="M428 544l-30 -143q-19 3 -40 3q-84 0 -124 -55q-24 -34 -37 -95l-53 -254h-141l113 532h133l-20 -93q42 52 71 73q46 33 109 33q1 0 6 -0.5t13 -0.5zM209 799l43 -143h-96l-89 143h142zM281 799h142l43 -143h-95z" />
    <glyph glyph-name="uni0212" unicode="&#x212;" horiz-adv-x="722" 
d="M467 595h-174l-41 -194h170q51 0 78 12q50 21 63 81q13 66 -25 88q-22 13 -71 13zM696 651q39 -58 22 -136q-10 -53 -48 -102q-36 -49 -99 -69q45 -21 57.5 -57.5t-3.5 -112.5l-10 -48q-10 -47 -10 -67q0 -27 18 -41l-3 -18h-165q-2 32 -2 39q0 33 7 62l13 66
q14 68 -5.5 91.5t-86.5 23.5h-155l-59 -282h-147l153 720h353q72 -2 110 -18.5t60 -50.5zM490 942q156 0 137 -145h-66q1 45 -34 61q-20 9 -53 9q-34 0 -58 -9q-44 -17 -60 -61h-66q42 145 200 145z" />
    <glyph glyph-name="uni0213" unicode="&#x213;" horiz-adv-x="389" 
d="M428 544l-30 -143q-19 3 -40 3q-84 0 -124 -55q-24 -34 -37 -95l-53 -254h-141l113 532h133l-20 -93q42 52 71 73q46 33 109 33q1 0 6 -0.5t13 -0.5zM316 764q156 0 138 -145h-66q3 45 -34 61q-20 9 -54 9q-33 0 -57 -9q-44 -17 -60 -61h-66q42 145 199 145z" />
    <glyph glyph-name="uni0214" unicode="&#x214;" horiz-adv-x="722" 
d="M74 277l95 443h153l-95 -443q-15 -74 -5 -108q13 -61 106 -61q91 0 131 61q26 35 41 108l95 443h153l-95 -443q-24 -114 -73 -178q-91 -118 -279 -118t-228 118q-23 65 1 178zM393 953l43 -143h-96l-89 143h142zM465 953h142l43 -143h-96z" />
    <glyph glyph-name="uni0215" unicode="&#x215;" 
d="M114 532h143l-69 -321q-9 -44 -4 -68q10 -40 66 -40q70 0 111 57q20 32 30 83l62 289h142l-113 -532h-136l15 75l-6 -7q-6 -8 -13.5 -16t-15.5 -13q-68 -51 -146 -51q-119 0 -141 85q-13 47 6 138zM291 774l43 -142h-96l-89 142h142zM363 774h142l43 -142h-96z" />
    <glyph glyph-name="uni0216" unicode="&#x216;" horiz-adv-x="722" 
d="M74 277l95 443h153l-95 -443q-15 -74 -5 -108q13 -61 106 -61q91 0 131 61q26 35 41 108l95 443h153l-95 -443q-24 -114 -73 -178q-91 -118 -279 -118t-228 118q-23 65 1 178zM515 950q156 0 138 -145h-65q1 45 -34 61q-23 9 -55 9q-33 0 -57 -9q-44 -17 -60 -61h-65
q41 145 198 145z" />
    <glyph glyph-name="uni0217" unicode="&#x217;" 
d="M114 532h143l-69 -321q-9 -44 -4 -68q10 -40 66 -40q70 0 111 57q20 32 30 83l62 289h142l-113 -532h-136l15 75l-6 -7q-6 -8 -13.5 -16t-15.5 -13q-68 -51 -146 -51q-119 0 -141 85q-13 47 6 138zM414 766q156 0 137 -146h-65q3 45 -34 61q-21 9 -54 9q-32 0 -58 -9
q-44 -17 -60 -61h-65q42 146 199 146z" />
    <glyph glyph-name="uni0218" unicode="&#x218;" horiz-adv-x="649" 
d="M14 237h152q-15 -67 23 -99.5t107 -32.5q54 0 100.5 20t57.5 69q3 16 0 29t-13.5 23t-22 17.5t-32 14.5t-36 11.5t-42 11t-41.5 11.5q-43 11 -73.5 24.5t-59 36.5t-38 58.5t0.5 83.5q23 103 114.5 159.5t198.5 56.5q58 0 105 -13t82 -39.5t49 -72t1 -105.5h-152
q9 60 -23 84t-95 24q-43 0 -80 -20t-45 -61q-9 -39 22.5 -55.5t167.5 -52.5q93 -24 132 -62q54 -55 36 -146q-23 -102 -113 -165.5t-233 -63.5q-130 0 -204 65t-46 189zM156 -143l20 93h145l-16 -73q-11 -57 -49.5 -75.5t-105.5 -18.5l8 37q49 4 65 37h-67z" />
    <glyph glyph-name="uni0219" unicode="&#x219;" horiz-adv-x="537" 
d="M4 168h135q-9 -43 18.5 -65t72.5 -22q36 0 68 16t39 50q3 16 -4.5 27.5t-29.5 21t-44.5 15.5t-65.5 16q-74 18 -110.5 47t-24.5 91q10 47 36 81t63.5 52t76.5 25.5t84 7.5q95 0 149.5 -38.5t43.5 -126.5h-135q6 39 -16.5 54.5t-65.5 15.5q-80 0 -89 -48q-2 -11 0.5 -19.5
t11 -15t17 -11.5t24.5 -9.5t27.5 -7t32.5 -7t32 -7.5q73 -17 109.5 -48.5t23.5 -96.5q-20 -94 -97 -137t-177 -43q-47 0 -86 9.5t-70 30t-44.5 57t-4.5 85.5zM101 -143l20 93h145l-16 -73q-11 -57 -49.5 -75.5t-105.5 -18.5l8 37q49 4 65 37h-67z" />
    <glyph glyph-name="uni021A" unicode="&#x21a;" 
d="M167 0l123 582h-214l28 132h585l-28 -132h-214l-123 -582h-157zM142 -143l20 93h145l-16 -73q-11 -57 -49.5 -75.5t-105.5 -18.5l8 37q49 4 65 37h-67z" />
    <glyph glyph-name="uni021B" unicode="&#x21b;" horiz-adv-x="352" 
d="M316 672l-33 -155h104l-20 -95h-104l-54 -256q-8 -36 1.5 -48t45.5 -12q28 0 45 4l-24 -111q-31 -5 -84 -5q-77 0 -114 25.5t-23 97.5l65 305h-86l20 95h86l33 155h142zM50 -143l20 93h145l-16 -73q-11 -57 -49.5 -75.5t-105.5 -18.5l8 37q49 4 65 37h-67z" />
    <glyph glyph-name="uni021C" unicode="&#x21c;" horiz-adv-x="664" 
d="M509 355h3v1q-1 -1 -3 -1zM296 102q69 0 115 37q40 28 51 82q21 97 -117 97q-2 0 -29 -2t-39 -2l27 127q112 1 151 20q39 16 49 65q10 40 -14 65v-1q-26 26 -84 26q-27 0 -55 -11q-27 -11 -111 -81v1l-79 95q105 83 160 102q54 19 118 19q117 0 173 -62t35 -160
q-17 -75 -91 -133q34 -26 47 -59q15 -42 1 -110q-22 -97 -113 -169q-98 -70 -210 -70q-66 0 -117 20q-47 18 -131 59l118 87q83 -42 145 -42z" />
    <glyph glyph-name="uni021D" unicode="&#x21d;" horiz-adv-x="664" 
d="M465 146h3v2zM252 -106q68 0 115 36q40 28 51 83q21 96 -117 96q-43 0 -68 -4l27 128q115 2 151 19q39 17 49 65q7 40 -14 66v-1q-31 26 -84 26q-28 0 -56 -12q-27 -10 -110 -80l-79 95q105 84 160 102q54 19 118 19q118 0 172 -62q57 -60 35 -160q-15 -75 -91 -133
q35 -26 48 -59q13 -43 0 -110q-20 -98 -113 -168q-95 -70 -209 -70q-66 0 -117 20q-33 13 -132 58l119 87q84 -41 145 -41z" />
    <glyph glyph-name="uni021E" unicode="&#x21e;" horiz-adv-x="722" 
d="M164 0h-149l153 720h149l-59 -275h281l59 275h150l-153 -720h-150l68 321h-281zM524 774h-125l-84 146h113l46 -83l82 83h113z" />
    <glyph glyph-name="uni021F" unicode="&#x21f;" 
d="M555 477q16 -28 14 -62q-1 -28 -17 -103l-66 -312h-142l68 324q10 44 0 69q-10 37 -64 37q-55 0 -91.5 -37t-50.5 -105l-61 -288h-139l152 717h139l-54 -254q72 83 171 83q104 0 141 -69zM483 771h-125l-84 146h113l47 -82l81 82h113z" />
    <glyph glyph-name="uni0220" unicode="&#x220;" horiz-adv-x="722" 
d="M685 424l-136 -636h-153l136 636q15 74 5 108q-13 61 -106 61q-91 0 -131 -61q-26 -35 -41 -108l-91 -425h-153l91 425l2 11l61 285h150l-5 -23q64 23 144 23q187 0 229 -117q22 -63 -2 -179z" />
    <glyph glyph-name="uni0226" unicode="&#x226;" horiz-adv-x="722" 
d="M423 555l-153 -283h183zM-35 0l410 720h170l102 -720h-163l-15 148h-266l-80 -148h-158zM418 803l25 115h127l-25 -115h-127z" />
    <glyph glyph-name="uni0227" unicode="&#x227;" horiz-adv-x="556" 
d="M341 207l12 52q-28 -17 -68 -23l-33 -6q-41 -7 -67 -19q-38 -20 -45 -59q-8 -34 7.5 -51t45.5 -17q45 0 89 26q44 27 59 97zM234 318l48 6q38 4 58 12q34 14 38 39q7 32 -12 45t-64 13q-50 0 -76 -24q-18 -18 -30 -49h-134q19 70 63 115q70 70 204 70q87 0 149 -35
q61 -34 40 -131l-52 -244l-12 -61q-4 -28 0 -37t17 -16l-4 -21h-151q-5 25 0 62q-33 -29 -78 -53q-50 -26 -107 -26q-74 0 -110.5 42.5t-21.5 116.5q21 99 105 142q45 23 130 34zM290 632l24 116h127l-24 -116h-127z" />
    <glyph glyph-name="uni0228" unicode="&#x228;" horiz-adv-x="667" 
d="M701 720l-28 -128h-380l-32 -153h349l-27 -125h-349l-39 -185h398l-27 -129h-545l153 720h527zM382 -133q-9 -44 -50.5 -70.5t-100.5 -26.5q-27 0 -58 10q-4 1 -42 16l27 42l37 -11q21 -6 36 -6q27 0 43.5 11.5t19.5 27.5q3 19 -7.5 28t-28.5 9q-16 0 -43 -8l-51 57
l113 54h53l-57 -64q34 6 39 6q40 0 59 -20t11 -55z" />
    <glyph glyph-name="uni0229" unicode="&#x229;" horiz-adv-x="556" 
d="M174 319h216q8 55 -15 84t-69 29q-94 0 -132 -113zM516 443q22 -45 17 -110q-3 -37 -18 -105h-364q-14 -82 26 -113q26 -20 66 -20q44 0 75 25q16 14 33 36h143q-17 -48 -71 -96q-84 -78 -207 -78q-101 0 -166 65q-63 66 -32 214q28 136 115 211q86 74 198 74
q141 0 185 -103zM303 -145q-10 -44 -52 -70.5t-100 -26.5q-23 0 -58 11q-15 5 -42 15l28 42l35 -11q25 -5 37 -5q27 0 43.5 11t19.5 27q5 19 -6.5 28t-30.5 9q-16 0 -43 -8l-51 57l113 54h53l-56 -64q28 6 39 6q41 0 60 -19.5t11 -55.5z" />
    <glyph glyph-name="uni022A" unicode="&#x22a;" horiz-adv-x="778" 
d="M605 361q26 120 -12 186.5t-128 66.5q-91 0 -157.5 -66.5t-92.5 -186.5q-26 -121 12.5 -187.5t129.5 -66.5q90 0 156 66.5t92 187.5zM583 64q-99 -84 -253 -84q-155 0 -218 84q-88 103 -47 297q42 198 173 297q99 84 254 84q154 0 217 -84q88 -99 46 -297
q-40 -193 -172 -297zM534 805l24 115h128l-24 -115h-128zM339 805l24 115h127l-24 -115h-127zM364 971l16 74h347l-16 -74h-347z" />
    <glyph glyph-name="uni022B" unicode="&#x22b;" 
d="M426 265q17 80 -6.5 123.5t-84.5 43.5t-103 -43.5t-59 -123.5t6.5 -123.5t84.5 -43.5t103 43.5t59 123.5zM239 -19q-137 0 -187 83q-50 84 -24 201q24 115 109 199q85 85 223 85q137 0 186 -85q50 -84 26 -199q-26 -117 -111 -201q-86 -83 -222 -83zM408 615l25 115h128
l-25 -115h-128zM213 615l25 115h128l-25 -115h-128zM234 784l16 74h347l-16 -74h-347z" />
    <glyph glyph-name="uni022C" unicode="&#x22c;" horiz-adv-x="778" 
d="M605 361q26 120 -12 186.5t-128 66.5q-91 0 -157.5 -66.5t-92.5 -186.5q-26 -121 12.5 -187.5t129.5 -66.5q90 0 156 66.5t92 187.5zM583 64q-99 -84 -253 -84q-155 0 -218 84q-88 103 -47 297q42 198 173 297q99 84 254 84q154 0 217 -84q88 -99 46 -297
q-40 -193 -172 -297zM509 896l42 -17q33 -11 39 -11q36 0 56 42h65q-48 -120 -137 -120q-17 0 -41 7l-29 9l-36 13q-15 5 -31 5q-19 0 -33 -11t-23 -30h-64q25 54 44 76q42 46 103 46q25 0 45 -9zM369 959l16 74h347l-16 -74h-347z" />
    <glyph glyph-name="uni022D" unicode="&#x22d;" 
d="M426 265q17 80 -6.5 123.5t-84.5 43.5t-103 -43.5t-59 -123.5t6.5 -123.5t84.5 -43.5t103 43.5t59 123.5zM239 -19q-137 0 -187 83q-50 84 -24 201q24 115 109 199q85 85 223 85q137 0 186 -85q50 -84 26 -199q-26 -117 -111 -201q-86 -83 -222 -83zM386 731l42 -17
q31 -11 39 -11q21 0 33 10.5t23 31.5h65q-48 -120 -138 -120q-17 0 -41 7l-28 9l-37 13q-14 5 -31 5t-33 -11q-15 -12 -22 -30h-64q21 50 44 76q40 46 103 46q20 0 45 -9zM241 806l16 74h348l-16 -74h-348z" />
    <glyph glyph-name="uni022E" unicode="&#x22e;" horiz-adv-x="778" 
d="M605 361q26 120 -12 186.5t-128 66.5q-91 0 -157.5 -66.5t-92.5 -186.5q-26 -121 12.5 -187.5t129.5 -66.5q90 0 156 66.5t92 187.5zM583 64q-99 -84 -253 -84q-155 0 -218 84q-88 103 -47 297q42 198 173 297q99 84 254 84q154 0 217 -84q88 -99 46 -297
q-40 -193 -172 -297zM441 816l25 116h127l-25 -116h-127z" />
    <glyph glyph-name="uni022F" unicode="&#x22f;" 
d="M426 265q17 80 -6.5 123.5t-84.5 43.5t-103 -43.5t-59 -123.5t6.5 -123.5t84.5 -43.5t103 43.5t59 123.5zM239 -19q-137 0 -187 83q-50 84 -24 201q24 115 109 199q85 85 223 85q137 0 186 -85q50 -84 26 -199q-26 -117 -111 -201q-86 -83 -222 -83zM313 632l24 116h127
l-24 -116h-127z" />
    <glyph glyph-name="uni0230" unicode="&#x230;" horiz-adv-x="778" 
d="M605 361q26 120 -12 186.5t-128 66.5q-91 0 -157.5 -66.5t-92.5 -186.5q-26 -121 12.5 -187.5t129.5 -66.5q90 0 156 66.5t92 187.5zM583 64q-99 -84 -253 -84q-155 0 -218 84q-88 103 -47 297q42 198 173 297q99 84 254 84q154 0 217 -84q88 -99 46 -297
q-40 -193 -172 -297zM436 794l25 116h127l-25 -116h-127zM367 958l16 74h347l-16 -74h-347z" />
    <glyph glyph-name="uni0231" unicode="&#x231;" 
d="M426 265q17 80 -6.5 123.5t-84.5 43.5t-103 -43.5t-59 -123.5t6.5 -123.5t84.5 -43.5t103 43.5t59 123.5zM239 -19q-137 0 -187 83q-50 84 -24 201q24 115 109 199q85 85 223 85q137 0 186 -85q50 -84 26 -199q-26 -117 -111 -201q-86 -83 -222 -83zM312 608l24 116h127
l-24 -116h-127zM235 775l16 75h347l-16 -75h-347z" />
    <glyph glyph-name="uni0232" unicode="&#x232;" horiz-adv-x="667" 
d="M370 406l210 314h170l-336 -449l-57 -271h-151l57 271l-153 449h177zM271 789l16 74h347l-16 -74h-347z" />
    <glyph glyph-name="uni0233" unicode="&#x233;" horiz-adv-x="556" 
d="M-20 -213l24 111l18 -1q49 -2 72 13q14 7 31 35q16 25 16 32l-78 555h155l32 -392l194 392h148l-295 -523q-85 -153 -123 -188q-38 -36 -130 -36q-43 0 -64 2zM176 621l16 74h348l-16 -74h-348z" />
    <glyph glyph-name="uni0237" unicode="&#x237;" horiz-adv-x="278" 
d="M-116 -178l25 117q8 -4 30 -4q54 0 63 46l114 536h142l-115 -543q-19 -83 -65 -119.5t-149 -36.5q-25 0 -45 4z" />
    <glyph glyph-name="uni0238" unicode="&#x238;" horiz-adv-x="961" 
d="M927 273q-27 -124 -103 -206q-75 -81 -180 -81q-66 0 -101 26q-21 16 -40 53l-13 -65h-137l14 70q-38 -45 -79 -65q-43 -22 -100 -22q-93 0 -141 75q-47 77 -22 194q29 137 108 215t184 78q97 0 130 -80l54 254h143l-54 -256q35 38 70 57q42 24 101 24q105 0 148 -76
q43 -75 18 -195zM406 251l1 7q21 98 -19 140q-25 25 -66 25q-58 0 -97 -44t-55 -116q-15 -76 5 -119t78 -43q60 0 99 44q39 40 54 106zM777 258q12 57 6 94q-13 70 -88 70q-76 0 -118 -68q-12 -19 -22 -47l-19 -89q-2 -43 13 -72q19 -45 82 -45q53 0 92 42.5t54 114.5z" />
    <glyph glyph-name="uni0239" unicode="&#x239;" horiz-adv-x="963" 
d="M928 273q-30 -142 -109 -215t-179 -73q-63 0 -98 32q-19 16 -34 51l-59 -277h-5v-2h-138l59 277q-56 -83 -175 -83q-92 0 -142 74q-49 72 -23 197q28 132 111 212t178 80q66 0 101 -33q20 -18 36 -61l16 79h1l1 1h133l-17 -78q29 34 59 54q56 36 119 36q93 0 143 -69
q50 -70 22 -202zM370 164q27 38 41 103q10 46 2 87q-15 69 -90 69q-55 0 -94.5 -41.5t-56.5 -121.5q-12 -56 -5 -91q13 -66 87 -66q73 0 116 61zM696 422q-75 0 -119 -71q-21 -36 -35 -97q-19 -92 22 -130q23 -22 64 -22q58 0 98.5 44t56.5 120q14 62 -6 109q-18 47 -81 47z
" />
    <glyph glyph-name="uni023A" unicode="&#x23a;" horiz-adv-x="722" 
d="M423 555l-153 -283h183zM-35 0l410 720h170l102 -720h-163l-15 148h-266l-80 -148h-158zM155 -105l482 952h116l-483 -952h-115z" />
    <glyph glyph-name="uni023B" unicode="&#x23b;" horiz-adv-x="722" 
d="M528 729l59 115h116l-74 -147q51 -31 76 -83q33 -66 22 -134h-150q-5 52 -20 76l-227 -446h9q80 0 132 52q29 27 56 83h149q-47 -119 -142 -192t-221 -73q-18 0 -48 2l-43 -85h-115l58 115q-44 23 -74 68q-68 102 -31 274q41 188 163 291q106 88 242 88q38 0 63 -4z
M443 605q-82 0 -143 -66.5t-87 -186.5q-26 -122 12 -182q5 -10 12 -17l228 451q-7 1 -22 1z" />
    <glyph glyph-name="uni023C" unicode="&#x23c;" horiz-adv-x="556" 
d="M387 542l60 102h115l-78 -135l12 -9q54 -45 41 -159h-142v19l-155 -262h8q83 0 115 95h142q-19 -65 -72 -120q-86 -92 -214 -92q-25 0 -46 3l-47 -82h-115l69 118q-19 15 -33 38q-43 76 -18 197q29 138 111.5 214t200.5 76q23 0 46 -3zM209 357q-21 -37 -34 -98
q-12 -57 -8 -90l152 258q-70 0 -110 -70z" />
    <glyph glyph-name="uni023D" unicode="&#x23d;" 
d="M550 129l-27 -129h-507l69 325l-84 -2l20 95h83l65 302h151l-65 -302h148l-19 -91l-148 -1l-42 -197h356z" />
    <glyph glyph-name="uni023E" unicode="&#x23e;" 
d="M517 720l85 124h116l-86 -124h60l-28 -128h-120l-137 -199l-83 -393h-152l15 75l-121 -178h-115l288 420l58 275h-216l28 128h408z" />
    <glyph glyph-name="uni0241" unicode="&#x241;" 
d="M243 690q65 37 150 37q110 0 172 -53t40 -156q-13 -62 -55 -107q-27 -29 -85 -67l-41 -27q-33 -23 -48 -51q-9 -17 -62 -266h-132q65 293 83 322q21 33 81 73l41 27q21 14 35 29q24 25 32 59q8 38 -7 67q-15 31 -73 31q-56 0 -88 -38q-32 -39 -41 -77h-141
q36 139 139 197z" />
    <glyph glyph-name="uni0242" unicode="&#x242;" 
d="M205 512q65 37 150 37q110 0 172 -53t40 -156q-13 -62 -55 -107q-27 -29 -85 -67l-41 -27q-33 -23 -48 -51q1 22 -12 -33q-5 -21 -12 -55h-132q27 114 46 144q21 33 81 73l41 28q23 16 35 28q23 26 31 60q8 38 -7 67q-15 31 -73 31q-56 0 -88 -38t-41 -78h-141
q36 139 139 197z" />
    <glyph glyph-name="uni0243" unicode="&#x243;" horiz-adv-x="763" 
d="M744 643q23 -48 10 -110q-13 -65 -56 -106q-21 -21 -63 -41q102 -41 76 -169q-13 -63 -58 -114q-27 -35 -63 -57q-70 -46 -193 -46h-326l36 170h-103l21 99h103l96 451h349q132 -1 171 -77zM271 269h101l-21 -99h-101l-10 -45h177q50 0 77 13q54 23 67 90q12 56 -31 77
q-22 11 -69 12h-180zM499 595h-159l-34 -159h177q108 0 124 81q11 50 -25 66q-32 12 -83 12z" />
    <glyph glyph-name="uni0244" unicode="&#x244;" horiz-adv-x="832" 
d="M756 513h97l-21 -98h-97l-30 -138q-24 -114 -73 -178q-93 -118 -280 -118t-227 118q-23 65 1 178l30 138h-100l21 98h100l44 207h153l-44 -207h273l44 207h153zM273 169q15 -61 106 -61q92 0 132 61q26 35 41 108l30 138h-273l-30 -138q-15 -73 -6 -108z" />
    <glyph glyph-name="uni0245" unicode="&#x245;" horiz-adv-x="667" 
d="M438 0l-42 546l-272 -546h-161l396 720h142l93 -720h-156z" />
    <glyph glyph-name="uni0246" unicode="&#x246;" horiz-adv-x="667" 
d="M476 720l62 124h116l-63 -124h110l-28 -128h-148l-76 -153h161l-27 -125h-199l-93 -185h302l-27 -129h-340l-53 -103h-114l52 103h-90l153 720h302zM293 592l-32 -153h72l77 153h-117zM234 314l-26 -122l61 122h-35z" />
    <glyph glyph-name="uni0247" unicode="&#x247;" horiz-adv-x="556" 
d="M373 543l59 101h116l-81 -137q33 -25 49 -64q22 -45 17 -110q-3 -37 -18 -105h-213l-77 -132q5 -1 18 -1q44 0 75 25q16 14 33 36h143q-17 -48 -71 -96q-84 -78 -207 -78q-30 0 -55 6l-50 -86h-115l75 127q-14 12 -20 19q-65 64 -33 213q28 136 115 211q86 74 198 74
q23 0 42 -3zM174 319h67l66 113h-1q-94 0 -132 -113zM149 163l38 65h-36q-6 -39 -2 -65zM356 319h34q5 33 -1 55z" />
    <glyph glyph-name="uni0248" unicode="&#x248;" horiz-adv-x="556" 
d="M535 527h75l-21 -98h-75l-45 -210q-19 -91 -62 -146q-73 -91 -213 -91t-173 73q-32 74 -5 201l4 17h142l-4 -17q-17 -83 -6.5 -117t62.5 -34q54 0 79 37q15 26 25 74l46 213h-83l21 98h83l41 193h150z" />
    <glyph glyph-name="uni0249" unicode="&#x249;" horiz-adv-x="278" 
d="M210 283h91l-21 -98h-91l-52 -242q-17 -82 -57 -119q-39 -39 -132 -39q-4 0 -10 0.5t-17.5 1t-21.5 0.5l24 111q9 -1 15.5 -1.5t8.5 -0.5q41 0 52 49l51 240h-77l21 98h77l52 247h139zM303 724l-27 -128h-139l27 128h139z" />
    <glyph glyph-name="uni024A" unicode="&#x24a;" horiz-adv-x="824" 
d="M722 -110q-11 -49 -14 -61q-2 -14 -6 -29.5t-7 -23.5t-4 -8q-141 0 -175 90q-20 56 -1 146l6 25q-85 -49 -205 -49q-154 0 -218 84q-87 103 -46 297q42 198 172 297q100 84 254 84q119 0 184 -50l6 28h151l-153 -719q-10 -52 -6 -74q9 -37 62 -37zM203 361
q-26 -121 12 -187.5t128 -66.5q89 0 156 66q57 55 84 150l16 76q13 93 -20 149q-39 66 -128 66q-90 0 -156 -66.5t-92 -186.5z" />
    <glyph glyph-name="uni024B" unicode="&#x24b;" horiz-adv-x="659" 
d="M560 -102l-24 -111q-9 0 -21 -0.5t-18.5 -1t-10.5 -0.5q-93 0 -117 39q-23 38 -6 119l14 62q-60 -24 -134 -24q-137 0 -187 83q-50 84 -24 201q24 115 109 199q85 85 223 85q74 0 123 -25l1 6h139l-124 -585q-6 -27 1.5 -38t28.5 -11q2 0 5 0.5t9 1t13 0.5zM178 265
q-17 -80 6 -123.5t84 -43.5t103.5 43.5t59.5 123.5t-7 123.5t-85 43.5t-102.5 -43.5t-58.5 -123.5z" />
    <glyph glyph-name="uni024C" unicode="&#x24c;" horiz-adv-x="772" 
d="M749 651q38 -60 22 -136q-11 -53 -48 -102q-36 -50 -100 -69q46 -21 58.5 -57.5t-3.5 -112.5l-10 -48q-10 -47 -10 -67q-1 -28 18 -41l-3 -18h-166q-1 16 -1 39q0 31 6 62l13 66q14 69 -6 92t-85 23h-156l-59 -282h-147l59 282h-103l26 119h103l68 319h353
q73 -2 111 -18.5t60 -50.5zM520 595h-175l-41 -194h171q49 0 78 12q49 21 63 81q14 66 -26 88q-20 13 -70 13z" />
    <glyph glyph-name="uni024D" unicode="&#x24d;" horiz-adv-x="439" 
d="M246 269h119l-21 -99h-119l-36 -170h-141l36 170h-87l21 99h87l56 263h133l-20 -93q44 54 71 73q46 33 109 33q2 0 6.5 -0.5t11.5 -0.5l-30 -143q-17 3 -40 3q-84 0 -123 -55q-21 -27 -33 -80z" />
    <glyph glyph-name="uni024E" unicode="&#x24e;" horiz-adv-x="767" 
d="M716 620h105l-21 -98h-157l-188 -251l-57 -271h-150l57 271l-87 251h-150l21 98h96l-33 100h177l25 -100h200l67 100h171zM380 522l31 -116l77 116h-108z" />
    <glyph glyph-name="uni024F" unicode="&#x24f;" horiz-adv-x="661" 
d="M556 376h112l-20 -98h-146l-152 -269q-86 -153 -123 -188q-38 -36 -130 -36q-43 0 -64 2l24 111l18 -1q47 -2 72 13q13 7 30 35q16 25 16 32l-42 301h-123l20 98h89l-21 156h155l12 -156h136l78 156h148zM292 278l11 -138l69 138h-80z" />
    <glyph glyph-name="uni0250" unicode="&#x250;" horiz-adv-x="556" 
d="M205 321l-11 -51q29 16 69 22l32 6q43 7 67 19q37 20 44 59q8 34 -7 51t-46 17q-45 0 -88 -27q-43 -25 -60 -96zM313 210l-48 -5q-37 -4 -58 -13q-32 -12 -38 -39q-7 -32 12 -45t65 -13q50 0 75 25q18 17 29 48h135q-19 -69 -63 -114q-71 -71 -205 -71q-86 0 -148 35
q-60 34 -40 131l52 244l12 62q5 25 0.5 35t-18.5 18l5 20h152q4 -25 -1 -62q32 29 78 53q50 26 106 26q74 0 111.5 -42t22.5 -116q-21 -99 -106 -142q-47 -24 -130 -35z" />
    <glyph glyph-name="uni0251" unicode="&#x251;" horiz-adv-x="592" 
d="M424 468l12 57h140l-111 -525h-144l13 64q-76 -76 -172 -76q-87 0 -123 87q-36 88 -14 189q22 104 99 187q76 82 170 82q82 0 130 -65zM311 424q-53 0 -93 -48t-54 -114q-14 -68 5 -114q19 -48 73 -48q48 0 86 48t51 114q14 68 -2 114q-17 48 -66 48z" />
    <glyph glyph-name="uni0252" unicode="&#x252;" horiz-adv-x="592" 
d="M120 53l-12 -57h-140l111 525h144l-13 -64q76 76 172 76q87 0 123 -88t14 -189q-22 -104 -99 -187q-76 -82 -171 -82q-81 0 -129 66zM233 97q53 0 92 47q41 48 54 114q15 68 -4 114q-20 48 -73 48q-49 0 -86 -48q-37 -46 -52 -114q-14 -68 2 -114q17 -47 67 -47z" />
    <glyph glyph-name="uni0253" unicode="&#x253;" 
d="M359 733l-23 -111q-16 1 -25 1q-22 0 -34 -10.5t-18 -38.5l-7 -31h2l-17 -80q35 38 70 57q42 24 101 24q105 0 148 -76q44 -75 18 -195q-27 -124 -103 -206q-75 -81 -180 -81q-66 0 -101 26q-21 16 -40 55l-14 -67h-136l86 405h-2l36 172q18 84 59.5 120.5t130.5 36.5
q3 0 19 -0.5t30 -0.5zM424 258q12 57 6 94q-13 70 -88 70q-76 0 -118 -68q-24 -39 -35 -95q-16 -72 6.5 -115t82.5 -43q53 0 92 42.5t54 114.5z" />
    <glyph glyph-name="uni0254" unicode="&#x254;" horiz-adv-x="556" 
d="M13 185h143q-3 -29 8 -54q17 -32 67 -32q70 0 110 70q20 36 34 99q13 57 7 94q-10 66 -80 66q-85 0 -114 -95h-142q19 64 72 121q84 91 212 91q130 0 173 -76q45 -76 19 -198q-29 -137 -113 -214q-82 -76 -201 -76q-100 0 -154 45q-53 45 -41 159z" />
    <glyph glyph-name="uni0256" unicode="&#x256;" horiz-adv-x="646" 
d="M534 -102l-24 -111q-9 0 -21 -0.5t-18.5 -1t-10.5 -0.5q-93 0 -117 39q-23 38 -6 119l27 124q-36 -41 -77 -62q-43 -22 -100 -22q-93 0 -141 75q-47 77 -22 194q29 137 108 215q80 78 184 78q97 0 130 -80l54 254h141l-152 -719l-12 -55q-6 -27 1.5 -38t28.5 -11
q2 0 5 0.5t9 1t13 0.5zM406 258q21 98 -19 140q-25 25 -66 25q-58 0 -97 -44t-55 -116q-15 -77 5.5 -119.5t78.5 -42.5t98 42.5t55 114.5z" />
    <glyph glyph-name="uni0257" unicode="&#x257;" 
d="M711 738l-23 -111q-15 1 -25 1q-42 0 -52 -48l-8 -37h1l-115 -543h-135l15 74q-40 -48 -82.5 -69.5t-99.5 -21.5q-93 0 -141 75q-47 77 -22 194q29 137 108 215q80 78 184 78q97 0 130 -80l17 78h1l8 39q18 84 59.5 121t130.5 37q3 0 49 -2zM406 258q21 98 -19 140
q-25 25 -66 25q-58 0 -97 -44t-55 -116q-15 -77 5.5 -119.5t78.5 -42.5t98 42.5t55 114.5z" />
    <glyph glyph-name="uni0258" unicode="&#x258;" horiz-adv-x="556" 
d="M176 319h216q8 113 -84 113q-46 0 -81.5 -29t-50.5 -84zM103 443q87 103 230 103q114 0 167 -75t24 -210q-31 -148 -123 -214q-92 -65 -193 -65q-122 0 -175 78q-33 50 -29 96h142q8 -22 18 -36q22 -25 65 -25q41 0 73 20q55 31 75 113h-365q14 68 27 105q22 62 64 110z
" />
    <glyph glyph-name="uni0259" unicode="&#x259;" horiz-adv-x="581" 
d="M251 -13q-111 0 -176 58t-65 168q0 31 8 81h381q1 11 1 30q0 47 -29 74t-85 27q-26 0 -48 -12t-33 -24.5t-25 -34.5h-142q35 91 97 134t171 43q107 0 168.5 -58t61.5 -167q0 -130 -79 -224.5t-206 -94.5zM243 94q102 0 141 110h-237q0 -110 96 -110z" />
    <glyph glyph-name="uni025A" unicode="&#x25a;" horiz-adv-x="882" 
d="M738 247q36 -12 86 55q6 -8 23 -19.5t23 -19.5q-23 -38 -58 -63t-75 -27q-55 -6 -85 32t-16 97l-81 -21q-6 -101 -60 -171q-69 -90 -182 -118q-143 -37 -217 46q-33 36 -47 96q-8 36 -11 100l372 95q-7 76 -56 95q-31 12 -73 1q-44 -11 -70 -41q-13 -16 -24 -42l-145 -37
q2 48 45 106q65 93 191 124q104 27 187 -17q69 -37 86 -145l67 19q50 14 122 35q1 -18 -6 -50t-13.5 -56.5t-3.5 -46t21 -27.5zM412 239l-221 -56q6 -51 38 -71.5t78 -8.5q93 22 105 136z" />
    <glyph glyph-name="uni025B" unicode="&#x25b;" horiz-adv-x="505" 
d="M291 432q-97 0 -109 -60l-2 -9q-3 -23 22.5 -37t58.5 -14h47l-20 -92h-46q-36 0 -73 -19q-37 -18 -43 -47q-8 -37 15 -53.5t66 -16.5q91 0 123 76h115l-16 -44q-25 -50 -82 -90q-56 -38 -154 -38q-87 0 -148 35q-59 35 -45 100q9 48 38 85.5t68 57.5q-31 18 -42.5 42.5
t-2.5 67.5l15 50q12 35 82 71q70 37 149 37q99 0 136 -34t41 -119h-120q-6 29 -18 39q-10 12 -55 12z" />
    <glyph glyph-name="uni025C" unicode="&#x25c;" horiz-adv-x="505" 
d="M277 432q-45 0 -61 -12q-16 -10 -34 -39h-120q41 84 93 119q50 34 150 34q79 0 132 -37q55 -36 52 -71q-1 -33 -6 -50q-9 -43 -30 -67.5t-61 -42.5q30 -19 43 -56.5t3 -86.5q-14 -65 -89 -100t-162 -35q-97 0 -138 38q-39 38 -44 90l4 44h115q-2 -35 20 -55.5t69 -20.5
q96 0 111 70q6 29 -24 47q-28 19 -64 19h-46l20 92h47q33 0 65 14t38 37l2 9q12 60 -85 60z" />
    <glyph glyph-name="uni025D" unicode="&#x25d;" horiz-adv-x="798" 
d="M675 359q40 -13 85 55q6 -8 23.5 -19.5t23.5 -19.5q-56 -83 -133 -90q-56 -6 -85 32t-17 97q-12 -2 -25.5 -5.5t-29.5 -8.5t-25 -7l-7 -2q0 -3 -1 -5.5t-2 -5.5t-1 -4q-9 -42 -30 -67t-60 -43q29 -20 41.5 -57t3.5 -86q-14 -65 -89 -100t-161 -35q-98 0 -139 38
q-40 38 -43 90l3 44h115q-2 -35 20 -55.5t69 -20.5q97 0 112 70q6 29 -24 47q-29 19 -64 19h-46l20 92h47q32 0 62 13q32 13 40 38l2 9q6 32 -16.5 46t-67.5 14q-46 0 -62 -12q-16 -10 -34 -39h-119q40 84 92 119q50 34 150 34q79 0 133 -36q15 -10 26 -20l93 26
q41 11 123 35q0 -17 -7.5 -49.5t-13.5 -57t-3 -46t21 -27.5z" />
    <glyph glyph-name="uni025E" unicode="&#x25e;" horiz-adv-x="537" 
d="M469 498q54 -38 51 -72q-1 -33 -6 -50q-9 -43 -30 -67.5t-61 -42.5q30 -19 43 -56.5t3 -86.5q-14 -65 -89 -100t-162 -35q-130 -8 -174 69t-18 198q28 136 112 214q82 76 198 65q78 0 133 -36zM317 427q-71 0 -111 -70q-21 -37 -34 -98q-14 -59 -6 -94q10 -67 75 -81h3
q96 0 111 70q6 29 -24 47q-28 19 -64 19l21 92q33 0 65 14t38 37l2 9q7 33 -17 47q-23 12 -59 8z" />
    <glyph glyph-name="uni025F" unicode="&#x25f;" horiz-adv-x="333" 
d="M-87 -194l24 113q14 -2 38 -2q48 -1 58 41l9 44h-92l21 99h92l91 429h138l-91 -429h78l-21 -99h-76l-7 -34q-18 -86 -54 -117q-41 -48 -156 -48q-28 0 -52 3z" />
    <glyph glyph-name="uni0260" unicode="&#x260;" 
d="M699 685l-24 -112q-6 0 -11.5 0.5t-8.5 1t-5 0.5q-22 0 -34 -10.5t-18 -38.5l-36 -170h-1l-70 -329q-23 -104 -68 -155q-78 -90 -247 -90q-105 0 -159.5 40.5t-44.5 119.5h151q1 -24 12 -35q19 -19 72 -19q75 0 111 50q22 32 39 108l8 35q-30 -37 -54 -52
q-47 -31 -115 -31q-102 0 -148 72t-20 195q26 119 101 199q77 81 185 81q40 0 68 -12q43 -19 63 -73l15 68q17 81 56 119q40 39 133 39q2 0 18.5 -0.5t31.5 -0.5zM407 269q16 74 -7.5 114t-78.5 40q-73 0 -115 -69q-24 -38 -34 -90q-10 -44 -2 -82q14 -68 87 -68
q52 0 92.5 39t57.5 116z" />
    <glyph glyph-name="uni0261" unicode="&#x261;" 
d="M407 269q16 74 -7.5 114t-78.5 40q-73 0 -115 -69q-24 -38 -34 -90q-10 -44 -2 -82q14 -68 87 -68q52 0 92.5 39t57.5 116zM382 533q45 -21 65 -77l17 76h135l-108 -505q-23 -104 -68 -155q-78 -90 -247 -90q-105 0 -159.5 40.5t-44.5 119.5h151q1 -24 12 -35
q19 -19 72 -19q75 0 111 50q22 32 39 108l8 35q-30 -37 -54 -52q-47 -31 -115 -31q-102 0 -148 72t-20 195q26 119 101 199q77 81 185 81q40 0 68 -12z" />
    <glyph glyph-name="uni0265" unicode="&#x265;" 
d="M48 53q-16 28 -14 61q1 30 17 103l66 313h143l-69 -324q-9 -44 0 -69q10 -37 64 -37q112 0 143 142l61 288h138l-152 -718h-138l54 255q-75 -83 -172 -83q-106 0 -141 69z" />
    <glyph glyph-name="uni0266" unicode="&#x266;" 
d="M375 771l-23 -111q-7 0 -12.5 0.5t-8 1t-4.5 0.5q-22 0 -34 -10.5t-18 -38.5l-32 -150q72 83 171 83q104 0 141 -69q16 -28 14 -62q-1 -28 -17 -103l-66 -312h-142l68 324q10 44 0 69q-10 37 -64 37q-55 0 -91.5 -37t-50.5 -105l-61 -288h-139l130 615q17 82 57 119
q41 39 133 39q1 0 49 -2z" />
    <glyph glyph-name="uni0267" unicode="&#x267;" horiz-adv-x="659" 
d="M530 -102l-24 -111q-9 0 -21 -0.5t-18.5 -1t-10.5 -0.5q-93 0 -117 39q-23 38 -6 119l13 57h-2l68 324q10 44 0 69q-10 37 -64 37q-55 0 -91.5 -37t-50.5 -105l-61 -288h-139l130 615q17 82 57 119q41 39 133 39q1 0 49 -2l-23 -111q-7 0 -12.5 0.5t-8 1t-4.5 0.5
q-22 0 -34 -10.5t-18 -38.5l-32 -150q72 83 171 83q104 0 141 -69q16 -28 14 -62q-1 -28 -17 -103l-66 -312h-1l-12 -55q-6 -27 1.5 -38t28.5 -11q2 0 5 0.5t9 1t13 0.5z" />
    <glyph glyph-name="uni0268" unicode="&#x268;" horiz-adv-x="378" 
d="M20 328l16 74h100l28 130h141l-28 -130h106l-16 -74h-106l-69 -328h-141l69 328h-100zM345 724l-27 -128h-141l27 128h141z" />
    <glyph glyph-name="uni0269" unicode="&#x269;" horiz-adv-x="278" 
d="M7 0l111 525h140l-111 -525h-140z" />
    <glyph glyph-name="uni026A" unicode="&#x26a;" horiz-adv-x="334" 
d="M-37 0l27 131h68l58 269h-68l28 132h68h141h71l-28 -132h-71l-58 -269h71l-27 -131h-280z" />
    <glyph glyph-name="uni026B" unicode="&#x26b;" horiz-adv-x="392" 
d="M270 325l-69 -325h-139l76 359h-2q-20 0 -33 -10q-15 -13 -23 -31h-64q25 54 44 76q37 43 95 46l60 280h139l-68 -317h3q36 0 56 42h65q-48 -120 -136 -120h-4z" />
    <glyph glyph-name="uni026D" unicode="&#x26d;" horiz-adv-x="305" 
d="M192 -102l-24 -111q-9 0 -21 -0.5t-18.5 -1t-10.5 -0.5q-93 0 -117 39q-23 38 -6 119l166 777h139l-165 -775q-6 -27 1.5 -38t29.5 -11q2 0 5 0.5t8.5 1t12.5 0.5z" />
    <glyph glyph-name="uni026F" unicode="&#x26f;" horiz-adv-x="889" 
d="M51 62q-18 28 -17 68q2 27 12 78l72 336h143l-72 -339q-6 -29 -1 -50q10 -37 61 -37q59 0 90 48q17 26 24 61l67 317h140l-67 -317q-10 -44 -5 -69q9 -38 61 -38q59 0 88 38q16 22 25 66l68 320h141l-113 -531h-135l17 77q-35 -41 -62 -59q-46 -31 -111 -31q-61 0 -94 27
q-23 25 -31 64q-37 -46 -83 -69q-45 -22 -100 -22q-85 0 -118 62z" />
    <glyph glyph-name="uni0270" unicode="&#x270;" horiz-adv-x="889" 
d="M51 62q-18 28 -17 68q2 27 12 78l72 336h143l-72 -339q-6 -29 -1 -50q10 -37 61 -37q59 0 90 48q17 26 24 61l67 317h140l-67 -317q-10 -44 -5 -69q9 -38 61 -38q59 0 88 38q16 22 25 66l68 320h141l-155 -732h-135l59 278q-35 -41 -62 -59q-46 -31 -111 -31
q-61 0 -94 27q-23 25 -31 64q-37 -46 -83 -69q-45 -22 -100 -22q-85 0 -118 62z" />
    <glyph glyph-name="uni0271" unicode="&#x271;" horiz-adv-x="889" 
d="M509 -213l24 111q8 -1 15 -1.5t9 -0.5q22 0 34.5 11t18.5 38l67 316h1l17 78q6 30 0 50q-10 37 -61 37q-58 0 -89 -48q-17 -26 -24 -61l-67 -317h-140l67 317q10 44 5 69q-11 38 -61 38q-59 0 -88 -38q-16 -22 -25 -66l-68 -320h-142l112 531h136l-16 -77q35 41 62 59
q46 31 111 31q61 0 92 -27q26 -26 33 -64q38 47 82 69q47 22 101 22q81 0 118 -62q17 -27 15 -68q0 -24 -11 -79l-72 -335l-17 -57q-17 -82 -57 -119q-41 -39 -132 -39q-2 0 -50 2z" />
    <glyph glyph-name="uni0272" unicode="&#x272;" 
d="M-105 -213l24 111q6 0 11 -0.5t7.5 -1t4.5 -0.5q41 0 52 49l12 55l112 531h134v-1h6l-14 -68q29 34 56 51q50 32 115 32q81 0 125 -44t23 -143l-76 -358h-142l68 324q9 42 3 64q-12 41 -70 41q-70 0 -110 -60q-15 -22 -24 -56l-79 -370q-17 -82 -57 -119
q-41 -39 -133 -39z" />
    <glyph glyph-name="uni0273" unicode="&#x273;" horiz-adv-x="648" 
d="M529 -102l-24 -111q-9 0 -21 -0.5t-18.5 -1t-10.5 -0.5q-93 0 -117 39q-23 38 -6 119l81 381q9 42 3 64q-12 41 -70 41q-70 0 -110 -60q-20 -31 -30 -81l-61 -288h-139l112 531h134l-16 -77q38 42 64 59q50 32 115 32q81 0 125 -44t23 -143l-76 -358h-3l-12 -55
q-6 -27 1.5 -38t28.5 -11q2 0 5 0.5t9 1t13 0.5z" />
    <glyph glyph-name="uni0274" unicode="&#x274;" horiz-adv-x="529" 
d="M-15 0l112 531h158l75 -314l66 314h140l-112 -531h-150l-81 323l-68 -323h-140z" />
    <glyph glyph-name="uni0275" unicode="&#x275;" 
d="M239 -19q-137 0 -187 83q-50 84 -24 201q24 115 109 199q85 85 223 85q137 0 186 -85q50 -84 26 -199q-26 -117 -111 -201q-86 -83 -222 -83zM179 142q24 -44 85 -44t103 44q31 31 49 87h-249q-6 -55 12 -87zM419 388q-23 44 -84 44q-60 0 -104 -44q-31 -31 -48 -85h249
q5 54 -13 85z" />
    <glyph glyph-name="uni0276" unicode="&#x276;" horiz-adv-x="944" 
d="M415 262q37 170 -90 170q-76 0 -120 -71q-23 -39 -35 -96q-37 -171 81 -171q67 0 107.5 45.5t56.5 122.5zM525 466q47 38 78 54q53 24 119 24q126 0 177 -97q20 -38 17 -97q0 -37 -17 -119h-364q-11 -63 10 -99.5t72 -36.5q88 0 120 62h138q-24 -70 -97 -122t-189 -52
q-66 0 -108 27q-29 19 -52 50q-34 -32 -67 -48q-58 -30 -137 -30q-119 0 -172 78q-52 78 -27 202q29 135 116 207q88 75 208 75q124 0 175 -78zM774 388q-16 48 -88 48q-30 0 -60 -14q-53 -29 -71 -101h221q7 40 -2 67z" />
    <glyph glyph-name="uni0278" unicode="&#x278;" horiz-adv-x="722" 
d="M192 -209l45 209q-117 7 -176 74t-34 189q27 126 114 201q85 74 210 75l36 167h128l-36 -167q127 -1 180 -75q52 -74 26 -201q-27 -123 -113 -189q-86 -67 -207 -74l-45 -209h-128zM261 116l65 307q-72 -6 -111 -49q-41 -44 -54 -111q-26 -128 100 -147zM454 423
l-65 -307q133 20 162 147q15 67 -5 111q-22 43 -92 49z" />
    <glyph glyph-name="uni0279" unicode="&#x279;" horiz-adv-x="389" 
d="M3 1l30 143q17 -3 39 -3q85 0 125 55q23 32 36 95l54 254h140l-113 -532h-133l20 92q-45 -54 -71 -72q-46 -33 -108 -33q-7 0 -19 1z" />
    <glyph glyph-name="uni027A" unicode="&#x27a;" horiz-adv-x="389" 
d="M3 1l30 143q17 -3 39 -3q85 0 125 55q23 32 36 95l92 429h140l-151 -707h-133l20 92q-45 -54 -71 -72q-46 -33 -108 -33q-7 0 -19 1z" />
    <glyph glyph-name="uni027B" unicode="&#x27b;" horiz-adv-x="472" 
d="M358 -102l-24 -111q-9 0 -21 -0.5t-18.5 -1t-10.5 -0.5q-93 0 -117 39q-23 38 -6 119l33 153q-40 -47 -64 -63q-46 -33 -108 -33q-7 0 -19 1l30 143q17 -3 39 -3q85 0 125 55q23 32 36 95l54 254h140l-91 -430h1l-36 -170q-6 -27 1.5 -38t29.5 -11q2 0 5 0.5t8.5 1
t12.5 0.5z" />
    <glyph glyph-name="uni027C" unicode="&#x27c;" horiz-adv-x="389" 
d="M428 544l-30 -143q-19 3 -40 3q-84 0 -124 -55q-24 -34 -37 -95l-93 -442h-141l153 720h133l-20 -93q42 52 71 73q46 33 109 33q1 0 6 -0.5t13 -0.5z" />
    <glyph glyph-name="uni027D" unicode="&#x27d;" horiz-adv-x="389" 
d="M187 -102l-24 -111q-9 0 -21 -0.5t-18.5 -1t-10.5 -0.5q-93 0 -116 39q-24 37 -7 119l37 172l89 417h133l-20 -93q42 52 71 73q46 33 109 33q1 0 6 -0.5t13 -0.5l-30 -143q-19 3 -40 3q-84 0 -124 -55q-24 -34 -37 -95l-53 -254h-2l-12 -55q-6 -27 1.5 -38t29.5 -11
q2 0 5 0.5t8.5 1t12.5 0.5z" />
    <glyph glyph-name="uni027E" unicode="&#x27e;" horiz-adv-x="278" 
d="M290 519l-24 -112q-7 0 -12.5 0.5t-8.5 1t-5 0.5q-47 9 -60 -1q-12 -11 -18 -38l-78 -370h-140l79 372q17 82 57 119q41 39 133 39q7 0 32 -6q28 -5 45 -5z" />
    <glyph glyph-name="uni027F" unicode="&#x27f;" horiz-adv-x="278" 
d="M30 407l24 112q15 0 47 5q28 6 34 6q93 0 117 -39q24 -37 7 -119l-79 -372h-139l78 370q6 28 -3 38q-7 10 -60 1q-2 0 -5 -0.5t-8.5 -1t-12.5 -0.5z" />
    <glyph glyph-name="uni0280" unicode="&#x280;" horiz-adv-x="533" 
d="M289 439h-48l-26 -123h44q38 0 59 9q37 15 41 40q11 48 -18 65q-17 9 -52 9zM498 480q28 -45 16 -100q-8 -37 -31.5 -63t-77.5 -63q34 -15 43 -41.5t-2 -83.5l-8 -36q-7 -34 -7 -50q-1 -19 13 -30l-2 -13h-163q-2 24 -2 28q2 24 6 46l10 50q6 32 -9.5 47.5t-63.5 15.5
h-33l-39 -187h-149l112 531h260q97 -1 127 -51z" />
    <glyph glyph-name="uni0281" unicode="&#x281;" horiz-adv-x="533" 
d="M167 92h48q37 0 56 10q36 16 46 65q4 24 -25 40q-18 8 -55 8h-44zM406 51q-50 -50 -147 -51h-260l112 531h149l-39 -187h33q48 0 70 16t29 48l12 49q3 18 13 46l13 28h163l-2 -13q-20 -10 -27 -30q-5 -12 -13 -50l-8 -36q-12 -54 -33 -82t-61 -43q39 -37 51.5 -63
t4.5 -63q-13 -59 -60 -100z" />
    <glyph glyph-name="uni0283" unicode="&#x283;" horiz-adv-x="380" 
d="M136 -121q-58 -90 -158 -90q-45 0 -98 21l36 111q34 -19 51 -19q35 0 56 39q12 22 32 105l115 449q30 121 64 173q57 87 158 87q30 0 68 -9l32 -10l-34 -111q-32 17 -55 17q-37 0 -59 -39q-16 -27 -35 -108l-118 -474q-24 -93 -55 -142z" />
    <glyph glyph-name="uni0284" unicode="&#x284;" horiz-adv-x="380" 
d="M-68 0l15 75h115l108 420q30 121 64 173q57 87 158 87q30 0 68 -9l32 -10l-34 -111q-32 17 -55 17q-37 0 -59 -39q-16 -27 -35 -108l-105 -420h90l-15 -75h-93q-23 -77 -50 -121q-58 -90 -158 -90q-45 0 -98 21l36 111q34 -19 51 -19q35 0 56 39q9 16 21 59h-112z" />
    <glyph glyph-name="uni0285" unicode="&#x285;" horiz-adv-x="428" 
d="M122 41q-15 28 -8 78l38 261q7 45 1 59q-11 21 -47 21q-29 0 -61 -9l3 61q-4 0 36 6q35 4 70 4q100 0 129 -47q17 -29 8 -95l-33 -247q-8 -44 -3 -58q7 -22 44 -22q21 0 58 11l-1 -61q-63 -12 -106 -12q-99 0 -128 50z" />
    <glyph glyph-name="uni0287" unicode="&#x287;" horiz-adv-x="333" 
d="M224 237h75l-21 -99h-75l-32 -149h-137l32 149h-87l21 99h87l60 281q8 33 0 41t-49 8q-5 0 -14.5 -0.5t-13.5 -0.5l22 104l66 2q99 4 128 -34q18 -24 7 -74z" />
    <glyph glyph-name="uni0288" unicode="&#x288;" horiz-adv-x="333" 
d="M114 428h-74l22 99h74l31 149h138l-31 -149h87l-22 -99h-87l-104 -491q-8 -33 0 -41t49 -8q19 0 28 1l-22 -104l-67 -3q-100 -3 -128 34q-19 23 -8 74z" />
    <glyph glyph-name="uni0289" unicode="&#x289;" horiz-adv-x="749" 
d="M125 283h-99l20 98h99l33 151h143l-33 -151h197l33 151h141l-33 -151h118l-20 -98h-118l-60 -283h-135l15 75l-6 -7q-6 -8 -14 -16t-16 -13q-67 -51 -145 -51q-120 0 -142 85q-13 47 6 138zM249 143q10 -40 66 -40q71 0 110 57q21 34 31 83l9 40h-197l-16 -72
q-9 -45 -3 -68z" />
    <glyph glyph-name="uni028A" unicode="&#x28a;" horiz-adv-x="577" 
d="M249 109q115 0 143 140q14 62 9 100t-40 78l23 105h212l-21 -98h-111q77 -70 52 -189q-22 -103 -100 -175q-76 -70 -186 -70q-106 0 -158 70q-51 70 -28 175q13 64 43.5 107t89.5 82h-112l21 98h213l-23 -105q-53 -41 -74 -78q-21 -41 -34 -100q-28 -140 81 -140z" />
    <glyph glyph-name="uni028C" unicode="&#x28c;" horiz-adv-x="556" 
d="M298 393l-196 -393h-150l305 532h147l78 -532h-156z" />
    <glyph glyph-name="uni028D" unicode="&#x28d;" horiz-adv-x="778" 
d="M554 382l-157 -382h-142v383l-164 -383h-145l268 532h143v-387l168 387h144l37 -532h-150z" />
    <glyph glyph-name="uni028E" unicode="&#x28e;" horiz-adv-x="556" 
d="M560 746l-24 -112l-17 1q-48 2 -72 -12q-14 -8 -31 -35q-17 -26 -15 -32l78 -556h-155l-33 393l-193 -393h-148l293 523q86 153 123 188q38 37 131 37q5 0 63 -2z" />
    <glyph glyph-name="uni028F" unicode="&#x28f;" horiz-adv-x="499" 
d="M259 300l103 232h170l-221 -331l-42 -201h-151l42 201l-88 331h177z" />
    <glyph glyph-name="uni0292" unicode="&#x292;" horiz-adv-x="551" 
d="M118 168l228 232h-283l27 130h483l-23 -110l-180 -154q41 -20 64 -56q58 -43 29 -181q-26 -121 -108.5 -182.5t-212.5 -61.5q-129 0 -156 91q-29 58 -20 121h142q-5 -42 3 -68q7 -27 57 -27q122 0 149 130q14 62 9 106q-16 22 -74 30l-1 -1z" />
    <glyph glyph-name="uni0294" unicode="&#x294;" 
d="M243 690q65 37 150 37q110 0 172 -53t40 -156q-13 -62 -55 -107q-27 -29 -85 -67l-41 -27q-33 -23 -48 -51q-9 -17 -62 -266h-132q65 293 83 322q21 33 81 73l41 27q21 14 35 29q24 25 32 59q8 38 -7 67q-15 31 -73 31q-56 0 -88 -38q-32 -39 -41 -77h-141
q36 139 139 197z" />
    <glyph glyph-name="uni0295" unicode="&#x295;" 
d="M544 690q79 -58 55 -197h-141q9 41 -7 77q-15 38 -72 38q-58 0 -86 -31q-29 -30 -36 -67q-7 -30 7 -59q8 -17 22 -29l29 -27q45 -40 51 -73t-52 -322h-132q51 245 49 266q-3 28 -26 51l-29 27q-44 40 -57 67q-23 44 -9 107q23 104 106 156q85 53 194 53q85 0 134 -37z
" />
    <glyph glyph-name="uni0296" unicode="&#x296;" 
d="M104 37q-77 58 -55 197h141q-8 -43 8 -79q16 -37 72 -37q54 0 83.5 28t37.5 70q8 33 -6 59q-6 14 -23 29l-29 28q-44 41 -50 72q-6 30 53 323h132q-53 -248 -51 -266q3 -29 27 -51l29 -27q44 -41 56 -68q23 -45 10 -107q-23 -104 -106 -156t-194 -52q-85 0 -135 37z" />
    <glyph glyph-name="uni0297" unicode="&#x297;" horiz-adv-x="520" 
d="M505 341h-142q1 30 -9 54q-17 32 -66 32q-70 0 -114 -110q-41 -106 -55 -171q-13 -56 -16 -165q-3 -107 65 -107q83 0 115 94h142q-19 -63 -72 -120q-85 -91 -213 -91q-129 0 -151 108q-23 109 13 278q39 186 114 294t193 108q100 0 154 -45t42 -159z" />
    <glyph glyph-name="uni0298" unicode="&#x298;" horiz-adv-x="778" 
d="M605 361q26 120 -12 186.5t-128 66.5q-91 0 -157.5 -66.5t-92.5 -186.5q-26 -121 12.5 -187.5t129.5 -66.5q90 0 156 66.5t92 187.5zM583 64q-99 -84 -253 -84q-155 0 -218 84q-88 103 -47 297q42 198 173 297q99 84 254 84q154 0 217 -84q88 -99 46 -297
q-40 -193 -172 -297zM320 292l31 146h148l-31 -146h-148z" />
    <glyph glyph-name="uni029A" unicode="&#x29a;" horiz-adv-x="537" 
d="M156 498q70 36 148 36q121 11 171 -65q51 -76 22 -214q-25 -120 -103 -198q-76 -77 -204 -69q-86 0 -147 35q-59 35 -45 100q9 48 38 85.5t67 57.5q-31 18 -42 43t-2 67l15 50q10 34 82 72zM278 427q-34 4 -61 -8q-30 -13 -37 -47l-2 -9q-3 -23 22 -37t58 -14l-19 -92
q-35 0 -72 -19q-38 -18 -44 -47q-8 -37 15 -53.5t67 -16.5h2q71 13 112 81q19 34 33 94q13 60 7 98q-10 70 -81 70z" />
    <glyph glyph-name="uni029C" unicode="&#x29c;" horiz-adv-x="646" 
d="M164 0h-149l111 525h149l-39 -185h213l39 185h149l-111 -525h-149l49 234h-213z" />
    <glyph glyph-name="uni029E" unicode="&#x29e;" horiz-adv-x="556" 
d="M605 529l-152 -717h-137l82 388l-215 -200h-173l229 203l-124 326h168l79 -227l70 60l36 167h137z" />
    <glyph glyph-name="uni029F" unicode="&#x29f;" horiz-adv-x="531" 
d="M16 0l112 531h151l-85 -402h258l-27 -129h-409z" />
    <glyph glyph-name="uni02A0" unicode="&#x2a0;" 
d="M702 702l-24 -111q-16 1 -26 1q-21 0 -33 -10.5t-18 -38.5l-160 -754h-138l59 277q-56 -83 -175 -83q-92 0 -142 74q-49 72 -23 197q28 132 111 212t178 80q67 0 101 -33q18 -18 32 -53l19 86q17 80 56 119q41 39 133 39zM367 164q27 38 41 103q10 48 3 87q-17 69 -91 69
q-55 0 -94.5 -41.5t-56.5 -121.5q-12 -56 -5 -91q14 -66 88 -66q72 0 115 61z" />
    <glyph glyph-name="uni02A1" unicode="&#x2a1;" 
d="M95 108l16 74h112q32 121 42 140q21 33 81 73l41 27q21 14 35 29q24 25 32 59q8 38 -7 67q-15 31 -73 31q-56 0 -88 -38q-32 -39 -41 -77h-141q36 139 139 197q65 37 150 37q110 0 172 -53t40 -156q-13 -62 -55 -107q-27 -29 -85 -67l-41 -27q-33 -23 -48 -51
q-7 -12 -23 -84h105l-16 -74h-106q-7 -30 -22 -108h-132l23 108h-110z" />
    <glyph glyph-name="uni02A2" unicode="&#x2a2;" 
d="M460 182l-16 -74h-110l-20 -108h-132l21 108h-106l16 74h105q15 72 13 84q-3 28 -26 51l-29 27q-44 40 -57 67q-23 44 -9 107q23 104 106 156q85 53 194 53q85 0 134 -37q79 -58 55 -197h-141q9 41 -7 77q-15 38 -72 38q-58 0 -86 -31q-29 -30 -36 -67q-7 -30 7 -59
q8 -17 22 -29l29 -27q45 -40 51 -73q5 -20 -18 -140h112z" />
    <glyph glyph-name="uni02A3" unicode="&#x2a3;" horiz-adv-x="1000" 
d="M446 465l54 254h141l-39 -187h416l-25 -115l-334 -303h279l-24 -114h-560l15 74q-40 -48 -82.5 -69.5t-99.5 -21.5q-93 0 -141 75q-47 77 -22 194q29 137 108 215q80 78 184 78q97 0 130 -80zM406 258q21 98 -19 140q-25 25 -66 25q-58 0 -97 -44t-55 -116
q-15 -77 5.5 -119.5t78.5 -42.5t98 42.5t55 114.5zM520 148l297 271h-239z" />
    <glyph glyph-name="uni02A4" unicode="&#x2a4;" horiz-adv-x="1016" 
d="M591 168l228 232h-262l-85 -400h-136l15 74q-39 -48 -81.5 -69.5t-99.5 -21.5q-93 0 -141 75q-48 77 -23 194q29 137 108 215q80 78 185 78q96 0 130 -80l54 254h141l-40 -189h463l-23 -110l-181 -154q41 -20 64 -56q58 -43 29 -181q-26 -121 -108.5 -182.5t-212.5 -61.5
q-129 0 -156 91q-29 58 -20 121h143q-5 -45 2 -68q8 -27 57 -27q122 0 149 130q13 60 10 106q-18 22 -75 30v-1zM389 258q21 97 -20 140q-25 25 -65 25q-58 0 -97 -44t-55 -116q-15 -76 5 -119t78 -43t98.5 42.5t55.5 114.5z" />
    <glyph glyph-name="uni02A6" unicode="&#x2a6;" horiz-adv-x="787" 
d="M114 428h-74l22 99h74l31 149h138l-31 -149h87l-13 -58q14 14 29 25q70 53 174 53q100 0 153 -40q55 -39 43 -137h-139q3 27 -6 43q-16 28 -72 28q-85 0 -94 -47q-5 -25 13 -35t137 -39q78 -20 112 -59q32 -41 20 -100q-18 -82 -89 -130.5t-190 -48.5q-125 0 -175 53
l-6 8l-11 -48l-66 -2q-99 -4 -128 34q-19 23 -8 74zM234 170h141q-4 -35 7 -53q19 -28 90 -28q89 0 100 49q5 24 -13 36q-17 12 -136 42q-86 23 -115 56q-30 33 -16 96q8 34 23 60h-63l-59 -281q-7 -33 -1 -41q6 -6 39 -8q-6 33 3 72z" />
    <glyph glyph-name="uni02A7" unicode="&#x2a7;" horiz-adv-x="607" 
d="M326 -121q-58 -90 -157 -90q-47 0 -99 21l36 111q31 -19 51 -19q37 0 56 39q10 22 19 54l-51 -2q-99 -4 -128 34q-19 23 -8 74l69 327h-74l22 99h74l31 149h138l-31 -149h95q25 96 56 141q55 87 158 87q29 0 67 -9l32 -10l-34 -111q-31 17 -55 17q-37 0 -59 -39
q-15 -29 -34 -108l-119 -474q-24 -93 -55 -142zM252 428l-59 -281q-7 -33 -1 -41q8 -8 49 -8h13h5l83 330h-90z" />
    <glyph glyph-name="uni02A9" unicode="&#x2a9;" horiz-adv-x="836" 
d="M476 -213l24 111q8 -1 15 -1.5t9 -0.5q41 0 52 49l12 55h-3l68 324q9 42 3 64q-12 41 -69 41q-71 0 -111 -60q-20 -31 -30 -81l-61 -288h-139l91 429h-79l-91 -429h-139l91 429h-78l21 98h76l7 35q18 86 54 117q41 48 156 48q29 0 52 -3l-24 -113q-3 0 -8 0.5t-14 1
t-16 0.5q-49 1 -57 -41l-9 -45h79v4h134l-16 -77q38 42 64 59q50 32 115 32q82 0 126 -44t23 -143l-89 -415q-17 -82 -57 -119q-40 -39 -133 -39q-1 0 -49 2z" />
    <glyph glyph-name="uni02AA" unicode="&#x2aa;" horiz-adv-x="687" 
d="M157 51l-10 -51h-139l153 720h139l-56 -261q16 19 38 35q70 53 174 53q105 0 156.5 -41.5t40.5 -135.5h-139q3 27 -7 43q-16 28 -72 28q-42 0 -66 -13.5t-28 -33.5q-5 -25 14 -35q16 -10 137 -39q79 -20 111 -59q32 -41 20 -100q-18 -82 -88.5 -130.5t-189.5 -48.5
q-125 0 -175 53q-10 10 -13 16zM183 170h98q-4 -35 7 -53q19 -28 89 -28q90 0 101 49q5 24 -13 36q-17 12 -136 42q-86 23 -115 56q-6 6 -8 10z" />
    <glyph glyph-name="uni02AB" unicode="&#x2ab;" horiz-adv-x="667" 
d="M8 0l153 720h139l-40 -188h415l-25 -115l-334 -303h279l-24 -114h-563zM178 148l296 271h-238z" />
    <glyph glyph-name="uni02AC" unicode="&#x2ac;" horiz-adv-x="443" 
d="M94 86l90 217h81v-218l93 218h83l-152 -303h-82l-1 221l-95 -221h-82l-21 303h85zM182 502l91 218h81l-1 -219l94 219h83l-153 -303h-82v221l-96 -221h-82l-20 303h85v-218z" />
    <glyph glyph-name="uni02AD" unicode="&#x2ad;" horiz-adv-x="588" 
d="M33 270h521l-57 -270h-77l36 171h-368l-36 -171h-76zM119 675h521l-57 -269h-77l36 170h-368l-36 -170h-76z" />
    <glyph glyph-name="uni02AE" unicode="&#x2ae;" 
d="M62 583l24 112q14 0 31 0.5t19 0.5q94 0 116 -39q24 -37 7 -118l-2 -9h3l-69 -324q-9 -44 0 -69q10 -37 64 -37q112 0 143 142l61 288h138l-152 -718h-138l54 255q-75 -83 -172 -83q-106 0 -141 69q-16 28 -14 61q1 30 17 103l66 313h1l1 6q6 28 -1.5 38.5t-29.5 10.5
q-2 0 -4.5 -0.5t-8.5 -1t-13 -0.5z" />
    <glyph glyph-name="uni02AF" unicode="&#x2af;" 
d="M532 -102l-24 -111q-48 -2 -50 -2q-92 0 -116 39q-24 37 -7 119l4 16h-1l23 108q-75 -83 -172 -83q-106 0 -141 69q-16 28 -14 61q1 30 17 103l66 313h1l1 6q6 28 -1.5 38.5t-29.5 10.5q-2 0 -4.5 -0.5t-8.5 -1t-13 -0.5l24 112q14 0 31 0.5t19 0.5q94 0 116 -39
q24 -37 7 -118l-2 -9h3l-69 -324q-9 -44 0 -69q10 -37 64 -37q112 0 143 142l61 288h138l-88 -415h2l-36 -170q-6 -27 1.5 -38t29.5 -11q2 0 5 0.5t9 1t12 0.5z" />
    <glyph glyph-name="uni02B0" unicode="&#x2b0;" horiz-adv-x="306" 
d="M323 595q7 -19 7 -31t-8 -51l-34 -157h-71l35 163q4 21 0 34q-6 19 -32 19q-57 0 -71 -72l-31 -144h-70l76 359h70l-27 -127q36 41 85 41q53 0 71 -34z" />
    <glyph glyph-name="uni02B1" unicode="&#x2b1;" horiz-adv-x="306" 
d="M233 742l-11 -55h-12q-22 0 -27 -24l-16 -75q36 41 85 41q53 0 71 -34q7 -19 7 -31t-8 -51l-34 -157h-71l35 163q4 21 0 34q-6 19 -32 19q-57 0 -71 -72l-31 -144h-70l66 308q9 43 29.5 61t64.5 18q13 0 25 -1z" />
    <glyph glyph-name="uni02B2" unicode="&#x2b2;" horiz-adv-x="139" 
d="M197 719l-13 -65h-69l13 65h69zM-5 250l11 55h13q21 0 26 24l63 293h69l-63 -294q-9 -42 -29.5 -60.5t-65.5 -18.5q-1 0 -8.5 0.5t-15.5 0.5z" />
    <glyph glyph-name="uni02B3" unicode="&#x2b3;" horiz-adv-x="195" 
d="M260 628l-15 -71q-18 2 -20 2q-42 0 -63 -28q-10 -15 -18 -47l-27 -128h-70l57 267h66l-10 -47q21 26 36 37q22 16 54 16q3 0 10 -1z" />
    <glyph glyph-name="uni02B4" unicode="&#x2b4;" horiz-adv-x="195" 
d="M47 357l15 71q4 0 11 -0.5t9 -0.5q43 0 62 28q10 15 18 47l27 127h70l-56 -266h-66l9 46q-20 -24 -35 -36q-25 -17 -55 -17q-1 0 -3.5 0.5t-5.5 0.5z" />
    <glyph glyph-name="uni02B5" unicode="&#x2b5;" horiz-adv-x="236" 
d="M224 305l-11 -55q-7 0 -16 -0.5t-10 -0.5q-44 0 -57 18.5t-4 60.5l17 77q-22 -25 -32 -32q-25 -17 -55 -17q-1 0 -3.5 0.5t-5.5 0.5l15 71q4 0 11 -0.5t9 -0.5q43 0 62 28q10 15 18 47l27 127h70l-46 -215h1l-18 -85q-3 -14 0.5 -19t15.5 -5h12z" />
    <glyph glyph-name="uni02B6" unicode="&#x2b6;" horiz-adv-x="378" 
d="M173 408h35q27 0 40 7q25 12 32 46q4 18 -18 28q-10 6 -38 6h-32zM344 379q-38 -36 -105 -36h-185l81 377h105l-29 -133h24q33 0 48.5 11t22.5 34l7 35q6 22 11 33q4 11 10 20h115l-3 -10q-12 -6 -18 -21q-4 -9 -9 -35l-6 -26q-8 -38 -23.5 -58t-43.5 -30q28 -26 37 -45
t3 -45q-10 -40 -42 -71z" />
    <glyph glyph-name="uni02B7" unicode="&#x2b7;" horiz-adv-x="389" 
d="M151 432l79 191h71l-1 -192l83 192h72l-134 -267h-72v194l-84 -194h-72l-18 267h75z" />
    <glyph glyph-name="uni02B8" unicode="&#x2b8;" horiz-adv-x="278" 
d="M36 250l11 55h9q23 -2 37 6q6 3 14.5 17t8.5 17l-39 278h78l16 -197l97 197h74l-148 -262q-41 -75 -62 -94q-19 -18 -65 -18q-16 0 -31 1z" />
    <glyph glyph-name="uni02B9" unicode="&#x2b9;" horiz-adv-x="333" 
d="M271 719h155l-210 -292h-101z" />
    <glyph glyph-name="uni02BA" unicode="&#x2ba;" horiz-adv-x="610" 
d="M271 719h155l-210 -292h-101zM520 719h155l-210 -292h-101z" />
    <glyph glyph-name="uni02BB" unicode="&#x2bb;" horiz-adv-x="278" 
d="M103 452l21 103q30 142 174 172l-11 -51q-54 -15 -79 -55q-15 -23 -16 -40h77l-27 -129h-139z" />
    <glyph glyph-name="uni02BC" unicode="&#x2bc;" horiz-adv-x="278" 
d="M101 443l11 51q50 15 76 51q15 23 18 44h-77l27 128h140l-22 -103q-15 -72 -60 -115t-113 -56z" />
    <glyph glyph-name="uni02BD" unicode="&#x2bd;" horiz-adv-x="278" 
d="M246 494l-11 -51q-132 27 -101 171l22 103h140l-27 -128h-77q-7 -20 -2 -44q10 -36 56 -51z" />
    <glyph glyph-name="uni02BE" unicode="&#x2be;" horiz-adv-x="205" 
d="M132 647h-1q24 0 44.5 17t25.5 41t-8 41t-37 17l10 48q44 0 69 -31t15 -75q-9 -44 -47 -76q-36 -30 -83 -32z" />
    <glyph glyph-name="uni02BF" unicode="&#x2bf;" horiz-adv-x="205" 
d="M238 647h-1l-10 -50q-43 1 -68 32t-16 76q11 43 48 75q37 31 82 31l-10 -48q-24 0 -45 -17t-26 -41t8.5 -41t37.5 -17z" />
    <glyph glyph-name="uni02C0" unicode="&#x2c0;" horiz-adv-x="306" 
d="M168 702q31 18 74 18q58 0 87.5 -27t18.5 -77q-6 -32 -27 -54q-13 -13 -43 -34l-20 -13q-15 -10 -25 -26q-4 -8 -31 -133h-66q33 146 42 161q11 17 41 37l20 14q11 6 17 14q12 12 17 30q8 49 -40 49q-26 0 -43 -17.5t-21 -40.5h-71q16 68 70 99z" />
    <glyph glyph-name="uni02C1" unicode="&#x2c1;" horiz-adv-x="306" 
d="M318 702q39 -30 28 -99h-71q4 24 -4.5 41t-35.5 17t-42.5 -14.5t-18.5 -34.5q-4 -16 3 -30q5 -8 11 -14l15 -14q23 -22 26 -37t-27 -161h-66q27 123 25 133q-2 16 -13 26l-14 13q-24 22 -29 34q-11 23 -5 54q11 49 52.5 76.5t98.5 27.5q41 0 67 -18z" />
    <glyph glyph-name="uni02C2" unicode="&#x2c2;" horiz-adv-x="292" 
d="M43 458l13 62l310 109l-14 -67l-221 -73l190 -73l-15 -68z" />
    <glyph glyph-name="uni02C3" unicode="&#x2c3;" horiz-adv-x="292" 
d="M343 520l-13 -62l-311 -110l15 68l220 73l-189 73l14 67z" />
    <glyph glyph-name="uni02C4" unicode="&#x2c4;" horiz-adv-x="292" 
d="M193 633h62l49 -288h-68l-29 206l-117 -206h-68z" />
    <glyph glyph-name="uni02C5" unicode="&#x2c5;" horiz-adv-x="292" 
d="M194 345h-62l-49 288h68l29 -206l117 206h68z" />
    <glyph glyph-name="circumflex" unicode="&#x2c6;" horiz-adv-x="259" 
d="M146 723h126l83 -142h-100l-50 81l-87 -81h-109z" />
    <glyph glyph-name="caron" unicode="&#x2c7;" horiz-adv-x="259" 
d="M240 581h-126l-83 142h100l50 -83l87 83h109z" />
    <glyph glyph-name="uni02C8" unicode="&#x2c8;" horiz-adv-x="333" 
d="M222 712h75l-32 -152h-75z" />
    <glyph glyph-name="uni02C9" unicode="&#x2c9;" horiz-adv-x="259" 
d="M24 619l16 75h353l-16 -75h-353z" />
    <glyph glyph-name="uni02CA" unicode="&#x2ca;" horiz-adv-x="333" 
d="M278 750h155l-179 -146h-101z" />
    <glyph glyph-name="uni02CB" unicode="&#x2cb;" horiz-adv-x="333" 
d="M257 750l63 -146h-101l-117 146h155z" />
    <glyph glyph-name="uni02CC" unicode="&#x2cc;" horiz-adv-x="333" 
d="M56 -69h75l-32 -152h-75z" />
    <glyph glyph-name="uni02CD" unicode="&#x2cd;" horiz-adv-x="333" 
d="M-96 -146l16 74h346l-16 -74h-346z" />
    <glyph glyph-name="uni02CE" unicode="&#x2ce;" horiz-adv-x="333" 
d="M91 -31l63 -146h-101l-116 146h154z" />
    <glyph glyph-name="uni02CF" unicode="&#x2cf;" horiz-adv-x="333" 
d="M112 -31h155l-179 -146h-101z" />
    <glyph glyph-name="uni02D0" unicode="&#x2d0;" horiz-adv-x="208" 
d="M140 0h-187l9 45l100 142h46l41 -142zM65 529h187l-10 -46l-101 -141h-45l-41 141z" />
    <glyph glyph-name="uni02D1" unicode="&#x2d1;" horiz-adv-x="208" 
d="M44 431h187l-9 -45l-102 -142h-45l-40 142z" />
    <glyph glyph-name="uni02D2" unicode="&#x2d2;" horiz-adv-x="205" 
d="M49 256h-1q24 0 44.5 17t25.5 41t-8 41t-37 17l10 48q44 0 69 -31t15 -75q-9 -43 -47 -75q-36 -30 -83 -32z" />
    <glyph glyph-name="uni02D3" unicode="&#x2d3;" horiz-adv-x="205" 
d="M155 256h-1l-10 -49q-43 1 -68 32t-16 75q10 44 48 75q37 31 82 31l-10 -48q-24 0 -45 -17t-26 -41t8.5 -41t37.5 -17z" />
    <glyph glyph-name="uni02D4" unicode="&#x2d4;" horiz-adv-x="292" 
d="M58 1h-100l13 63h100l43 200h64l-43 -200h100l-13 -63h-100v-1h-64v1z" />
    <glyph glyph-name="uni02D5" unicode="&#x2d5;" horiz-adv-x="292" 
d="M177 263h100l-13 -63h-100l-42 -200h-64l42 200h-100l13 63h100l1 1h64z" />
    <glyph glyph-name="uni02D6" unicode="&#x2d6;" horiz-adv-x="292" 
d="M79 101h-100l13 63h100l22 100h64l-22 -100h100l-13 -63h-100l-21 -101h-64z" />
    <glyph glyph-name="uni02D7" unicode="&#x2d7;" horiz-adv-x="333" 
d="M6 204l14 66h280l-14 -66h-280z" />
    <glyph glyph-name="breve" unicode="&#x2d8;" horiz-adv-x="259" 
d="M103 727q3 -35 28.5 -53t65.5 -18q43 0 69 17.5t45 53.5h66q-42 -146 -189 -146q-69 0 -109.5 39.5t-40.5 106.5h65z" />
    <glyph glyph-name="dotaccent" unicode="&#x2d9;" horiz-adv-x="259" 
d="M139 714h131l-24 -117h-131z" />
    <glyph glyph-name="ring" unicode="&#x2da;" horiz-adv-x="259" 
d="M72 656q0 51 35.5 86.5t86.5 35.5t87 -35.5t36 -86.5t-36 -86.5t-87 -35.5t-86.5 35.5t-35.5 86.5zM131 656q0 -30 17 -50t46 -20t46.5 20t17.5 50t-17.5 50t-46.5 20t-46 -20t-17 -50z" />
    <glyph glyph-name="ogonek" unicode="&#x2db;" horiz-adv-x="259" 
d="M250 -149q-53 -68 -134 -68q-14 0 -28 2.5t-34 10.5t-32.5 27.5t-12.5 49.5q0 76 149 130h65q-118 -65 -118 -126q0 -15 11.5 -24.5t27.5 -9.5q35 0 58 30z" />
    <glyph glyph-name="tilde" unicode="&#x2dc;" horiz-adv-x="259" 
d="M380 714q-6 -20 -9 -29.5t-12.5 -29t-20 -29t-29 -18t-41.5 -8.5q-29 0 -82 17q-47 17 -70 17q-19 0 -27.5 -10t-14.5 -32h-61q12 55 39.5 88.5t86.5 33.5q19 0 64 -17q42 -18 66 -18q22 0 32.5 10t9.5 25h69z" />
    <glyph glyph-name="hungarumlaut" unicode="&#x2dd;" horiz-adv-x="259" 
d="M294 581h-100l88 142h152zM94 581h-99l87 142h152z" />
    <glyph glyph-name="uni02DE" unicode="&#x2de;" horiz-adv-x="414" 
d="M266 247q16 -5 33 3.5t28 20t26 31.5q4 -8 22 -20t23 -19q-20 -37 -56 -62.5t-76 -27.5q-55 -6 -85 32t-16 97q-12 -3 -70 -18.5t-91 -20.5l20 93q40 12 122.5 35.5t122.5 35.5q1 -19 -5.5 -50.5t-13 -56t-4 -46t19.5 -27.5z" />
    <glyph glyph-name="uni02DF" unicode="&#x2df;" horiz-adv-x="292" 
d="M203 534l102 84l35 -45l-102 -84l67 -84l-55 -46l-66 84l-102 -84l-35 46l101 84l-66 84l55 45z" />
    <glyph glyph-name="uni02E0" unicode="&#x2e0;" horiz-adv-x="278" 
d="M97 258l21 98l-38 261h77l17 -162h1l88 162h77l-150 -261l-21 -98h-72z" />
    <glyph glyph-name="uni02E1" unicode="&#x2e1;" horiz-adv-x="139" 
d="M196 716l-77 -360h-70l77 360h70z" />
    <glyph glyph-name="uni02E2" unicode="&#x2e2;" horiz-adv-x="278" 
d="M49 441h70q-1 -18 5 -26q11 -14 45 -14q43 0 49 25q2 12 -5 17q-9 7 -69 21q-41 12 -58 29q-14 17 -8 48q9 38 44 63.5t85 25.5q53 0 79 -21t20 -67h-69q1 12 -4 21q-8 14 -36 14q-41 0 -47 -24q-2 -11 7 -17q8 -5 68 -19q39 -10 56 -30q17 -21 10 -50q-9 -41 -44.5 -65
t-94.5 -24q-61 0 -86.5 25t-16.5 68z" />
    <glyph glyph-name="uni02E3" unicode="&#x2e3;" horiz-adv-x="278" 
d="M106 356h-85l120 135l-59 131h85l28 -77l60 77h83l-115 -129l62 -137h-87l-29 81z" />
    <glyph glyph-name="uni02E4" unicode="&#x2e4;" horiz-adv-x="306" 
d="M318 702q39 -30 28 -99h-71q4 24 -4.5 41t-35.5 17t-42.5 -14.5t-18.5 -34.5q-4 -16 3 -30q5 -8 11 -14l15 -14q23 -22 26 -37t-27 -161h-66q27 123 25 133q-2 16 -13 26l-14 13q-24 22 -29 34q-11 23 -5 54q11 49 52.5 76.5t98.5 27.5q41 0 67 -18z" />
    <glyph glyph-name="uni02E5" unicode="&#x2e5;" horiz-adv-x="475" 
d="M385 0h-132l124 588h-309l29 132h441z" />
    <glyph glyph-name="uni02E6" unicode="&#x2e6;" horiz-adv-x="470" 
d="M380 0h-131l93 441h-309l28 132h309l32 147h131z" />
    <glyph glyph-name="uni02E7" unicode="&#x2e7;" horiz-adv-x="470" 
d="M380 0h-131l62 294h-309l28 132h309l63 294h131z" />
    <glyph glyph-name="uni02E8" unicode="&#x2e8;" horiz-adv-x="470" 
d="M402 720h131l-153 -720h-131l31 146h-309l28 132h309z" />
    <glyph glyph-name="uni02E9" unicode="&#x2e9;" horiz-adv-x="475" 
d="M406 720h132l-153 -720h-441l28 132h309z" />
    <glyph glyph-name="uni02EA" unicode="&#x2ea;" horiz-adv-x="296" 
d="M-30 0l112 531h66l-102 -480h199l-10 -51h-265z" />
    <glyph glyph-name="uni02EB" unicode="&#x2eb;" horiz-adv-x="295" 
d="M-30 0l112 531h66l-51 -240h199l-10 -51h-199l-51 -240h-66z" />
    <glyph glyph-name="uni02EC" unicode="&#x2ec;" horiz-adv-x="333" 
d="M133 -177h-125l-82 146h112l46 -83l81 83h114z" />
    <glyph glyph-name="uni02ED" unicode="&#x2ed;" horiz-adv-x="333" 
d="M69 635l16 74h347l-16 -74h-347zM38 489l16 74h347l-16 -74h-347z" />
    <glyph glyph-name="uni02EE" unicode="&#x2ee;" horiz-adv-x="500" 
d="M341 443l11 51q52 15 78 56q10 16 15 39h-76l27 128h139l-22 -103q-31 -145 -172 -171zM110 443l11 51q53 16 78 54q13 18 16 41h-76l27 128h139l-22 -103q-30 -145 -173 -171z" />
    <glyph glyph-name="uni02EF" unicode="&#x2ef;" horiz-adv-x="292" 
d="M69 -241h-62l-49 288h68l30 -206l116 206h68z" />
    <glyph glyph-name="uni02F0" unicode="&#x2f0;" horiz-adv-x="292" 
d="M68 47h62l49 -288h-68l-29 206l-117 -206h-67z" />
    <glyph glyph-name="uni02F1" unicode="&#x2f1;" horiz-adv-x="292" 
d="M-81 -128l13 62l310 109l-15 -67l-220 -73l189 -73l-14 -68z" />
    <glyph glyph-name="uni02F2" unicode="&#x2f2;" horiz-adv-x="292" 
d="M218 -66l-13 -62l-309 -110l14 68l220 73l-190 73l15 67z" />
    <glyph glyph-name="uni02F3" unicode="&#x2f3;" horiz-adv-x="333" 
d="M78 -134q23 0 43.5 16.5t25.5 40.5t-8.5 41t-36.5 17q-24 0 -45 -17t-26 -41t9 -40.5t38 -16.5zM113 30q43 0 67.5 -31.5t15.5 -75.5q-9 -43 -47 -75q-37 -31 -81 -31t-69 31t-16 75t47 76q38 31 83 31z" />
    <glyph glyph-name="uni02F4" unicode="&#x2f4;" horiz-adv-x="333" 
d="M193 447l62 -146h-101l-116 146h155z" />
    <glyph glyph-name="uni02F5" unicode="&#x2f5;" horiz-adv-x="333" 
d="M183 447l42 -142h-96l-88 142h142zM255 447h142l42 -142h-96z" />
    <glyph glyph-name="uni02F6" unicode="&#x2f6;" horiz-adv-x="333" 
d="M224 305l104 142h142l-150 -142h-96zM114 447h142l-150 -142h-96z" />
    <glyph glyph-name="uni02F7" unicode="&#x2f7;" horiz-adv-x="333" 
d="M117 114l42 -17q31 -11 39 -11q21 0 33 10.5t23 31.5h65q-48 -121 -138 -121q-14 0 -41 8l-29 8l-37 14q-11 5 -31 5q-18 0 -32 -11t-23 -31h-63q21 51 44 77q40 46 102 46q19 0 46 -9z" />
    <glyph glyph-name="uni02F8" unicode="&#x2f8;" horiz-adv-x="333" 
d="M175 574l31 146h148l-31 -146h-148zM97 208l31 146h148l-31 -146h-148z" />
    <glyph glyph-name="uni02F9" unicode="&#x2f9;" horiz-adv-x="333" 
d="M123 424l63 298h147l-11 -51h-81l-52 -247h-66z" />
    <glyph glyph-name="uni02FA" unicode="&#x2fa;" horiz-adv-x="333" 
d="M333 722l-63 -298h-66l52 247h-81l11 51h147z" />
    <glyph glyph-name="uni02FB" unicode="&#x2fb;" horiz-adv-x="333" 
d="M33 0l63 298h66l-53 -247h81l-10 -51h-147z" />
    <glyph glyph-name="uni02FC" unicode="&#x2fc;" horiz-adv-x="333" 
d="M243 298l-63 -298h-147l10 51h81l53 247h66z" />
    <glyph glyph-name="uni02FD" unicode="&#x2fd;" horiz-adv-x="333" 
d="M255 -1h-298l32 147h50l-18 -81h197l18 81h51z" />
    <glyph glyph-name="uni02FE" unicode="&#x2fe;" horiz-adv-x="333" 
d="M255 -1h-298l32 147h50l-18 -81h197h51z" />
    <glyph glyph-name="uni02FF" unicode="&#x2ff;" horiz-adv-x="595" 
d="M237 3l-265 109l312 110l-16 -74h293l-16 -74h-293z" />
    <glyph glyph-name="gravecmb" unicode="&#x300;" horiz-adv-x="0" 
d="M6 581h-100l-140 142h152z" />
    <glyph glyph-name="acutecmb" unicode="&#x301;" horiz-adv-x="0" 
d="M-24 581h-100l88 142h152z" />
    <glyph glyph-name="circumflexcmb" unicode="&#x302;" horiz-adv-x="0" 
d="M-112 723h126l83 -142h-100l-50 81l-87 -81h-109z" />
    <glyph glyph-name="tildecmb" unicode="&#x303;" horiz-adv-x="0" 
d="M-210 691h305l-14 -75h-305z" />
    <glyph glyph-name="macroncmb" unicode="&#x304;" horiz-adv-x="0" 
d="M53 714h69q-6 -20 -9 -29.5t-12.5 -29t-20 -29t-29 -18t-41.5 -8.5q-29 0 -82 17q-47 17 -70 17q-19 0 -27.5 -10t-14.5 -32h-61q12 55 39.5 88.5t86.5 33.5q19 0 64 -17q42 -18 66 -18q22 0 32.5 10t9.5 25z" />
    <glyph glyph-name="uni0305" unicode="&#x305;" horiz-adv-x="0" 
d="M-404 635l16 74h347l-16 -74h-347z" />
    <glyph glyph-name="brevecmb" unicode="&#x306;" horiz-adv-x="0" 
d="M-220 727h65q3 -35 28.5 -53t65.5 -18q43 0 69 17.5t45 53.5h66q-42 -146 -189 -146q-69 0 -109.5 39.5t-40.5 106.5z" />
    <glyph glyph-name="dotaccentcmb" unicode="&#x307;" horiz-adv-x="0" 
d="M-119 714h131l-24 -117h-131z" />
    <glyph glyph-name="dieresiscmb" unicode="&#x308;" horiz-adv-x="0" 
d="M-217 714h131l-24 -117h-131zM-21 714h131l-24 -117h-131z" />
    <glyph glyph-name="uni0309" unicode="&#x309;" horiz-adv-x="0" 
d="M-220 739q-6 9 -30 10h-25l6 39q39 3 47 3q60 0 79 -39q9 -17 3 -39q-12 -52 -78 -66l-11 -21h-68l11 37q65 5 73 46q4 17 -7 30z" />
    <glyph glyph-name="ringcmb" unicode="&#x30a;" horiz-adv-x="0" 
d="M-186 656q0 51 35.5 86.5t86.5 35.5t87 -35.5t36 -86.5t-36 -86.5t-87 -35.5t-86.5 35.5t-35.5 86.5zM-127 656q0 -30 17 -50t46 -20t46.5 20t17.5 50t-17.5 50t-46.5 20t-46 -20t-17 -50z" />
    <glyph glyph-name="hungarumlautcmb" unicode="&#x30b;" horiz-adv-x="0" 
d="M36 581h-100l88 142h152zM-164 581h-99l87 142h152z" />
    <glyph glyph-name="caroncmb" unicode="&#x30c;" horiz-adv-x="0" 
d="M-18 581h-126l-83 142h100l50 -83l87 83h109z" />
    <glyph glyph-name="uni030D" unicode="&#x30d;" horiz-adv-x="0" 
d="M-250 712h74l-32 -152h-74z" />
    <glyph glyph-name="uni030E" unicode="&#x30e;" horiz-adv-x="0" 
d="M-331 712h74l-32 -152h-74zM-170 712h74l-32 -152h-74z" />
    <glyph glyph-name="uni030F" unicode="&#x30f;" horiz-adv-x="0" 
d="M-277 750l42 -143h-95l-90 143h143zM-205 750h142l42 -143h-95z" />
    <glyph glyph-name="uni0310" unicode="&#x310;" horiz-adv-x="0" 
d="M-236 604q-156 0 -138 146h66q-3 -45 34 -61q21 -9 54 -9t57 9q44 17 60 61h65q-42 -146 -198 -146zM-268 761l25 115h127l-25 -115h-127z" />
    <glyph glyph-name="uni0311" unicode="&#x311;" horiz-adv-x="0" 
d="M-205 750q155 0 137 -146h-66q3 46 -34 62q-19 9 -53 9q-33 0 -58 -9q-43 -16 -60 -62h-66q45 146 200 146z" />
    <glyph glyph-name="uni0312" unicode="&#x312;" horiz-adv-x="0" 
d="M-338 452l21 103q30 142 174 172l-11 -51q-54 -15 -79 -55q-14 -21 -15 -40h76l-27 -129h-139z" />
    <glyph glyph-name="uni0313" unicode="&#x313;" horiz-adv-x="0" 
d="M-337 443l11 51q50 15 76 51q15 23 18 44h-77l27 128h140l-22 -103q-15 -72 -60 -115t-113 -56z" />
    <glyph glyph-name="uni0314" unicode="&#x314;" horiz-adv-x="0" 
d="M-302 624l22 103h139l-27 -129h-76q-6 -20 -2 -40q9 -40 55 -55l-10 -51q-132 26 -101 172z" />
    <glyph glyph-name="uni0315" unicode="&#x315;" horiz-adv-x="0" 
d="M-337 443l11 51q50 15 76 51q15 23 18 44h-77l27 128h140l-22 -103q-15 -72 -60 -115t-113 -56z" />
    <glyph glyph-name="uni0316" unicode="&#x316;" horiz-adv-x="0" 
d="M-340 -31l62 -146h-100l-117 146h155z" />
    <glyph glyph-name="uni0317" unicode="&#x317;" horiz-adv-x="0" 
d="M-402 -31h155l-179 -146h-101z" />
    <glyph glyph-name="uni0318" unicode="&#x318;" horiz-adv-x="0" 
d="M-356 -277l21 100h-199l13 64h199l22 100h64l-56 -264h-64z" />
    <glyph glyph-name="uni0319" unicode="&#x319;" horiz-adv-x="0" 
d="M-470 -177l-21 -100h-64l56 264h64l-22 -100h199l-13 -64h-199z" />
    <glyph glyph-name="uni031A" unicode="&#x31a;" horiz-adv-x="0" 
d="M-350 690h264l-38 -178h-64l25 114h-200z" />
    <glyph glyph-name="uni031B" unicode="&#x31b;" horiz-adv-x="0" 
d="M-444 443l52 27q34 9 66 5q34 -3 82 19l-27 73l142 73l47 -131l-123 -63q-87 -42 -141 -29q-16 4 -43 8t-40 7.5t-15 10.5z" />
    <glyph glyph-name="uni031C" unicode="&#x31c;" horiz-adv-x="0" 
d="M-340 -134h-1l-10 -50q-43 1 -67.5 32t-15.5 75t47 76q37 31 82 31l-11 -49q-24 0 -44.5 -17t-25.5 -41t8.5 -40.5t37.5 -16.5z" />
    <glyph glyph-name="uni031D" unicode="&#x31d;" horiz-adv-x="0" 
d="M-542 -212h100l43 198h64l-43 -198h100l-13 -64h-264z" />
    <glyph glyph-name="uni031E" unicode="&#x31e;" horiz-adv-x="0" 
d="M-413 -78h-100l14 64h264l-14 -64h-100l-42 -198h-64z" />
    <glyph glyph-name="uni031F" unicode="&#x31f;" horiz-adv-x="0" 
d="M-434 -176h-100l14 64h100l21 100h64l-21 -100h100l-14 -64h-100l-21 -100h-64z" />
    <glyph glyph-name="uni0320" unicode="&#x320;" horiz-adv-x="0" 
d="M-570 -146l16 74h348l-16 -74h-348z" />
    <glyph glyph-name="uni0321" unicode="&#x321;" horiz-adv-x="0" 
d="M-468 -248l12 56q5 -1 11 -1q22 0 27 24l38 180h70l-39 -181q-9 -42 -29.5 -60.5t-65.5 -18.5q-12 0 -24 1z" />
    <glyph glyph-name="uni0322" unicode="&#x322;" horiz-adv-x="0" 
d="M-353 -192l-12 -56q-13 -1 -25 -1q-45 0 -58 18.5t-4 60.5l39 181h69l-38 -180q-5 -24 15 -24q5 0 14 1z" />
    <glyph glyph-name="uni0323" unicode="&#x323;" horiz-adv-x="0" 
d="M-464 -168l24 116h127l-24 -116h-127z" />
    <glyph glyph-name="uni0324" unicode="&#x324;" horiz-adv-x="0" 
d="M-366 -168l24 116h127l-24 -116h-127zM-561 -168l24 116h127l-24 -116h-127z" />
    <glyph glyph-name="uni0325" unicode="&#x325;" horiz-adv-x="0" 
d="M-393 -134q24 0 44 16.5t25 40.5t-8 41t-37 17t-44.5 -17t-25.5 -41t8.5 -40.5t37.5 -16.5zM-358 30q44 0 68 -31.5t15 -75.5t-46 -75t-82 -31q-44 0 -69 31t-16 75q9 45 48 76q37 31 82 31z" />
    <glyph glyph-name="uni0326" unicode="&#x326;" horiz-adv-x="0" 
d="M-503 -338l10 51q51 15 77 51q15 23 18 44h-77l27 128h140l-22 -103q-31 -145 -173 -171z" />
    <glyph glyph-name="cedillacmb" unicode="&#x327;" horiz-adv-x="0" 
d="M-246 -195l21 48q42 -18 84 -18q40 0 40 34q0 32 -40 32q-23 0 -40 -7l-21 24l59 84h49l-39 -54h2q13 5 34 5q37 0 64.5 -18t27.5 -52q0 -100 -117 -100q-64 0 -124 22z" />
    <glyph glyph-name="ogonekcmb" unicode="&#x328;" horiz-adv-x="0" 
d="M-56 -127l48 -22q-53 -68 -134 -68q-14 0 -28 2.5t-34 10.5t-32.5 27.5t-12.5 49.5q0 76 149 130h65q-118 -65 -118 -126q0 -15 11.5 -24.5t27.5 -9.5q35 0 58 30z" />
    <glyph glyph-name="uni0329" unicode="&#x329;" horiz-adv-x="0" 
d="M-416 -69h74l-32 -152h-74z" />
    <glyph glyph-name="uni032A" unicode="&#x32a;" horiz-adv-x="0" 
d="M-539 0h348l-31 -147h-51l17 81h-246l-17 -81h-51z" />
    <glyph glyph-name="uni032B" unicode="&#x32b;" horiz-adv-x="0" 
d="M-536 -177q-157 0 -138 146h66q-3 -45 34 -61q19 -10 54 -10q34 0 57 10q39 14 48 36l10 25h68q-1 -3 -1 -25q-1 -22 32 -36q20 -10 54 -10t58 10q44 17 60 61h66q-23 -75 -74 -110q-51 -36 -126 -36t-111 36q-7 7 -12 15l-19 -15q-51 -36 -126 -36z" />
    <glyph glyph-name="uni032C" unicode="&#x32c;" horiz-adv-x="0" 
d="M-339 -177h-125l-84 146h113l46 -83l82 83h113z" />
    <glyph glyph-name="uni032D" unicode="&#x32d;" horiz-adv-x="0" 
d="M-308 -31l83 -146h-113l-47 82l-81 -82h-113l146 146h125z" />
    <glyph glyph-name="uni032E" unicode="&#x32e;" horiz-adv-x="0" 
d="M-402 -177q-156 0 -138 146h66q-3 -45 34 -61q20 -10 54 -10t57 10q44 17 60 61h66q-42 -146 -199 -146z" />
    <glyph glyph-name="uni032F" unicode="&#x32f;" horiz-adv-x="0" 
d="M-371 -31q156 0 137 -146h-66q3 45 -34 61q-19 10 -53 10t-58 -10q-44 -17 -60 -61h-66q45 146 200 146z" />
    <glyph glyph-name="uni0330" unicode="&#x330;" horiz-adv-x="0" 
d="M-392 -57l43 -17q29 -11 38 -11q39 0 55 42h65q-43 -121 -136 -121q-13 0 -42 8l-29 9l-36 13q-11 5 -31 5q-18 0 -32 -11q-15 -10 -24 -30h-63q22 51 45 76q40 46 101 46q21 0 46 -9z" />
    <glyph glyph-name="uni0331" unicode="&#x331;" horiz-adv-x="0" 
d="M-550 -146l16 74h308l-16 -74h-308z" />
    <glyph glyph-name="uni0332" unicode="&#x332;" horiz-adv-x="0" 
d="M-570 -146l16 74h348l-16 -74h-348z" />
    <glyph glyph-name="uni0333" unicode="&#x333;" horiz-adv-x="0" 
d="M-570 -146l16 74h348l-16 -74h-348zM-601 -292l16 74h348l-16 -74h-348z" />
    <glyph glyph-name="uni0334" unicode="&#x334;" horiz-adv-x="0" 
d="M-309 333l43 -17q30 -10 39 -10q38 0 54 42h65q-44 -121 -136 -121q-17 0 -42 7l-29 9l-36 13q-13 6 -31 6t-32 -11q-13 -10 -24 -31h-63q20 49 44 76q41 47 102 47q24 0 46 -10z" />
    <glyph glyph-name="uni0335" unicode="&#x335;" horiz-adv-x="0" 
d="M-486 245l15 74h348l-15 -74h-348z" />
    <glyph glyph-name="uni0336" unicode="&#x336;" horiz-adv-x="0" 
d="M-486 245l15 74h348l-15 -74h-348z" />
    <glyph glyph-name="uni0337" unicode="&#x337;" horiz-adv-x="0" 
d="M-525 171l357 371h115l-358 -371h-114z" />
    <glyph glyph-name="soliduslongoverlaycmb" unicode="&#x338;" horiz-adv-x="0" 
d="M-111 731h114l-279 -747h-113z" />
    <glyph glyph-name="uni0339" unicode="&#x339;" horiz-adv-x="0" 
d="M-445 -134h-1q24 0 44 16.5t25 40.5t-8 41t-37 17l11 49q44 0 68 -31.5t15 -75.5t-46 -75q-36 -30 -83 -32z" />
    <glyph glyph-name="uni033A" unicode="&#x33a;" horiz-adv-x="0" 
d="M-222 -147h-348l31 147h51l-17 -82h246l17 82h51z" />
    <glyph glyph-name="uni033B" unicode="&#x33b;" horiz-adv-x="0" 
d="M-565 -289l59 279h278l-59 -279h-278zM-488 -238h147l38 177h-147z" />
    <glyph glyph-name="uni033C" unicode="&#x33c;" horiz-adv-x="0" 
d="M-237 -31q75 0 99 -97l-61 12q-20 10 -54 10t-58 -10q-39 -14 -47 -35l-10 -26h-68q1 3 1 26q0 21 -33 35q-19 10 -53 10q-35 0 -58 -10l-67 -12q64 97 141 97q75 0 110 -36q5 -5 13 -15l18 15q52 36 127 36z" />
    <glyph glyph-name="uni033D" unicode="&#x33d;" horiz-adv-x="0" 
d="M-210 729l102 84l36 -45l-102 -84l66 -84l-55 -46l-66 85l-102 -85l-35 46l102 84l-66 84l54 45z" />
    <glyph glyph-name="uni033E" unicode="&#x33e;" horiz-adv-x="0" 
d="M-260 644l-7 45q-6 23 0 48q14 62 67 93q28 16 82 27l-14 -63q-20 -4 -34 -17q-14 -11 -18 -30q-2 -21 -1 -32l5 -39l3 -31q1 -28 -3 -43q-17 -90 -144 -111l14 65q44 9 52 47q1 11 -2 41z" />
    <glyph glyph-name="uni033F" unicode="&#x33f;" horiz-adv-x="0" 
d="M-404 635l16 74h347l-16 -74h-347zM-435 489l16 74h348l-16 -74h-348z" />
    <glyph glyph-name="uni0340" unicode="&#x340;" horiz-adv-x="0" 
d="M-174 750l62 -146h-100l-117 146h155z" />
    <glyph glyph-name="uni0341" unicode="&#x341;" horiz-adv-x="0" 
d="M-236 750h155l-179 -146h-101z" />
    <glyph glyph-name="uni0342" unicode="&#x342;" horiz-adv-x="0" 
d="M-205 750q155 0 137 -146h-66q3 46 -34 62q-19 9 -53 9q-33 0 -58 -9q-43 -16 -60 -62h-66q45 146 200 146z" />
    <glyph glyph-name="uni0343" unicode="&#x343;" horiz-adv-x="0" 
d="M-337 443l11 51q50 15 76 51q15 23 18 44h-77l27 128h140l-22 -103q-15 -72 -60 -115t-113 -56z" />
    </font>
</defs>
</svg>
